  0
SECTION
  2
HEADER
  9
$ACADVER
  1
AC1021
  9
$ACADMAINTVER
 70
25
  9
$DWGCODEPAGE
  3
ANSI_1252
  9
$LASTSAVEDBY
  1
ezdxf
  9
$INSBASE
 10
0.0
 20
0.0
 30
0.0
  9
$EXTMIN
 10
1e+20
 20
1e+20
 30
1e+20
  9
$EXTMAX
 10
-1e+20
 20
-1e+20
 30
-1e+20
  9
$LIMMIN
 10
0.0
 20
0.0
  9
$LIMMAX
 10
420.0
 20
297.0
  9
$ORTHOMODE
 70
0
  9
$REGENMODE
 70
1
  9
$FILLMODE
 70
1
  9
$QTEXTMODE
 70
0
  9
$MIRRTEXT
 70
1
  9
$LTSCALE
 40
1.0
  9
$ATTMODE
 70
1
  9
$TEXTSIZE
 40
2.5
  9
$TRACEWID
 40
1.0
  9
$TEXTSTYLE
  7
OpenSans
  9
$CLAYER
  8
0
  9
$CELTYPE
  6
ByLayer
  9
$CECOLOR
 62
256
  9
$CELTSCALE
 40
1.0
  9
$DISPSILH
 70
0
  9
$DIMSCALE
 40
1.0
  9
$DIMASZ
 40
0.175
  9
$DIMEXO
 40
0.125
  9
$DIMDLI
 40
3.75
  9
$DIMRND
 40
0.0
  9
$DIMDLE
 40
0.0
  9
$DIMEXE
 40
0.375
  9
$DIMTP
 40
0.0
  9
$DIMTM
 40
0.0
  9
$DIMTXT
 40
0.25
  9
$DIMCEN
 40
2.5
  9
$DIMTSZ
 40
0.0
  9
$DIMTOL
 70
0
  9
$DIMLIM
 70
0
  9
$DIMTIH
 70
0
  9
$DIMTOH
 70
0
  9
$DIMSE1
 70
0
  9
$DIMSE2
 70
0
  9
$DIMTAD
 70
1
  9
$DIMZIN
 70
12
  9
$DIMBLK
  1
ARCHTICK
  9
$DIMASO
 70
1
  9
$DIMSHO
 70
1
  9
$DIMPOST
  1

  9
$DIMAPOST
  1

  9
$DIMALT
 70
0
  9
$DIMALTD
 70
3
  9
$DIMALTF
 40
0.03937007874
  9
$DIMLFAC
 40
100.0
  9
$DIMTOFL
 70
1
  9
$DIMTVP
 40
0.0
  9
$DIMTIX
 70
0
  9
$DIMSOXD
 70
0
  9
$DIMSAH
 70
0
  9
$DIMBLK1
  1

  9
$DIMBLK2
  1

  9
$DIMSTYLE
  2
EZDXF
  9
$DIMCLRD
 70
0
  9
$DIMCLRE
 70
0
  9
$DIMCLRT
 70
0
  9
$DIMTFAC
 40
0.5
  9
$DIMGAP
 40
0.1
  9
$DIMJUST
 70
0
  9
$DIMSD1
 70
0
  9
$DIMSD2
 70
0
  9
$DIMTOLJ
 70
0
  9
$DIMTZIN
 70
8
  9
$DIMALTZ
 70
0
  9
$DIMALTTZ
 70
0
  9
$DIMUPT
 70
1
  9
$DIMDEC
 70
2
  9
$DIMTDEC
 70
2
  9
$DIMALTU
 70
2
  9
$DIMALTTD
 70
3
  9
$DIMTXSTY
  7
OpenSansCondensed-Light
  9
$DIMAUNIT
 70
0
  9
$DIMADEC
 70
2
  9
$DIMALTRND
 40
0.0
  9
$DIMAZIN
 70
3
  9
$DIMDSEP
 70
46
  9
$DIMATFIT
 70
3
  9
$DIMFRAC
 70
0
  9
$DIMLDRBLK
  1

  9
$DIMLUNIT
 70
2
  9
$DIMLWD
 70
-2
  9
$DIMLWE
 70
-2
  9
$DIMTMOVE
 70
2
  9
$DIMFXL
 40
1.0
  9
$DIMFXLON
 70
0
  9
$DIMJOGANG
 40
0.785398163397
  9
$DIMTFILL
 70
0
  9
$DIMTFILLCLR
 70
0
  9
$DIMARCSYM
 70
0
  9
$DIMLTYPE
  6

  9
$DIMLTEX1
  6

  9
$DIMLTEX2
  6

  9
$LUNITS
 70
2
  9
$LUPREC
 70
4
  9
$SKETCHINC
 40
1.0
  9
$FILLETRAD
 40
10.0
  9
$AUNITS
 70
0
  9
$AUPREC
 70
2
  9
$MENU
  1
.
  9
$ELEVATION
 40
0.0
  9
$PELEVATION
 40
0.0
  9
$THICKNESS
 40
0.0
  9
$LIMCHECK
 70
0
  9
$CHAMFERA
 40
0.0
  9
$CHAMFERB
 40
0.0
  9
$CHAMFERC
 40
0.0
  9
$CHAMFERD
 40
0.0
  9
$SKPOLY
 70
0
  9
$TDCREATE
 40
2461097.833090278
  9
$TDUCREATE
 40
2458532.153996898
  9
$TDUPDATE
 40
2461097.833090278
  9
$TDUUPDATE
 40
2458532.1544311
  9
$TDINDWG
 40
0.0
  9
$TDUSRTIMER
 40
0.0
  9
$USRTIMER
 70
1
  9
$ANGBASE
 50
0.0
  9
$ANGDIR
 70
0
  9
$PDMODE
 70
0
  9
$PDSIZE
 40
0.0
  9
$PLINEWID
 40
0.0
  9
$SPLFRAME
 70
0
  9
$SPLINETYPE
 70
6
  9
$SPLINESEGS
 70
8
  9
$HANDSEED
  5
3DA
  9
$SURFTAB1
 70
6
  9
$SURFTAB2
 70
6
  9
$SURFTYPE
 70
6
  9
$SURFU
 70
6
  9
$SURFV
 70
6
  9
$UCSBASE
  2

  9
$UCSNAME
  2

  9
$UCSORG
 10
0.0
 20
0.0
 30
0.0
  9
$UCSXDIR
 10
1.0
 20
0.0
 30
0.0
  9
$UCSYDIR
 10
0.0
 20
1.0
 30
0.0
  9
$UCSORTHOREF
  2

  9
$UCSORTHOVIEW
 70
0
  9
$UCSORGTOP
 10
0.0
 20
0.0
 30
0.0
  9
$UCSORGBOTTOM
 10
0.0
 20
0.0
 30
0.0
  9
$UCSORGLEFT
 10
0.0
 20
0.0
 30
0.0
  9
$UCSORGRIGHT
 10
0.0
 20
0.0
 30
0.0
  9
$UCSORGFRONT
 10
0.0
 20
0.0
 30
0.0
  9
$UCSORGBACK
 10
0.0
 20
0.0
 30
0.0
  9
$PUCSBASE
  2

  9
$PUCSNAME
  2

  9
$PUCSORG
 10
0.0
 20
0.0
 30
0.0
  9
$PUCSXDIR
 10
1.0
 20
0.0
 30
0.0
  9
$PUCSYDIR
 10
0.0
 20
1.0
 30
0.0
  9
$PUCSORTHOREF
  2

  9
$PUCSORTHOVIEW
 70
0
  9
$PUCSORGTOP
 10
0.0
 20
0.0
 30
0.0
  9
$PUCSORGBOTTOM
 10
0.0
 20
0.0
 30
0.0
  9
$PUCSORGLEFT
 10
0.0
 20
0.0
 30
0.0
  9
$PUCSORGRIGHT
 10
0.0
 20
0.0
 30
0.0
  9
$PUCSORGFRONT
 10
0.0
 20
0.0
 30
0.0
  9
$PUCSORGBACK
 10
0.0
 20
0.0
 30
0.0
  9
$USERI1
 70
0
  9
$USERI2
 70
0
  9
$USERI3
 70
0
  9
$USERI4
 70
0
  9
$USERI5
 70
0
  9
$USERR1
 40
0.0
  9
$USERR2
 40
0.0
  9
$USERR3
 40
0.0
  9
$USERR4
 40
0.0
  9
$USERR5
 40
0.0
  9
$WORLDVIEW
 70
1
  9
$SHADEDGE
 70
3
  9
$SHADEDIF
 70
70
  9
$TILEMODE
 70
1
  9
$MAXACTVP
 70
64
  9
$PINSBASE
 10
0.0
 20
0.0
 30
0.0
  9
$PLIMCHECK
 70
0
  9
$PEXTMIN
 10
1e+20
 20
1e+20
 30
1e+20
  9
$PEXTMAX
 10
-1e+20
 20
-1e+20
 30
-1e+20
  9
$PLIMMIN
 10
0.0
 20
0.0
  9
$PLIMMAX
 10
420.0
 20
297.0
  9
$UNITMODE
 70
0
  9
$VISRETAIN
 70
1
  9
$PLINEGEN
 70
0
  9
$PSLTSCALE
 70
1
  9
$TREEDEPTH
 70
3020
  9
$CMLSTYLE
  2
Standard
  9
$CMLJUST
 70
0
  9
$CMLSCALE
 40
20.0
  9
$PROXYGRAPHICS
 70
1
  9
$MEASUREMENT
 70
1
  9
$CELWEIGHT
370
-1
  9
$ENDCAPS
280
0
  9
$JOINSTYLE
280
0
  9
$LWDISPLAY
290
0
  9
$INSUNITS
 70
6
  9
$HYPERLINKBASE
  1

  9
$STYLESHEET
  1

  9
$XEDIT
290
1
  9
$CEPSNTYPE
380
0
  9
$PSTYLEMODE
290
1
  9
$FINGERPRINTGUID
  2
{ED9656FC-A6AE-4826-85DA-AC46FA4F0028}
  9
$VERSIONGUID
  2
{4FDD318C-DFA3-4295-901A-0C5261EC9934}
  9
$EXTNAMES
290
1
  9
$PSVPSCALE
 40
0.0
  9
$OLESTARTUP
290
0
  9
$SORTENTS
280
127
  9
$INDEXCTL
280
0
  9
$HIDETEXT
280
1
  9
$XCLIPFRAME
290
1
  9
$HALOGAP
280
0
  9
$OBSCOLOR
 70
257
  9
$OBSLTYPE
280
0
  9
$INTERSECTIONDISPLAY
280
0
  9
$INTERSECTIONCOLOR
 70
257
  9
$DIMASSOC
280
2
  9
$PROJECTNAME
  1

  9
$CAMERADISPLAY
290
0
  9
$LENSLENGTH
 40
50.0
  9
$CAMERAHEIGHT
 40
0.0
  9
$STEPSPERSEC
 40
24.0
  9
$STEPSIZE
 40
100.0
  9
$3DDWFPREC
 40
2.0
  9
$PSOLWIDTH
 40
0.005
  9
$PSOLHEIGHT
 40
0.08
  9
$LOFTANG1
 40
1.570796326795
  9
$LOFTANG2
 40
1.570796326795
  9
$LOFTMAG1
 40
0.0
  9
$LOFTMAG2
 40
0.0
  9
$LOFTPARAM
 70
7
  9
$LOFTNORMALS
280
1
  9
$LATITUDE
 40
37.795
  9
$LONGITUDE
 40
-122.394
  9
$NORTHDIRECTION
 40
0.0
  9
$TIMEZONE
 70
-8000
  9
$LIGHTGLYPHDISPLAY
280
1
  9
$TILEMODELIGHTSYNCH
280
1
  9
$CMATERIAL
347
20
  9
$SOLIDHIST
280
0
  9
$SHOWHIST
280
1
  9
$DWFFRAME
280
2
  9
$DGNFRAME
280
2
  9
$REALWORLDSCALE
290
1
  9
$INTERFERECOLOR
 62
256
  9
$CSHADOW
280
0
  9
$SHADOWPLANELOCATION
 40
0.0
  0
ENDSEC
  0
SECTION
  2
CLASSES
  0
CLASS
  1
ACDBDICTIONARYWDFLT
  2
AcDbDictionaryWithDefault
  3
ObjectDBX Classes
 90
0
 91
0
280
0
281
0
  0
CLASS
  1
SUN
  2
AcDbSun
  3
SCENEOE
 90
1153
 91
0
280
0
281
0
  0
CLASS
  1
VISUALSTYLE
  2
AcDbVisualStyle
  3
ObjectDBX Classes
 90
4095
 91
0
280
0
281
0
  0
CLASS
  1
MATERIAL
  2
AcDbMaterial
  3
ObjectDBX Classes
 90
1153
 91
0
280
0
281
0
  0
CLASS
  1
SCALE
  2
AcDbScale
  3
ObjectDBX Classes
 90
1153
 91
0
280
0
281
0
  0
CLASS
  1
TABLESTYLE
  2
AcDbTableStyle
  3
ObjectDBX Classes
 90
4095
 91
0
280
0
281
0
  0
CLASS
  1
MLEADERSTYLE
  2
AcDbMLeaderStyle
  3
ACDB_MLEADERSTYLE_CLASS
 90
4095
 91
0
280
0
281
0
  0
CLASS
  1
DICTIONARYVAR
  2
AcDbDictionaryVar
  3
ObjectDBX Classes
 90
0
 91
0
280
0
281
0
  0
CLASS
  1
CELLSTYLEMAP
  2
AcDbCellStyleMap
  3
ObjectDBX Classes
 90
1152
 91
0
280
0
281
0
  0
CLASS
  1
MENTALRAYRENDERSETTINGS
  2
AcDbMentalRayRenderSettings
  3
SCENEOE
 90
1024
 91
0
280
0
281
0
  0
CLASS
  1
ACDBDETAILVIEWSTYLE
  2
AcDbDetailViewStyle
  3
ObjectDBX Classes
 90
1025
 91
0
280
0
281
0
  0
CLASS
  1
ACDBSECTIONVIEWSTYLE
  2
AcDbSectionViewStyle
  3
ObjectDBX Classes
 90
1025
 91
0
280
0
281
0
  0
CLASS
  1
RASTERVARIABLES
  2
AcDbRasterVariables
  3
ISM
 90
0
 91
0
280
0
281
0
  0
CLASS
  1
LAYOUT
  2
AcDbLayout
  3
ObjectDBX Classes
 90
0
 91
0
280
0
281
0
  0
CLASS
  1
ACDBPLACEHOLDER
  2
AcDbPlaceHolder
  3
ObjectDBX Classes
 90
0
 91
0
280
0
281
0
  0
ENDSEC
  0
SECTION
  2
TABLES
  0
TABLE
  2
VPORT
  5
8
330
0
100
AcDbSymbolTable
 70
1
  0
VPORT
  5
23
330
8
100
AcDbSymbolTableRecord
100
AcDbViewportTableRecord
  2
*Active
 70
0
 10
0.0
 20
0.0
 11
1.0
 21
1.0
 12
0.0
 22
0.0
 13
0.0
 23
0.0
 14
0.5
 24
0.5
 15
0.5
 25
0.5
 16
0.0
 26
0.0
 36
1.0
 17
0.0
 27
0.0
 37
0.0
 40
1000.0
 41
1.34
 42
50.0
 43
0.0
 44
0.0
 50
0.0
 51
0.0
 71
0
 72
1000
 73
1
 74
3
 75
0
 76
0
 77
0
 78
0
281
0
 65
0
146
0.0
  0
ENDTAB
  0
TABLE
  2
LTYPE
  5
2
330
0
100
AcDbSymbolTable
 70
21
  0
LTYPE
  5
24
330
2
100
AcDbSymbolTableRecord
100
AcDbLinetypeTableRecord
  2
ByBlock
 70
0
  3

 72
65
 73
0
 40
0.0
  0
LTYPE
  5
25
330
2
100
AcDbSymbolTableRecord
100
AcDbLinetypeTableRecord
  2
ByLayer
 70
0
  3

 72
65
 73
0
 40
0.0
  0
LTYPE
  5
26
330
2
100
AcDbSymbolTableRecord
100
AcDbLinetypeTableRecord
  2
Continuous
 70
0
  3

 72
65
 73
0
 40
0.0
  0
LTYPE
  5
2F
330
2
100
AcDbSymbolTableRecord
100
AcDbLinetypeTableRecord
  2
CENTER
 70
0
  3
Center ____ _ ____ _ ____ _ ____ _ ____ _ ____
 72
65
 73
4
 40
5.08
 49
3.175
 74
0
 49
-0.635
 74
0
 49
0.635
 74
0
 49
-0.635
 74
0
  0
LTYPE
  5
30
330
2
100
AcDbSymbolTableRecord
100
AcDbLinetypeTableRecord
  2
CENTERX2
 70
0
  3
Center (2x) ________  __  ________  __  ________
 72
65
 73
4
 40
8.89
 49
6.35
 74
0
 49
-0.635
 74
0
 49
1.27
 74
0
 49
-0.635
 74
0
  0
LTYPE
  5
31
330
2
100
AcDbSymbolTableRecord
100
AcDbLinetypeTableRecord
  2
CENTER2
 70
0
  3
Center (.5x) ____ _ ____ _ ____ _ ____ _ ____
 72
65
 73
4
 40
2.54
 49
1.587
 74
0
 49
-0.318
 74
0
 49
0.318
 74
0
 49
-0.318
 74
0
  0
LTYPE
  5
32
330
2
100
AcDbSymbolTableRecord
100
AcDbLinetypeTableRecord
  2
DASHED
 70
0
  3
Dashed __ __ __ __ __ __ __ __ __ __ __ __ __ _
 72
65
 73
2
 40
1.524
 49
1.27
 74
0
 49
-0.254
 74
0
  0
LTYPE
  5
33
330
2
100
AcDbSymbolTableRecord
100
AcDbLinetypeTableRecord
  2
DASHEDX2
 70
0
  3
Dashed (2x) ____  ____  ____  ____  ____  ____
 72
65
 73
2
 40
3.048
 49
2.54
 74
0
 49
-0.508
 74
0
  0
LTYPE
  5
34
330
2
100
AcDbSymbolTableRecord
100
AcDbLinetypeTableRecord
  2
DASHED2
 70
0
  3
Dashed (.5x) _ _ _ _ _ _ _ _ _ _ _ _ _ _
 72
65
 73
2
 40
0.762
 49
0.635
 74
0
 49
-0.127
 74
0
  0
LTYPE
  5
35
330
2
100
AcDbSymbolTableRecord
100
AcDbLinetypeTableRecord
  2
PHANTOM
 70
0
  3
Phantom ______  __  __  ______  __  __  ______
 72
65
 73
6
 40
6.35
 49
3.175
 74
0
 49
-0.635
 74
0
 49
0.635
 74
0
 49
-0.635
 74
0
 49
0.635
 74
0
 49
-0.635
 74
0
  0
LTYPE
  5
36
330
2
100
AcDbSymbolTableRecord
100
AcDbLinetypeTableRecord
  2
PHANTOMX2
 70
0
  3
Phantom (2x)____________    ____    ____    ____________
 72
65
 73
6
 40
10.795
 49
6.35
 74
0
 49
-0.635
 74
0
 49
1.27
 74
0
 49
-0.635
 74
0
 49
1.27
 74
0
 49
-0.635
 74
0
  0
LTYPE
  5
37
330
2
100
AcDbSymbolTableRecord
100
AcDbLinetypeTableRecord
  2
PHANTOM2
 70
0
  3
Phantom (.5x) ___ _ _ ___ _ _ ___ _ _ ___ _ _ ___
 72
65
 73
6
 40
3.175
 49
1.587
 74
0
 49
-0.318
 74
0
 49
0.318
 74
0
 49
-0.318
 74
0
 49
0.318
 74
0
 49
-0.318
 74
0
  0
LTYPE
  5
38
330
2
100
AcDbSymbolTableRecord
100
AcDbLinetypeTableRecord
  2
DASHDOT
 70
0
  3
Dash dot __ . __ . __ . __ . __ . __ . __ . __
 72
65
 73
4
 40
3.556
 49
2.54
 74
0
 49
-0.508
 74
0
 49
0.0
 74
0
 49
-0.508
 74
0
  0
LTYPE
  5
39
330
2
100
AcDbSymbolTableRecord
100
AcDbLinetypeTableRecord
  2
DASHDOTX2
 70
0
  3
Dash dot (2x) ____  .  ____  .  ____  .  ____
 72
65
 73
4
 40
6.096
 49
5.08
 74
0
 49
-0.508
 74
0
 49
0.0
 74
0
 49
-0.508
 74
0
  0
LTYPE
  5
3A
330
2
100
AcDbSymbolTableRecord
100
AcDbLinetypeTableRecord
  2
DASHDOT2
 70
0
  3
Dash dot (.5x) _ . _ . _ . _ . _ . _ . _ . _
 72
65
 73
4
 40
1.778
 49
1.27
 74
0
 49
-0.254
 74
0
 49
0.0
 74
0
 49
-0.254
 74
0
  0
LTYPE
  5
3B
330
2
100
AcDbSymbolTableRecord
100
AcDbLinetypeTableRecord
  2
DOT
 70
0
  3
Dot .  .  .  .  .  .  .  .  .  .  .  .  .  .  .  .
 72
65
 73
2
 40
0.508
 49
0.0
 74
0
 49
-0.508
 74
0
  0
LTYPE
  5
3C
330
2
100
AcDbSymbolTableRecord
100
AcDbLinetypeTableRecord
  2
DOTX2
 70
0
  3
Dot (2x) .    .    .    .    .    .    .    . 
 72
65
 73
2
 40
1.016
 49
0.0
 74
0
 49
-1.016
 74
0
  0
LTYPE
  5
3D
330
2
100
AcDbSymbolTableRecord
100
AcDbLinetypeTableRecord
  2
DOT2
 70
0
  3
Dot (.5) . . . . . . . . . . . . . . . . . . . 
 72
65
 73
2
 40
0.254
 49
0.0
 74
0
 49
-0.254
 74
0
  0
LTYPE
  5
3E
330
2
100
AcDbSymbolTableRecord
100
AcDbLinetypeTableRecord
  2
DIVIDE
 70
0
  3
Divide __ . . __ . . __ . . __ . . __ . . __
 72
65
 73
6
 40
4.064
 49
2.54
 74
0
 49
-0.508
 74
0
 49
0.0
 74
0
 49
-0.508
 74
0
 49
0.0
 74
0
 49
-0.508
 74
0
  0
LTYPE
  5
3F
330
2
100
AcDbSymbolTableRecord
100
AcDbLinetypeTableRecord
  2
DIVIDEX2
 70
0
  3
Divide (2x) ____  . .  ____  . .  ____  . .  ____
 72
65
 73
6
 40
6.604
 49
5.08
 74
0
 49
-0.508
 74
0
 49
0.0
 74
0
 49
-0.508
 74
0
 49
0.0
 74
0
 49
-0.508
 74
0
  0
LTYPE
  5
40
330
2
100
AcDbSymbolTableRecord
100
AcDbLinetypeTableRecord
  2
DIVIDE2
 70
0
  3
Divide(.5x) _ . _ . _ . _ . _ . _ . _ . _
 72
65
 73
6
 40
2.032
 49
1.27
 74
0
 49
-0.254
 74
0
 49
0.0
 74
0
 49
-0.254
 74
0
 49
0.0
 74
0
 49
-0.254
 74
0
  0
ENDTAB
  0
TABLE
  2
LAYER
  5
1
330
0
100
AcDbSymbolTable
 70
52
  0
LAYER
  5
27
330
1
100
AcDbSymbolTableRecord
100
AcDbLayerTableRecord
  2
0
 70
0
 62
7
  6
Continuous
370
-3
390
13
347
21
  0
LAYER
  5
28
330
1
100
AcDbSymbolTableRecord
100
AcDbLayerTableRecord
  2
Defpoints
 70
0
 62
7
  6
Continuous
290
0
370
-3
390
13
347
21
  0
LAYER
  5
8A
330
1
100
AcDbSymbolTableRecord
100
AcDbLayerTableRecord
  2
POSTE
 70
0
 62
3
  6
CONTINUOUS
370
-3
390
13
347
21
  0
LAYER
  5
8B
330
1
100
AcDbSymbolTableRecord
100
AcDbLayerTableRecord
  2
PONTO FOTO
 70
0
 62
4
  6
CONTINUOUS
370
-3
390
13
347
21
  0
LAYER
  5
8C
330
1
100
AcDbSymbolTableRecord
100
AcDbLayerTableRecord
  2
SIMBOLOS
 70
0
 62
5
  6
CONTINUOUS
370
-3
390
13
347
21
  0
LAYER
  5
8D
330
1
100
AcDbSymbolTableRecord
100
AcDbLayerTableRecord
  2
CERCA
 70
0
 62
8
  6
DASHDOT
370
-3
390
13
347
21
  0
LAYER
  5
8E
330
1
100
AcDbSymbolTableRecord
100
AcDbLayerTableRecord
  2
TEXTOS MAPA
 70
0
 62
8
  6
CONTINUOUS
370
-3
390
13
347
21
  0
LAYER
  5
8F
330
1
100
AcDbSymbolTableRecord
100
AcDbLayerTableRecord
  2
PONTO DE ENTREGA
 70
0
 62
8
  6
CONTINUOUS
370
-3
390
13
347
21
  0
LAYER
  5
90
330
1
100
AcDbSymbolTableRecord
100
AcDbLayerTableRecord
  2
TEXTOS A IMPLANTAR
 70
0
 62
1
  6
CONTINUOUS
370
-3
390
13
347
21
  0
LAYER
  5
91
330
1
100
AcDbSymbolTableRecord
100
AcDbLayerTableRecord
  2
TEXTOS EXISTENTES
 70
0
 62
7
  6
CONTINUOUS
370
-3
390
13
347
21
  0
LAYER
  5
92
330
1
100
AcDbSymbolTableRecord
100
AcDbLayerTableRecord
  2
TEXTOS A REMOVER
 70
0
 62
7
  6
CONTINUOUS
370
-3
390
13
347
21
  0
LAYER
  5
93
330
1
100
AcDbSymbolTableRecord
100
AcDbLayerTableRecord
  2
TEXTOS A SUBSTIRUIR
 70
0
 62
7
  6
CONTINUOUS
370
-3
390
13
347
21
  0
LAYER
  5
94
330
1
100
AcDbSymbolTableRecord
100
AcDbLayerTableRecord
  2
ANCORAGEM
 70
0
 62
7
  6
CONTINUOUS
370
-3
390
13
347
21
  0
LAYER
  5
95
330
1
100
AcDbSymbolTableRecord
100
AcDbLayerTableRecord
  2
RAMAIS NO MODEL
 70
0
 62
7
  6
CONTINUOUS
370
-3
390
13
347
21
  0
LAYER
  5
96
330
1
100
AcDbSymbolTableRecord
100
AcDbLayerTableRecord
  2
TIPO USO MUTUO
 70
0
 62
7
  6
CONTINUOUS
370
-3
390
13
347
21
  0
LAYER
  5
97
330
1
100
AcDbSymbolTableRecord
100
AcDbLayerTableRecord
  2
ESTAI
 70
0
 62
7
  6
CONTINUOUS
370
-3
390
13
347
21
  0
LAYER
  5
98
330
1
100
AcDbSymbolTableRecord
100
AcDbLayerTableRecord
  2
TRAFO
 70
0
 62
7
  6
CONTINUOUS
370
-3
390
13
347
21
  0
LAYER
  5
99
330
1
100
AcDbSymbolTableRecord
100
AcDbLayerTableRecord
  2
LINHAS
 70
0
 62
7
  6
CONTINUOUS
370
-3
390
13
347
21
  0
LAYER
  5
9A
330
1
100
AcDbSymbolTableRecord
100
AcDbLayerTableRecord
  2
CIRCULOS
 70
0
 62
7
  6
CONTINUOUS
370
-3
390
13
347
21
  0
LAYER
  5
9B
330
1
100
AcDbSymbolTableRecord
100
AcDbLayerTableRecord
  2
REDE BT INSTALAR
 70
0
 62
1
  6
CONTINUOUS
370
-3
390
13
347
21
  0
LAYER
  5
9C
330
1
100
AcDbSymbolTableRecord
100
AcDbLayerTableRecord
  2
REDE BT EXISTENTE
 70
0
 62
7
  6
CONTINUOUS
370
-3
390
13
347
21
  0
LAYER
  5
9D
330
1
100
AcDbSymbolTableRecord
100
AcDbLayerTableRecord
  2
REDE BT REMOVER
 70
0
 62
7
  6
CONTINUOUS
370
-3
390
13
347
21
  0
LAYER
  5
9E
330
1
100
AcDbSymbolTableRecord
100
AcDbLayerTableRecord
  2
REDE MT INSTALAR
 70
0
 62
1
  6
CONTINUOUS
370
-3
390
13
347
21
  0
LAYER
  5
9F
330
1
100
AcDbSymbolTableRecord
100
AcDbLayerTableRecord
  2
REDE MT EXISTENTE
 70
0
 62
7
  6
CONTINUOUS
370
-3
390
13
347
21
  0
LAYER
  5
A0
330
1
100
AcDbSymbolTableRecord
100
AcDbLayerTableRecord
  2
REDE MT REMOVER
 70
0
 62
7
  6
CONTINUOUS
370
-3
390
13
347
21
  0
LAYER
  5
A1
330
1
100
AcDbSymbolTableRecord
100
AcDbLayerTableRecord
  2
REDE U.M - Substituir
 70
0
 62
6
  6
CONTINUOUS
370
-3
390
13
347
21
  0
LAYER
  5
A2
330
1
100
AcDbSymbolTableRecord
100
AcDbLayerTableRecord
  2
REDE SECUNDARIA - Substituir
 70
0
 62
5
  6
CONTINUOUS
370
-3
390
13
347
21
  0
LAYER
  5
A3
330
1
100
AcDbSymbolTableRecord
100
AcDbLayerTableRecord
  2
REDE PRIMARIA - Substituir
 70
0
 62
1
  6
DOT
370
-3
390
13
347
21
  0
LAYER
  5
A4
330
1
100
AcDbSymbolTableRecord
100
AcDbLayerTableRecord
  2
REDE U.M - Manter
 70
0
 62
6
  6
CONTINUOUS
370
-3
390
13
347
21
  0
LAYER
  5
A5
330
1
100
AcDbSymbolTableRecord
100
AcDbLayerTableRecord
  2
REDE SECUNDARIA - Manter
 70
0
 62
5
  6
CONTINUOUS
370
-3
390
13
347
21
  0
LAYER
  5
A6
330
1
100
AcDbSymbolTableRecord
100
AcDbLayerTableRecord
  2
REDE PRIMARIA - Manter
 70
0
 62
1
  6
DOT
370
-3
390
13
347
21
  0
LAYER
  5
A7
330
1
100
AcDbSymbolTableRecord
100
AcDbLayerTableRecord
  2
REDE U.M - Remover
 70
0
 62
6
  6
CONTINUOUS
370
-3
390
13
347
21
  0
LAYER
  5
A8
330
1
100
AcDbSymbolTableRecord
100
AcDbLayerTableRecord
  2
REDE SECUNDARIA - Remover
 70
0
 62
5
  6
CONTINUOUS
370
-3
390
13
347
21
  0
LAYER
  5
A9
330
1
100
AcDbSymbolTableRecord
100
AcDbLayerTableRecord
  2
REDE PRIMARIA - Remover
 70
0
 62
1
  6
DOT
370
-3
390
13
347
21
  0
LAYER
  5
AA
330
1
100
AcDbSymbolTableRecord
100
AcDbLayerTableRecord
  2
REDE U.M - Instalar
 70
0
 62
6
  6
CONTINUOUS
370
-3
390
13
347
21
  0
LAYER
  5
AB
330
1
100
AcDbSymbolTableRecord
100
AcDbLayerTableRecord
  2
REDE SECUNDARIA - Instalar
 70
0
 62
5
  6
CONTINUOUS
370
-3
390
13
347
21
  0
LAYER
  5
AC
330
1
100
AcDbSymbolTableRecord
100
AcDbLayerTableRecord
  2
REDE PRIMARIA - Instalar
 70
0
 62
1
  6
DOT
370
-3
390
13
347
21
  0
LAYER
  5
B9
330
1
100
AcDbSymbolTableRecord
100
AcDbLayerTableRecord
  2
Arvores
 70
0
 62
3
  6
Continuous
370
-3
390
9
347
D
  0
LAYER
  5
C8
330
1
100
AcDbSymbolTableRecord
100
AcDbLayerTableRecord
  2
Textos
 70
0
 62
7
  6
Continuous
370
-3
390
9
347
D
  0
LAYER
  5
C9
330
1
100
AcDbSymbolTableRecord
100
AcDbLayerTableRecord
  2
Terreno
 70
0
 62
7
  6
Continuous
370
-3
390
9
347
D
  0
LAYER
  5
D6
330
1
100
AcDbSymbolTableRecord
100
AcDbLayerTableRecord
  2
Consumidor
 70
0
 62
7
  6
Continuous
370
-3
390
9
347
D
  0
LAYER
  5
E9
330
1
100
AcDbSymbolTableRecord
100
AcDbLayerTableRecord
  2
Poste retirar
 70
0
 62
7
  6
Continuous
370
-3
390
5
347
8
  0
LAYER
  5
FD
330
1
100
AcDbSymbolTableRecord
100
AcDbLayerTableRecord
  2
Poste dt
 70
0
 62
3
  6
Continuous
370
-3
390
7
347
A
  0
LAYER
  5
112
330
1
100
AcDbSymbolTableRecord
100
AcDbLayerTableRecord
  2
Poste Existente
 70
0
 62
3
  6
Continuous
370
-3
390
5
347
8
  0
LAYER
  5
14A
330
1
100
AcDbSymbolTableRecord
100
AcDbLayerTableRecord
  2
Poste circular
 70
0
 62
3
  6
Continuous
370
-3
390
5
347
8
  0
LAYER
  5
1AC
330
1
100
AcDbSymbolTableRecord
100
AcDbLayerTableRecord
  2
TRAFO A IMPLANTAR
 70
0
 62
7
  6
Continuous
370
9
390
F
347
EE
348
0
  0
LAYER
  5
1C7
330
1
100
AcDbSymbolTableRecord
100
AcDbLayerTableRecord
  2
FLY TAP
 70
0
 62
3
  6
CONTINUOUS
370
-3
390
F
347
2000F
  0
LAYER
  5
24A
330
1
100
AcDbSymbolTableRecord
100
AcDbLayerTableRecord
  2
CHAVE EXISTENTE
 70
0
 62
7
  6
CONTINUOUS
370
9
390
F
347
20010
  0
LAYER
  5
24B
330
1
100
AcDbSymbolTableRecord
100
AcDbLayerTableRecord
  2
CHAVE A IMPLANTAR
 70
0
 62
7
  6
CONTINUOUS
370
15
390
F
347
20010
  0
LAYER
  5
2AA
330
1
100
AcDbSymbolTableRecord
100
AcDbLayerTableRecord
  2
EQUIPAMENTO
 70
0
 62
7
  6
CONTINUOUS
370
-3
390
F
347
2000F
  0
LAYER
  5
2ED
330
1
100
AcDbSymbolTableRecord
100
AcDbLayerTableRecord
  2
REGULADOR
 70
0
 62
7
  6
CONTINUOUS
370
-3
390
F
347
20010
  0
LAYER
  5
320
330
1
100
AcDbSymbolTableRecord
100
AcDbLayerTableRecord
  2
Capacitor
 70
0
 62
7
  6
CONTINUOUS
370
-3
390
F
347
20010
  0
ENDTAB
  0
TABLE
  2
STYLE
  5
5
330
0
100
AcDbSymbolTable
 70
28
  0
STYLE
  5
29
330
5
100
AcDbSymbolTableRecord
100
AcDbTextStyleTableRecord
  2
Standard
 70
0
 40
0.0
 41
1.0
 50
0.0
 71
0
 42
2.5
  3
txt
  4

  0
STYLE
  5
41
330
5
100
AcDbSymbolTableRecord
100
AcDbTextStyleTableRecord
  2
OpenSans-Light
 70
0
 40
0.0
 41
1.0
 50
0.0
 71
0
 42
2.5
  3
OpenSans-Light.ttf
  4

  0
STYLE
  5
42
330
5
100
AcDbSymbolTableRecord
100
AcDbTextStyleTableRecord
  2
OpenSans-Light-Italic
 70
0
 40
0.0
 41
1.0
 50
0.0
 71
0
 42
2.5
  3
OpenSans-LightItalic.ttf
  4

  0
STYLE
  5
43
330
5
100
AcDbSymbolTableRecord
100
AcDbTextStyleTableRecord
  2
OpenSans
 70
0
 40
0.0
 41
1.0
 50
0.0
 71
0
 42
2.5
  3
OpenSans-Regular.ttf
  4

  0
STYLE
  5
44
330
5
100
AcDbSymbolTableRecord
100
AcDbTextStyleTableRecord
  2
OpenSans-Italic
 70
0
 40
0.0
 41
1.0
 50
0.0
 71
0
 42
2.5
  3
OpenSans-Italic.ttf
  4

  0
STYLE
  5
45
330
5
100
AcDbSymbolTableRecord
100
AcDbTextStyleTableRecord
  2
OpenSans-SemiBold
 70
0
 40
0.0
 41
1.0
 50
0.0
 71
0
 42
2.5
  3
OpenSans-SemiBold.ttf
  4

  0
STYLE
  5
46
330
5
100
AcDbSymbolTableRecord
100
AcDbTextStyleTableRecord
  2
OpenSans-SemiBoldItalic
 70
0
 40
0.0
 41
1.0
 50
0.0
 71
0
 42
2.5
  3
OpenSans-SemiBoldItalic.ttf
  4

  0
STYLE
  5
47
330
5
100
AcDbSymbolTableRecord
100
AcDbTextStyleTableRecord
  2
OpenSans-Bold
 70
0
 40
0.0
 41
1.0
 50
0.0
 71
0
 42
2.5
  3
OpenSans-Bold.ttf
  4

  0
STYLE
  5
48
330
5
100
AcDbSymbolTableRecord
100
AcDbTextStyleTableRecord
  2
OpenSans-BoldItalic
 70
0
 40
0.0
 41
1.0
 50
0.0
 71
0
 42
2.5
  3
OpenSans-BoldItalic.ttf
  4

  0
STYLE
  5
49
330
5
100
AcDbSymbolTableRecord
100
AcDbTextStyleTableRecord
  2
OpenSans-ExtraBold
 70
0
 40
0.0
 41
1.0
 50
0.0
 71
0
 42
2.5
  3
OpenSans-ExtraBold.ttf
  4

  0
STYLE
  5
4A
330
5
100
AcDbSymbolTableRecord
100
AcDbTextStyleTableRecord
  2
OpenSans-ExtraBoldItalic
 70
0
 40
0.0
 41
1.0
 50
0.0
 71
0
 42
2.5
  3
OpenSans-ExtraBoldItalic.ttf
  4

  0
STYLE
  5
4B
330
5
100
AcDbSymbolTableRecord
100
AcDbTextStyleTableRecord
  2
OpenSansCondensed-Bold
 70
0
 40
0.0
 41
1.0
 50
0.0
 71
0
 42
2.5
  3
OpenSansCondensed-Bold.ttf
  4

  0
STYLE
  5
4C
330
5
100
AcDbSymbolTableRecord
100
AcDbTextStyleTableRecord
  2
OpenSansCondensed-Light
 70
0
 40
0.0
 41
1.0
 50
0.0
 71
0
 42
2.5
  3
OpenSansCondensed-Light.ttf
  4

  0
STYLE
  5
4D
330
5
100
AcDbSymbolTableRecord
100
AcDbTextStyleTableRecord
  2
OpenSansCondensed-Italic
 70
0
 40
0.0
 41
1.0
 50
0.0
 71
0
 42
2.5
  3
OpenSansCondensed-LightItalic.ttf
  4

  0
STYLE
  5
4E
330
5
100
AcDbSymbolTableRecord
100
AcDbTextStyleTableRecord
  2
LiberationSans
 70
0
 40
0.0
 41
1.0
 50
0.0
 71
0
 42
2.5
  3
LiberationSans-Regular.ttf
  4

  0
STYLE
  5
4F
330
5
100
AcDbSymbolTableRecord
100
AcDbTextStyleTableRecord
  2
LiberationSans-Bold
 70
0
 40
0.0
 41
1.0
 50
0.0
 71
0
 42
2.5
  3
LiberationSans-Bold.ttf
  4

  0
STYLE
  5
50
330
5
100
AcDbSymbolTableRecord
100
AcDbTextStyleTableRecord
  2
LiberationSans-BoldItalic
 70
0
 40
0.0
 41
1.0
 50
0.0
 71
0
 42
2.5
  3
LiberationSans-BoldItalic.ttf
  4

  0
STYLE
  5
51
330
5
100
AcDbSymbolTableRecord
100
AcDbTextStyleTableRecord
  2
LiberationSans-Italic
 70
0
 40
0.0
 41
1.0
 50
0.0
 71
0
 42
2.5
  3
LiberationSans-Italic.ttf
  4

  0
STYLE
  5
52
330
5
100
AcDbSymbolTableRecord
100
AcDbTextStyleTableRecord
  2
LiberationSerif
 70
0
 40
0.0
 41
1.0
 50
0.0
 71
0
 42
2.5
  3
LiberationSerif-Regular.ttf
  4

  0
STYLE
  5
53
330
5
100
AcDbSymbolTableRecord
100
AcDbTextStyleTableRecord
  2
LiberationSerif-Bold
 70
0
 40
0.0
 41
1.0
 50
0.0
 71
0
 42
2.5
  3
LiberationSerif-Bold.ttf
  4

  0
STYLE
  5
54
330
5
100
AcDbSymbolTableRecord
100
AcDbTextStyleTableRecord
  2
LiberationSerif-BoldItalic
 70
0
 40
0.0
 41
1.0
 50
0.0
 71
0
 42
2.5
  3
LiberationSerif-BoldItalic.ttf
  4

  0
STYLE
  5
55
330
5
100
AcDbSymbolTableRecord
100
AcDbTextStyleTableRecord
  2
LiberationSerif-Italic
 70
0
 40
0.0
 41
1.0
 50
0.0
 71
0
 42
2.5
  3
LiberationSerif-Italic.ttf
  4

  0
STYLE
  5
56
330
5
100
AcDbSymbolTableRecord
100
AcDbTextStyleTableRecord
  2
LiberationMono
 70
0
 40
0.0
 41
1.0
 50
0.0
 71
0
 42
2.5
  3
LiberationMono-Regular.ttf
  4

  0
STYLE
  5
57
330
5
100
AcDbSymbolTableRecord
100
AcDbTextStyleTableRecord
  2
LiberationMono-Bold
 70
0
 40
0.0
 41
1.0
 50
0.0
 71
0
 42
2.5
  3
LiberationMono-Bold.ttf
  4

  0
STYLE
  5
58
330
5
100
AcDbSymbolTableRecord
100
AcDbTextStyleTableRecord
  2
LiberationMono-BoldItalic
 70
0
 40
0.0
 41
1.0
 50
0.0
 71
0
 42
2.5
  3
LiberationMono-BoldItalic.ttf
  4

  0
STYLE
  5
59
330
5
100
AcDbSymbolTableRecord
100
AcDbTextStyleTableRecord
  2
LiberationMono-Italic
 70
0
 40
0.0
 41
1.0
 50
0.0
 71
0
 42
2.5
  3
LiberationMono-Italic.ttf
  4

  0
STYLE
  5
BA
330
5
100
AcDbSymbolTableRecord
100
AcDbTextStyleTableRecord
  2
TEXTOS
 70
0
 40
0.0
 41
0.7
 50
15.0
 71
0
 42
2.5
  3
SIMPLEX.shx
  4

  0
STYLE
  5
177
330
5
100
AcDbSymbolTableRecord
100
AcDbTextStyleTableRecord
  2
ARIAL
 70
0
 40
0.0
 41
1.0
 50
0.0
 71
0
 42
2.5
  3
arial.ttf
  4

  0
ENDTAB
  0
TABLE
  2
VIEW
  5
7
330
0
100
AcDbSymbolTable
 70
0
  0
ENDTAB
  0
TABLE
  2
UCS
  5
6
330
0
100
AcDbSymbolTable
 70
0
  0
ENDTAB
  0
TABLE
  2
APPID
  5
3
330
0
100
AcDbSymbolTable
 70
3
  0
APPID
  5
2A
330
3
100
AcDbSymbolTableRecord
100
AcDbRegAppTableRecord
  2
ACAD
 70
0
  0
APPID
  5
384
330
3
100
AcDbSymbolTableRecord
100
AcDbRegAppTableRecord
  2
HATCHBACKGROUNDCOLOR
 70
0
  0
APPID
  5
385
330
3
100
AcDbSymbolTableRecord
100
AcDbRegAppTableRecord
  2
EZDXF
 70
0
  0
ENDTAB
  0
TABLE
  2
DIMSTYLE
  5
4
330
0
100
AcDbSymbolTable
 70
12
100
AcDbDimStyleTable
  0
DIMSTYLE
105
2B
330
4
100
AcDbSymbolTableRecord
100
AcDbDimStyleTableRecord
  2
Standard
 70
0
 40
1.0
 41
2.5
 42
0.625
 43
3.75
 44
1.25
 45
0.0
 46
0.0
 47
0.0
 48
0.0
 49
2.5
140
2.5
141
2.5
142
0.0
143
0.03937007874
144
1.0
145
0.0
146
1.0
147
0.625
148
0.0
 69
0
 70
0
 71
0
 72
0
 73
0
 74
0
 75
0
 76
0
 77
1
 78
8
 79
3
170
0
171
3
172
1
173
0
174
0
175
0
176
0
177
0
178
0
179
2
271
2
272
2
273
2
274
3
275
0
276
0
277
2
278
44
279
0
280
0
281
0
282
0
283
0
284
8
285
0
286
0
288
0
289
3
290
0
371
-2
372
-2
  0
DIMSTYLE
105
73
330
4
100
AcDbSymbolTableRecord
100
AcDbDimStyleTableRecord
  2
EZDXF
 70
0
 40
1.0
 41
0.175
 42
0.125
 43
3.75
 44
0.375
 45
0.0
 46
0.0
 47
0.0
 48
0.0
 49
2.5
140
0.25
141
2.5
142
0.0
143
0.03937007874
144
100.0
145
0.0
146
0.5
147
0.1
148
0.0
 69
0
 70
0
 71
0
 72
0
 73
0
 74
0
 75
0
 76
0
 77
1
 78
12
 79
3
170
0
171
3
172
1
173
0
174
0
175
0
176
0
177
0
178
0
179
2
271
2
272
2
273
2
274
3
275
0
276
0
277
2
278
46
279
2
280
0
281
0
282
0
283
0
284
8
285
0
286
0
288
1
289
3
290
0
340
4C
342
74
371
-2
372
-2
  0
DIMSTYLE
105
7C
330
4
100
AcDbSymbolTableRecord
100
AcDbDimStyleTableRecord
  2
EZ_M_100_H25_CM
 70
0
 40
1.0
 41
0.25
 42
0.125
 43
3.75
 44
0.375
 45
0.0
 46
0.0
 47
0.0
 48
0.0
 49
2.5
140
0.25
141
2.5
142
0.125
143
0.03937007874
144
100.0
145
0.0
146
0.5
147
0.1
148
0.0
 69
0
 70
0
 71
0
 72
0
 73
0
 74
0
 75
0
 76
0
 77
1
 78
12
 79
3
170
0
171
3
172
1
173
0
174
0
175
0
176
0
177
0
178
0
179
2
271
2
272
2
273
2
274
3
275
0
276
0
277
2
278
46
279
2
280
0
281
0
282
0
283
0
284
8
285
0
286
0
288
1
289
3
290
0
340
4C
371
-2
372
-2
  0
DIMSTYLE
105
7D
330
4
100
AcDbSymbolTableRecord
100
AcDbDimStyleTableRecord
  2
EZ_M_50_H25_CM
 70
0
 40
1.0
 41
0.125
 42
0.0625
 43
3.75
 44
0.1875
 45
0.0
 46
0.0
 47
0.0
 48
0.0
 49
2.5
140
0.125
141
2.5
142
0.0625
143
0.03937007874
144
100.0
145
0.0
146
0.5
147
0.05
148
0.0
 69
0
 70
0
 71
0
 72
0
 73
0
 74
0
 75
0
 76
0
 77
1
 78
12
 79
3
170
0
171
3
172
1
173
0
174
0
175
0
176
0
177
0
178
0
179
2
271
2
272
2
273
2
274
3
275
0
276
0
277
2
278
46
279
2
280
0
281
0
282
0
283
0
284
8
285
0
286
0
288
1
289
3
290
0
340
4C
371
-2
372
-2
  0
DIMSTYLE
105
7E
330
4
100
AcDbSymbolTableRecord
100
AcDbDimStyleTableRecord
  2
EZ_M_25_H25_CM
 70
0
 40
1.0
 41
0.0625
 42
0.03125
 43
3.75
 44
0.09375
 45
0.0
 46
0.0
 47
0.0
 48
0.0
 49
2.5
140
0.0625
141
2.5
142
0.03125
143
0.03937007874
144
100.0
145
0.0
146
0.5
147
0.025
148
0.0
 69
0
 70
0
 71
0
 72
0
 73
0
 74
0
 75
0
 76
0
 77
1
 78
12
 79
3
170
0
171
3
172
1
173
0
174
0
175
0
176
0
177
0
178
0
179
2
271
2
272
2
273
2
274
3
275
0
276
0
277
2
278
46
279
2
280
0
281
0
282
0
283
0
284
8
285
0
286
0
288
1
289
3
290
0
340
4C
371
-2
372
-2
  0
DIMSTYLE
105
7F
330
4
100
AcDbSymbolTableRecord
100
AcDbDimStyleTableRecord
  2
EZ_M_20_H25_CM
 70
0
 40
1.0
 41
0.05
 42
0.025
 43
3.75
 44
0.07500000000000001
 45
0.0
 46
0.0
 47
0.0
 48
0.0
 49
2.5
140
0.05
141
2.5
142
0.025
143
0.03937007874
144
100.0
145
0.0
146
0.5
147
0.020000000000000004
148
0.0
 69
0
 70
0
 71
0
 72
0
 73
0
 74
0
 75
0
 76
0
 77
1
 78
12
 79
3
170
0
171
3
172
1
173
0
174
0
175
0
176
0
177
0
178
0
179
2
271
2
272
2
273
2
274
3
275
0
276
0
277
2
278
46
279
2
280
0
281
0
282
0
283
0
284
8
285
0
286
0
288
1
289
3
290
0
340
4C
371
-2
372
-2
  0
DIMSTYLE
105
80
330
4
100
AcDbSymbolTableRecord
100
AcDbDimStyleTableRecord
  2
EZ_M_10_H25_CM
 70
0
 40
1.0
 41
0.025
 42
0.0125
 43
3.75
 44
0.037500000000000006
 45
0.0
 46
0.0
 47
0.0
 48
0.0
 49
2.5
140
0.025
141
2.5
142
0.0125
143
0.03937007874
144
100.0
145
0.0
146
0.5
147
0.010000000000000002
148
0.0
 69
0
 70
0
 71
0
 72
0
 73
0
 74
0
 75
0
 76
0
 77
1
 78
12
 79
3
170
0
171
3
172
1
173
0
174
0
175
0
176
0
177
0
178
0
179
2
271
2
272
2
273
2
274
3
275
0
276
0
277
2
278
46
279
2
280
0
281
0
282
0
283
0
284
8
285
0
286
0
288
1
289
3
290
0
340
4C
371
-2
372
-2
  0
DIMSTYLE
105
81
330
4
100
AcDbSymbolTableRecord
100
AcDbDimStyleTableRecord
  2
EZ_M_5_H25_CM
 70
0
 40
1.0
 41
0.0125
 42
0.00625
 43
3.75
 44
0.018750000000000003
 45
0.0
 46
0.0
 47
0.0
 48
0.0
 49
2.5
140
0.0125
141
2.5
142
0.00625
143
0.03937007874
144
100.0
145
0.0
146
0.5
147
0.005000000000000001
148
0.0
 69
0
 70
0
 71
0
 72
0
 73
0
 74
0
 75
0
 76
0
 77
1
 78
12
 79
3
170
0
171
3
172
1
173
0
174
0
175
0
176
0
177
0
178
0
179
2
271
2
272
2
273
2
274
3
275
0
276
0
277
2
278
46
279
2
280
0
281
0
282
0
283
0
284
8
285
0
286
0
288
1
289
3
290
0
340
4C
371
-2
372
-2
  0
DIMSTYLE
105
82
330
4
100
AcDbSymbolTableRecord
100
AcDbDimStyleTableRecord
  2
EZ_M_1_H25_CM
 70
0
 40
1.0
 41
0.0025
 42
0.00125
 43
3.75
 44
0.00375
 45
0.0
 46
0.0
 47
0.0
 48
0.0
 49
2.5
140
0.0025
141
2.5
142
0.00125
143
0.03937007874
144
100.0
145
0.0
146
0.5
147
0.001
148
0.0
 69
0
 70
0
 71
0
 72
0
 73
0
 74
0
 75
0
 76
0
 77
1
 78
12
 79
3
170
0
171
3
172
1
173
0
174
0
175
0
176
0
177
0
178
0
179
2
271
2
272
2
273
2
274
3
275
0
276
0
277
2
278
46
279
2
280
0
281
0
282
0
283
0
284
8
285
0
286
0
288
1
289
3
290
0
340
4C
371
-2
372
-2
  0
DIMSTYLE
105
83
330
4
100
AcDbSymbolTableRecord
100
AcDbDimStyleTableRecord
  2
EZ_RADIUS
 70
0
 40
1.0
 41
0.25
 42
0.125
 43
3.75
 44
0.375
 45
0.0
 46
0.0
 47
0.0
 48
0.0
 49
2.5
140
0.25
141
0.0
142
0.0
143
0.03937007874
144
100.0
145
0.0
146
0.5
147
0.1
148
0.0
 69
0
 70
0
 71
0
 72
0
 73
0
 74
0
 75
0
 76
0
 77
1
 78
12
 79
3
170
0
171
3
172
0
173
0
174
0
175
0
176
0
177
0
178
0
179
2
271
2
272
2
273
2
274
3
275
0
276
0
277
2
278
46
279
1
280
0
281
0
282
0
283
0
284
8
285
0
286
0
288
1
289
3
290
0
340
4C
342
84
371
-2
372
-2
  0
DIMSTYLE
105
88
330
4
100
AcDbSymbolTableRecord
100
AcDbDimStyleTableRecord
  2
EZ_RADIUS_INSIDE
 70
0
 40
1.0
 41
0.25
 42
0.125
 43
3.75
 44
0.375
 45
0.0
 46
0.0
 47
0.0
 48
0.0
 49
2.5
140
0.25
141
0.0
142
0.0
143
0.03937007874
144
100.0
145
0.0
146
0.5
147
0.1
148
0.0
 69
0
 70
0
 71
0
 72
0
 73
0
 74
0
 75
0
 76
0
 77
0
 78
12
 79
3
170
0
171
3
172
0
173
0
174
1
175
0
176
0
177
0
178
0
179
2
271
2
272
2
273
2
274
3
275
0
276
0
277
2
278
46
279
0
280
0
281
0
282
0
283
0
284
8
285
0
286
0
288
1
289
0
290
0
340
4C
342
84
371
-2
372
-2
  0
DIMSTYLE
105
89
330
4
100
AcDbSymbolTableRecord
100
AcDbDimStyleTableRecord
  2
EZ_CURVED
 70
0
 40
1.0
 41
0.25
 42
0.125
 43
3.75
 44
0.375
 45
0.0
 46
0.0
 47
0.0
 48
0.0
 49
2.5
140
0.25
141
2.5
142
0.0
143
0.03937007874
144
100.0
145
0.0
146
0.5
147
0.1
148
0.0
 69
0
 70
0
 71
0
 72
0
 73
0
 74
0
 75
0
 76
0
 77
1
 78
12
 79
2
 90
2
170
0
171
3
172
1
173
0
174
0
175
0
176
0
177
0
178
0
179
2
271
2
272
2
273
2
274
3
275
0
276
0
277
2
278
46
279
2
280
0
281
0
282
0
283
0
284
8
285
0
286
0
288
1
289
3
290
0
340
4C
371
-2
372
-2
  0
ENDTAB
  0
TABLE
  2
BLOCK_RECORD
  5
9
330
0
100
AcDbSymbolTable
 70
77
  0
BLOCK_RECORD
  5
17
330
9
100
AcDbSymbolTableRecord
100
AcDbBlockTableRecord
  2
*Model_Space
340
1A
 70
0
280
1
281
0
  0
BLOCK_RECORD
  5
1B
330
9
100
AcDbSymbolTableRecord
100
AcDbBlockTableRecord
  2
*Paper_Space
340
1E
 70
0
280
1
281
0
  0
BLOCK_RECORD
  5
74
330
9
100
AcDbSymbolTableRecord
100
AcDbBlockTableRecord
  2
_ARCHTICK
340
0
 70
0
280
1
281
0
  0
BLOCK_RECORD
  5
78
330
9
100
AcDbSymbolTableRecord
100
AcDbBlockTableRecord
  2
_CLOSEDFILLED
340
0
 70
0
280
1
281
0
  0
BLOCK_RECORD
  5
84
330
9
100
AcDbSymbolTableRecord
100
AcDbBlockTableRecord
  2
_CLOSEDBLANK
340
0
 70
0
280
1
281
0
  0
BLOCK_RECORD
  5
AD
330
9
100
AcDbSymbolTableRecord
100
AcDbBlockTableRecord
  2
Arvore
340
0
 70
4
280
1
281
0
  0
BLOCK_RECORD
  5
B4
330
9
100
AcDbSymbolTableRecord
100
AcDbBlockTableRecord
  2
arvores
340
0
 70
0
280
1
281
0
  0
BLOCK_RECORD
  5
BB
330
9
100
AcDbSymbolTableRecord
100
AcDbBlockTableRecord
  2
Pedra
340
0
 70
4
280
1
281
0
  0
BLOCK_RECORD
  5
C0
330
9
100
AcDbSymbolTableRecord
100
AcDbBlockTableRecord
  2
Pedra0
340
0
 70
0
280
1
281
0
  0
BLOCK_RECORD
  5
CA
330
9
100
AcDbSymbolTableRecord
100
AcDbBlockTableRecord
  2
DivisaoCircuito
340
0
 70
4
280
1
281
0
  0
BLOCK_RECORD
  5
D1
330
9
100
AcDbSymbolTableRecord
100
AcDbBlockTableRecord
  2
Uc
340
0
 70
4
280
1
281
0
  0
BLOCK_RECORD
  5
D7
330
9
100
AcDbSymbolTableRecord
100
AcDbBlockTableRecord
  2
PosteDtRetirar
340
0
 70
0
280
1
281
0
  0
BLOCK_RECORD
  5
DE
330
9
100
AcDbSymbolTableRecord
100
AcDbBlockTableRecord
  2
DTPXX
340
0
 70
0
280
1
281
0
  0
BLOCK_RECORD
  5
EA
330
9
100
AcDbSymbolTableRecord
100
AcDbBlockTableRecord
  2
PosteDtProjetado
340
0
 70
0
280
1
281
0
  0
BLOCK_RECORD
  5
F3
330
9
100
AcDbSymbolTableRecord
100
AcDbBlockTableRecord
  2
dtp
340
0
 70
0
280
1
281
0
  0
BLOCK_RECORD
  5
FE
330
9
100
AcDbSymbolTableRecord
100
AcDbBlockTableRecord
  2
PosteDtExistente
340
0
 70
0
280
1
281
0
  0
BLOCK_RECORD
  5
107
330
9
100
AcDbSymbolTableRecord
100
AcDbBlockTableRecord
  2
dt
340
0
 70
0
280
1
281
0
  0
BLOCK_RECORD
  5
113
330
9
100
AcDbSymbolTableRecord
100
AcDbBlockTableRecord
  2
PosteDtSubstituir
340
0
 70
6
280
1
281
0
  0
BLOCK_RECORD
  5
125
330
9
100
AcDbSymbolTableRecord
100
AcDbBlockTableRecord
  2
PontoEntrega
340
0
 70
0
280
1
281
0
  0
BLOCK_RECORD
  5
12A
330
9
100
AcDbSymbolTableRecord
100
AcDbBlockTableRecord
  2
PosteCircularRetirar
340
0
 70
0
280
1
281
0
  0
BLOCK_RECORD
  5
131
330
9
100
AcDbSymbolTableRecord
100
AcDbBlockTableRecord
  2
POXX
340
0
 70
0
280
1
281
0
  0
BLOCK_RECORD
  5
138
330
9
100
AcDbSymbolTableRecord
100
AcDbBlockTableRecord
  2
PosteCircularProjetado
340
0
 70
0
280
1
281
0
  0
BLOCK_RECORD
  5
141
330
9
100
AcDbSymbolTableRecord
100
AcDbBlockTableRecord
  2
tcp
340
0
 70
0
280
1
281
0
  0
BLOCK_RECORD
  5
14B
330
9
100
AcDbSymbolTableRecord
100
AcDbBlockTableRecord
  2
PosteCircularExistente
340
0
 70
0
280
1
281
0
  0
BLOCK_RECORD
  5
150
330
9
100
AcDbSymbolTableRecord
100
AcDbBlockTableRecord
  2
tc
340
0
 70
0
280
1
281
0
  0
BLOCK_RECORD
  5
155
330
9
100
AcDbSymbolTableRecord
100
AcDbBlockTableRecord
  2
PosteCircularSubstituir
340
0
 70
4
280
1
281
0
  0
BLOCK_RECORD
  5
15A
330
9
100
AcDbSymbolTableRecord
100
AcDbBlockTableRecord
  2
p
340
0
 70
0
280
1
281
0
  0
BLOCK_RECORD
  5
163
330
9
100
AcDbSymbolTableRecord
100
AcDbBlockTableRecord
  2
POXX0
340
0
 70
0
280
1
281
0
  0
BLOCK_RECORD
  5
16A
330
9
100
AcDbSymbolTableRecord
100
AcDbBlockTableRecord
  2
tcp0
340
0
 70
0
280
1
281
0
  0
BLOCK_RECORD
  5
173
330
9
100
AcDbSymbolTableRecord
100
AcDbBlockTableRecord
  2
PontoFoto
340
0
 70
0
280
1
281
0
  0
BLOCK_RECORD
  5
178
330
9
100
AcDbSymbolTableRecord
100
AcDbBlockTableRecord
  2
Ancoragem
340
0
 70
6
280
1
281
0
  0
BLOCK_RECORD
  5
17F
330
9
100
AcDbSymbolTableRecord
100
AcDbBlockTableRecord
  2
AncoragemDupla
340
0
 70
6
280
1
281
0
  0
BLOCK_RECORD
  5
18A
330
9
100
AcDbSymbolTableRecord
100
AcDbBlockTableRecord
  2
AncoragemPassante
340
0
 70
6
280
1
281
0
  0
BLOCK_RECORD
  5
19B
330
9
100
AcDbSymbolTableRecord
100
AcDbBlockTableRecord
  2
AncoragemCordoalha
340
0
 70
6
280
1
281
0
  0
BLOCK_RECORD
  5
1A1
330
9
100
AcDbSymbolTableRecord
100
AcDbBlockTableRecord
  2
Estai
340
0
 70
4
280
1
281
0
  0
BLOCK_RECORD
  5
1A6
330
9
100
AcDbSymbolTableRecord
100
AcDbBlockTableRecord
  2
estai0
340
0
 70
0
280
1
281
0
  0
BLOCK_RECORD
  5
1AD
330
9
100
AcDbSymbolTableRecord
100
AcDbBlockTableRecord
  2
EstaiExistente
340
0
 70
4
280
1
281
0
  0
BLOCK_RECORD
  5
1B2
330
9
100
AcDbSymbolTableRecord
100
AcDbBlockTableRecord
  2
t
340
0
 70
0
280
1
281
0
  0
BLOCK_RECORD
  5
1B9
330
9
100
AcDbSymbolTableRecord
100
AcDbBlockTableRecord
  2
EstaiRetirar
340
0
 70
4
280
1
281
0
  0
BLOCK_RECORD
  5
1C2
330
9
100
AcDbSymbolTableRecord
100
AcDbBlockTableRecord
  2
FlyTapProjetado
340
0
 70
0
280
1
281
0
  0
BLOCK_RECORD
  5
1C8
330
9
100
AcDbSymbolTableRecord
100
AcDbBlockTableRecord
  2
FlyTapExistente
340
0
 70
0
280
1
281
0
  0
BLOCK_RECORD
  5
1CC
330
9
100
AcDbSymbolTableRecord
100
AcDbBlockTableRecord
  2
FlyTapRetirar
340
0
 70
0
280
1
281
0
  0
BLOCK_RECORD
  5
1D3
330
9
100
AcDbSymbolTableRecord
100
AcDbBlockTableRecord
  2
poles.wood.install
340
0
 70
6
280
1
281
0
  0
BLOCK_RECORD
  5
1D9
330
9
100
AcDbSymbolTableRecord
100
AcDbBlockTableRecord
  2
poles.wood.remove
340
0
 70
6
280
1
281
0
  0
BLOCK_RECORD
  5
1E0
330
9
100
AcDbSymbolTableRecord
100
AcDbBlockTableRecord
  2
poles.wood.keep
340
0
 70
6
280
1
281
0
  0
BLOCK_RECORD
  5
1E5
330
9
100
AcDbSymbolTableRecord
100
AcDbBlockTableRecord
  2
poles.wood.change
340
0
 70
6
280
1
281
0
  0
BLOCK_RECORD
  5
1EC
330
9
100
AcDbSymbolTableRecord
100
AcDbBlockTableRecord
  2
poles.wood.install.dxf
340
0
 70
0
280
1
281
0
  0
BLOCK_RECORD
  5
1F2
330
9
100
AcDbSymbolTableRecord
100
AcDbBlockTableRecord
  2
poles.wood.remove.dxf
340
0
 70
0
280
1
281
0
  0
BLOCK_RECORD
  5
1F9
330
9
100
AcDbSymbolTableRecord
100
AcDbBlockTableRecord
  2
TransformadorSemChaveProjetado
340
0
 70
4
280
1
281
0
  0
BLOCK_RECORD
  5
20D
330
9
100
AcDbSymbolTableRecord
100
AcDbBlockTableRecord
  2
TransformadorSemChaveExistente
340
0
 70
4
280
1
281
0
  0
BLOCK_RECORD
  5
215
330
9
100
AcDbSymbolTableRecord
100
AcDbBlockTableRecord
  2
TransformadorComChaveProjetado
340
0
 70
4
280
1
281
0
  0
BLOCK_RECORD
  5
22F
330
9
100
AcDbSymbolTableRecord
100
AcDbBlockTableRecord
  2
TransformadorComChaveExistente
340
0
 70
4
280
1
281
0
  0
BLOCK_RECORD
  5
23B
330
9
100
AcDbSymbolTableRecord
100
AcDbBlockTableRecord
  2
ChaveFusivelProjetado
340
0
 70
4
280
1
281
0
  0
BLOCK_RECORD
  5
240
330
9
100
AcDbSymbolTableRecord
100
AcDbBlockTableRecord
  2
06
340
0
 70
0
280
1
281
0
  0
BLOCK_RECORD
  5
24C
330
9
100
AcDbSymbolTableRecord
100
AcDbBlockTableRecord
  2
ChaveFusivelExistente
340
0
 70
4
280
1
281
0
  0
BLOCK_RECORD
  5
251
330
9
100
AcDbSymbolTableRecord
100
AcDbBlockTableRecord
  2
06A
340
0
 70
0
280
1
281
0
  0
BLOCK_RECORD
  5
25A
330
9
100
AcDbSymbolTableRecord
100
AcDbBlockTableRecord
  2
ChaveFacaProjetado
340
0
 70
4
280
1
281
0
  0
BLOCK_RECORD
  5
25F
330
9
100
AcDbSymbolTableRecord
100
AcDbBlockTableRecord
  2
07
340
0
 70
0
280
1
281
0
  0
BLOCK_RECORD
  5
267
330
9
100
AcDbSymbolTableRecord
100
AcDbBlockTableRecord
  2
ChaveFacaExistente
340
0
 70
4
280
1
281
0
  0
BLOCK_RECORD
  5
26C
330
9
100
AcDbSymbolTableRecord
100
AcDbBlockTableRecord
  2
07A
340
0
 70
0
280
1
281
0
  0
BLOCK_RECORD
  5
273
330
9
100
AcDbSymbolTableRecord
100
AcDbBlockTableRecord
  2
ReligadorDeLinhaProjetado
340
0
 70
4
280
1
281
0
  0
BLOCK_RECORD
  5
2AB
330
9
100
AcDbSymbolTableRecord
100
AcDbBlockTableRecord
  2
ReligadorDeLinhaExistente
340
0
 70
4
280
1
281
0
  0
BLOCK_RECORD
  5
2E2
330
9
100
AcDbSymbolTableRecord
100
AcDbBlockTableRecord
  2
VoltageRegulatorProjetado
340
0
 70
4
280
1
281
0
  0
BLOCK_RECORD
  5
2E7
330
9
100
AcDbSymbolTableRecord
100
AcDbBlockTableRecord
  2
regu
340
0
 70
0
280
1
281
0
  0
BLOCK_RECORD
  5
2EE
330
9
100
AcDbSymbolTableRecord
100
AcDbBlockTableRecord
  2
VoltageRegulatorExistente
340
0
 70
4
280
1
281
0
  0
BLOCK_RECORD
  5
2F3
330
9
100
AcDbSymbolTableRecord
100
AcDbBlockTableRecord
  2
regu0
340
0
 70
0
280
1
281
0
  0
BLOCK_RECORD
  5
2F9
330
9
100
AcDbSymbolTableRecord
100
AcDbBlockTableRecord
  2
BancoCapacitorProjetado
340
0
 70
6
280
1
281
0
  0
BLOCK_RECORD
  5
30B
330
9
100
AcDbSymbolTableRecord
100
AcDbBlockTableRecord
  2
BancoCapacitorExistente
340
0
 70
4
280
1
281
0
  0
BLOCK_RECORD
  5
319
330
9
100
AcDbSymbolTableRecord
100
AcDbBlockTableRecord
  2
bca
340
0
 70
0
280
1
281
0
  0
BLOCK_RECORD
  5
3A8
330
9
100
AcDbSymbolTableRecord
100
AcDbBlockTableRecord
  2
PDTEXISTENTE
340
0
 70
0
280
1
281
0
  0
BLOCK_RECORD
  5
3AD
330
9
100
AcDbSymbolTableRecord
100
AcDbBlockTableRecord
  2
Clipboard5160
340
0
 70
0
280
1
281
0
  0
BLOCK_RECORD
  5
3B4
330
9
100
AcDbSymbolTableRecord
100
AcDbBlockTableRecord
  2
POSTEDTINST
340
0
 70
0
280
1
281
0
  0
BLOCK_RECORD
  5
3BB
330
9
100
AcDbSymbolTableRecord
100
AcDbBlockTableRecord
  2
Clipboard8442
340
0
 70
0
280
1
281
0
  0
BLOCK_RECORD
  5
3C2
330
9
100
AcDbSymbolTableRecord
100
AcDbBlockTableRecord
  2
Clipboard4108
340
0
 70
0
280
1
281
0
  0
BLOCK_RECORD
  5
3C9
330
9
100
AcDbSymbolTableRecord
100
AcDbBlockTableRecord
  2
Clipboard8027
340
0
 70
0
280
1
281
0
  0
BLOCK_RECORD
  5
3D0
330
9
100
AcDbSymbolTableRecord
100
AcDbBlockTableRecord
  2
TRAFOEXISTENTESEMCHAVE
340
0
 70
0
280
1
281
0
  0
BLOCK_RECORD
  5
3D5
330
9
100
AcDbSymbolTableRecord
100
AcDbBlockTableRecord
  2
Clipboard11713
340
0
 70
0
280
1
281
0
  0
ENDTAB
  0
ENDSEC
  0
SECTION
  2
BLOCKS
  0
BLOCK
  5
18
330
17
100
AcDbEntity
  8
0
100
AcDbBlockBegin
  2
*Model_Space
 70
0
 10
0.0
 20
0.0
 30
0.0
  3
*Model_Space
  1

  0
ENDBLK
  5
19
330
17
100
AcDbEntity
  8
0
100
AcDbBlockEnd
  0
BLOCK
  5
1C
330
1B
100
AcDbEntity
  8
0
100
AcDbBlockBegin
  2
*Paper_Space
 70
0
 10
0.0
 20
0.0
 30
0.0
  3
*Paper_Space
  1

  0
ENDBLK
  5
1D
330
1B
100
AcDbEntity
  8
0
100
AcDbBlockEnd
  0
BLOCK
  5
75
330
74
100
AcDbEntity
  8
0
100
AcDbBlockBegin
  2
_ARCHTICK
 70
0
 10
0.0
 20
0.0
 30
0.0
  3
_ARCHTICK
  1

  0
LWPOLYLINE
  5
77
330
74
100
AcDbEntity
  8
0
  6
BYBLOCK
 62
0
100
AcDbPolyline
 90
2
 70
0
 43
0.15
 10
-0.5
 20
-0.5
 10
0.5
 20
0.5
  0
ENDBLK
  5
76
330
74
100
AcDbEntity
  8
0
100
AcDbBlockEnd
  0
BLOCK
  5
79
330
78
100
AcDbEntity
  8
0
100
AcDbBlockBegin
  2
_CLOSEDFILLED
 70
0
 10
0.0
 20
0.0
 30
0.0
  3
_CLOSEDFILLED
  1

  0
SOLID
  5
7B
330
78
100
AcDbEntity
  8
0
  6
BYBLOCK
 62
0
100
AcDbTrace
 10
-1.0
 20
0.16439898372402537
 30
0.0
 11
0.0
 21
0.0
 31
0.0
 12
-1.0
 22
-0.16439898372402537
 32
0.0
 13
-1.0
 23
-0.16439898372402537
 33
0.0
  0
ENDBLK
  5
7A
330
78
100
AcDbEntity
  8
0
100
AcDbBlockEnd
  0
BLOCK
  5
85
330
84
100
AcDbEntity
  8
0
100
AcDbBlockBegin
  2
_CLOSEDBLANK
 70
0
 10
0.0
 20
0.0
 30
0.0
  3
_CLOSEDBLANK
  1

  0
LWPOLYLINE
  5
87
330
84
100
AcDbEntity
  8
0
  6
BYBLOCK
 62
0
100
AcDbPolyline
 90
3
 70
1
 10
-1.0
 20
0.16439898372402537
 10
0.0
 20
0.0
 10
-1.0
 20
-0.16439898372402537
  0
ENDBLK
  5
86
330
84
100
AcDbEntity
  8
0
100
AcDbBlockEnd
  0
BLOCK
  5
AE
330
AD
100
AcDbEntity
  8
0
100
AcDbBlockBegin
  2
Arvore
 70
0
 10
756.6818330832643
 20
605.0289946278169
 30
0.0
  3
Arvore
  1

  0
INSERT
  5
B0
330
AD
100
AcDbEntity
  8
0
100
AcDbBlockReference
  2
arvores
 10
756.6818330832643
 20
604.4552691496519
 30
0.0
  0
LWPOLYLINE
  5
B2
330
AD
100
AcDbEntity
  8
Arvores
  6
Continuous
 62
3
100
AcDbPolyline
 90
5
 70
1
 10
754.8017973145525
 20
605.7163571445336
 42
1.748739931087366
 10
755.1661125144078
 20
603.0380169102581
 42
1.274832878182219
 10
758.2062176662137
 20
602.8481021977426
 42
1.749062855000513
 10
758.4793120061355
 20
605.5370207605732
 42
1.621565659389061
 10
756.4715045200345
 20
607.4920900709866
 42
2.096395364875808
  0
TEXT
  5
B3
330
AD
100
AcDbEntity
  8
Arvores
  6
Continuous
 62
3
100
AcDbText
 10
754.3625722320419
 20
604.1161701468368
 30
0.0
 40
1.0
  1
ARVORE
 51
15.0
  7
TEXTOS
 41
0.7
 11
754.3625722320419
 21
604.1161701468368
 31
0.0
100
AcDbText
  0
ENDBLK
  5
AF
330
AD
100
AcDbEntity
  8
0
100
AcDbBlockEnd
  0
BLOCK
  5
B5
330
B4
100
AcDbEntity
  8
0
100
AcDbBlockBegin
  2
arvores
 70
0
 10
0.0
 20
0.0
 30
0.0
  3
arvores
  1

  0
LWPOLYLINE
  5
B7
330
B4
100
AcDbEntity
  8
Arvores
  6
Continuous
 62
3
100
AcDbPolyline
 90
5
 70
1
 10
-1.880035768711877
 20
1.261087994881734
 42
1.748739931087366
 10
-1.515720568856522
 20
-1.417252239393917
 42
1.274832878182219
 10
1.524384582949323
 20
-1.607166951909391
 42
1.749062855000513
 10
1.797478922871164
 20
1.081751610921344
 42
1.621565659389061
 10
-0.2103285632298366
 20
3.036820921334708
 42
2.096395364875808
  0
TEXT
  5
B8
330
B4
100
AcDbEntity
  8
Arvores
  6
Continuous
 62
3
100
AcDbText
 10
-2.319260851222509
 20
-0.3390990028152032
 30
0.0
 40
1.0
  1
ARVORE
 51
15.0
  7
TEXTOS
 41
0.7
100
AcDbText
  0
ENDBLK
  5
B6
330
B4
100
AcDbEntity
  8
0
100
AcDbBlockEnd
  0
BLOCK
  5
BC
330
BB
100
AcDbEntity
  8
0
100
AcDbBlockBegin
  2
Pedra
 70
0
 10
614479.543839
 20
8270504.986392
 30
0.0
  3
Pedra
  1

  0
INSERT
  5
BE
330
BB
100
AcDbEntity
  8
Terreno
100
AcDbBlockReference
  2
Pedra0
 10
614486.76543
 20
8270502.418941
 30
0.0
 50
0.005619
  0
ENDBLK
  5
BD
330
BB
100
AcDbEntity
  8
0
100
AcDbBlockEnd
  0
BLOCK
  5
C1
330
C0
100
AcDbEntity
  8
0
100
AcDbBlockBegin
  2
Pedra0
 70
0
 10
614479.543839
 20
8270504.986392
 30
0.0
  3
Pedra0
  1
Pedra
  0
TEXT
  5
C3
330
C0
100
AcDbEntity
  8
Textos
  6
Continuous
100
AcDbText
 10
614472.879071
 20
8270512.968251
 30
0.56174
 40
3.0
  1
PEDRA
100
AcDbText
  0
LWPOLYLINE
  5
C4
330
C0
100
AcDbEntity
  8
Textos
100
AcDbPolyline
 90
9
 70
1
 38
0.56174
 10
614481.402616
 20
8270507.548334
 10
614480.828827
 20
8270508.522875
 10
614479.21796
 20
8270510.187766
 10
614477.866274
 20
8270510.288431
 10
614476.97192
 20
8270509.658637
 10
614476.888038
 20
8270509.576167
 10
614477.109839
 20
8270508.939841
 10
614478.043547
 20
8270508.143176
 10
614480.843229
 20
8270506.957233
  0
LWPOLYLINE
  5
C5
330
C0
100
AcDbEntity
  8
Textos
100
AcDbPolyline
 90
11
 70
0
 38
0.56174
 10
614473.492273
 20
8270506.099245
 10
614473.525775
 20
8270504.097348
 10
614474.232119
 20
8270501.371072
 10
614475.972687
 20
8270500.206343
 10
614477.499203
 20
8270500.356633
 10
614478.303817
 20
8270500.571992
 10
614478.586354
 20
8270502.12466
 10
614478.021279
 20
8270503.677329
 10
614475.653282
 20
8270506.761956
 10
614475.653282
 20
8270506.761956
 10
614473.492273
 20
8270506.099245
  0
LWPOLYLINE
  5
C6
330
C0
100
AcDbEntity
  8
Textos
100
AcDbPolyline
 90
14
 70
0
 38
0.56174
 10
614483.012803
 20
8270502.090242
 10
614481.484952
 20
8270502.950874
 10
614481.655624
 20
8270504.272813
 10
614481.851263
 20
8270504.898339
 10
614482.242542
 20
8270505.406579
 10
614482.751202
 20
8270505.602056
 10
614484.081549
 20
8270505.328388
 10
614484.668466
 20
8270504.898339
 10
614485.451023
 20
8270503.920954
 10
614485.646661
 20
8270502.904474
 10
614485.451023
 20
8270502.278947
 10
614484.511955
 20
8270502.044375
 10
614483.494632
 20
8270501.966184
 10
614483.012803
 20
8270502.090242
  0
LWPOLYLINE
  5
C7
330
C0
100
AcDbEntity
  8
Textos
100
AcDbPolyline
 90
9
 70
1
 38
0.56174
 10
614483.28608
 20
8270500.4478
 10
614482.195483
 20
8270500.14853
 10
614480.167579
 20
8270499.028547
 10
614479.71729
 20
8270497.7501
 10
614480.091568
 20
8270496.722274
 10
614480.149261
 20
8270496.61976
 10
614480.821432
 20
8270496.667622
 10
614481.834358
 20
8270497.360781
 10
614483.710516
 20
8270499.753418
  0
ENDBLK
  5
C2
330
C0
100
AcDbEntity
  8
0
100
AcDbBlockEnd
  0
BLOCK
  5
CB
330
CA
100
AcDbEntity
  8
0
100
AcDbBlockBegin
  2
DivisaoCircuito
 70
0
 10
851.7381159099505
 20
600.7656383228928
 30
0.0
  3
DivisaoCircuito
  1

  0
HATCH
  5
CD
330
CA
100
AcDbEntity
  8
0
 62
1
100
AcDbHatch
 10
0.0
 20
0.0
 30
0.0
210
0.0
220
0.0
230
1.0
  2
SOLID
 70
1
 71
0
 91
2
 92
7
 72
0
 73
1
 93
4
 10
851.9692841120473
 20
599.5861619759758
 10
852.4970042088732
 20
599.5832266008385
 10
852.5102000630878
 20
601.9555693226293
 10
851.9824799662616
 20
601.9585046977667
 97
1
330
45
 92
7
 72
0
 73
1
 93
4
 10
851.4986855626458
 20
601.9611957425421
 10
850.970965466687
 20
601.9641311180183
 10
850.9577696124726
 20
599.5917883962276
 10
851.4854897092983
 20
599.5888530210902
 97
1
330
46
 75
0
 76
1
 47
0.0217031643587827
 98
2
 10
852.1127625721771
 20
600.7211968207553
 10
851.373739041791
 20
600.6601854759018
450
0
451
0
460
0.0
461
0.0
452
0
462
0.0
453
0
470

  0
LWPOLYLINE
  5
CE
330
CA
100
AcDbEntity
  8
0
 62
1
100
AcDbPolyline
 90
4
 70
1
 10
852.4970042088732
 20
599.5832266008385
 10
851.9692841120473
 20
599.5861619759758
 10
851.9824799662616
 20
601.9585046977667
 10
852.5102000630878
 20
601.9555693226293
  0
LWPOLYLINE
  5
CF
330
CA
100
AcDbEntity
  8
0
 62
1
100
AcDbPolyline
 90
4
 70
1
 10
851.4854897092983
 20
599.5888530210902
 10
850.9577696124726
 20
599.5917883962276
 10
850.970965466687
 20
601.9641311180183
 10
851.4986855626458
 20
601.9611957425421
  0
CIRCLE
  5
D0
330
CA
100
AcDbEntity
  8
0
 62
1
100
AcDbCircle
 10
851.7632922678441
 20
600.7614392641374
 30
0.0
 40
1.636607338469907
  0
ENDBLK
  5
CC
330
CA
100
AcDbEntity
  8
0
100
AcDbBlockEnd
  0
BLOCK
  5
D2
330
D1
100
AcDbEntity
  8
0
100
AcDbBlockBegin
  2
Uc
 70
0
 10
767.143451354616
 20
571.3707894965613
 30
0.0
  3
Uc
  1

  0
HATCH
  5
D4
330
D1
100
AcDbEntity
  8
0
 62
1
100
AcDbHatch
 10
0.0
 20
0.0
 30
0.0
210
0.0
220
0.0
230
1.0
  2
LINE
 70
0
 71
0
 91
1
 92
7
 72
0
 73
1
 93
4
 10
771.116360054996
 20
576.4591942635567
 10
763.2347260296581
 20
576.5086619112083
 10
763.2026343420023
 20
571.3955233204059
 10
771.0842683672297
 20
571.3460556727167
 97
0
 75
0
 76
1
 52
44.64039814516399
 41
0.3
 77
0
 78
1
 53
44.64039814516398
 43
354.9252902952029
 44
354.9453024170747
 45
-0.6692788057788032
 46
0.6777330817772576
 79
0
 47
0.0344913900847646
 98
1
 10
767.3324747638515
 20
574.587527659983
  0
LWPOLYLINE
  5
D5
330
D1
100
AcDbEntity
  8
Consumidor
  6
Continuous
 62
1
370
-3
100
AcDbPolyline
 90
5
 70
0
 43
0.3
 10
771.116360054996
 20
576.4591942635567
 10
771.116360054996
 20
576.4591942635567
 10
771.0842683672297
 20
571.3460556727167
 10
763.2026343420023
 20
571.3955233204059
 10
763.2347260296581
 20
576.5086619112083
  0
ENDBLK
  5
D3
330
D1
100
AcDbEntity
  8
0
100
AcDbBlockEnd
  0
BLOCK
  5
D8
330
D7
100
AcDbEntity
  8
0
100
AcDbBlockBegin
  2
PosteDtRetirar
 70
2
 10
0.0
 20
0.0
 30
0.0
  3
PosteDtRetirar
  1

  0
ATTDEF
  5
DA
330
D7
100
AcDbEntity
  8
poste
100
AcDbText
 10
1.996674
 20
-1.514935
 30
0.0
 40
1.6
  1

100
AcDbAttributeDefinition
  3
Codigo
  2
COD
 70
0
  0
ATTDEF
  5
DB
330
D7
100
AcDbEntity
  8
poste
100
AcDbText
 10
-2.878805
 20
2.548923
 30
0.0
 40
1.6
  1

100
AcDbAttributeDefinition
  3
Digite a Altura/Esforço
  2
MODELO
 70
0
  0
INSERT
  5
DC
330
D7
100
AcDbEntity
  8
Poste retirar
100
AcDbBlockReference
  2
DTPXX
 10
0.003631
 20
0.008945
 30
0.0
  0
ENDBLK
  5
D9
330
D7
100
AcDbEntity
  8
0
100
AcDbBlockEnd
  0
BLOCK
  5
DF
330
DE
100
AcDbEntity
  8
0
100
AcDbBlockBegin
  2
DTPXX
 70
0
 10
0.0
 20
0.0
 30
0.0
  3
DTPXX
  1
DTPXX
  0
LINE
  5
E1
330
DE
100
AcDbEntity
  8
0
 62
1
370
0
100
AcDbLine
 10
-1.708098
 20
-2.308919
 30
0.0
 11
1.708098
 21
2.308919
 31
0.0
  0
LINE
  5
E2
330
DE
100
AcDbEntity
  8
0
 62
1
370
0
100
AcDbLine
 10
1.728679
 20
-2.293551
 30
0.0
 11
-1.728679
 21
2.293551
 31
0.0
  0
LINE
  5
E3
330
DE
100
AcDbEntity
  8
0
 62
3
370
0
100
AcDbLine
 10
-1.120087
 20
1.5
 30
0.0
 11
-1.120087
 21
-1.5
 31
0.0
  0
LINE
  5
E4
330
DE
100
AcDbEntity
  8
0
 62
3
370
0
100
AcDbLine
 10
-1.120087
 20
-1.5
 30
0.0
 11
1.120087
 21
-1.5
 31
0.0
  0
LINE
  5
E5
330
DE
100
AcDbEntity
  8
0
 62
3
370
0
100
AcDbLine
 10
1.120087
 20
-1.5
 30
0.0
 11
1.120087
 21
1.5
 31
0.0
  0
LINE
  5
E6
330
DE
100
AcDbEntity
  8
0
 62
3
370
0
100
AcDbLine
 10
1.120087
 20
1.5
 30
0.0
 11
-1.120087
 21
1.5
 31
0.0
  0
LINE
  5
E7
330
DE
100
AcDbEntity
  8
0
 62
3
370
0
100
AcDbLine
 10
1.120087
 20
-1.5
 30
0.0
 11
-1.120087
 21
1.5
 31
0.0
  0
LINE
  5
E8
330
DE
100
AcDbEntity
  8
0
 62
3
370
0
100
AcDbLine
 10
1.120087
 20
1.5
 30
0.0
 11
-1.120087
 21
-1.5
 31
0.0
  0
ENDBLK
  5
E0
330
DE
100
AcDbEntity
  8
0
100
AcDbBlockEnd
  0
BLOCK
  5
EB
330
EA
100
AcDbEntity
  8
0
100
AcDbBlockBegin
  2
PosteDtProjetado
 70
2
 10
0.0
 20
0.0
 30
0.0
  3
PosteDtProjetado
  1

  0
ATTDEF
  5
ED
330
EA
100
AcDbEntity
  8
poste
 48
0.01
100
AcDbText
 10
1.964351
 20
-1.493983
 30
0.0
 40
1.6
  1

100
AcDbAttributeDefinition
  3
Codigo
  2
COD
 70
0
  0
ATTDEF
  5
EE
330
EA
100
AcDbEntity
  8
poste
 48
0.01
100
AcDbText
 10
-3.273471
 20
2.731691
 30
0.0
 40
1.6
  1

100
AcDbAttributeDefinition
  3
Digite a altura/esforço
  2
MODELO
 70
0
  0
INSERT
  5
EF
330
EA
100
AcDbEntity
  8
Poste dt
100
AcDbBlockReference
 66
1
  2
dtp
 10
-0.05948
 20
0.026162
 30
0.0
 50
180.0
  0
ATTRIB
  5
F0
330
EF
100
AcDbEntity
  8
Poste dt
 48
0.01
100
AcDbText
 10
-2.023831
 20
1.520146
 30
0.0
 40
1.6
  1

 50
180.0
100
AcDbAttribute
  2
COD
 70
0
  0
ATTRIB
  5
F1
330
EF
100
AcDbEntity
  8
Poste dt
 48
0.01
100
AcDbText
 10
3.213991
 20
-2.705528
 30
0.0
 40
1.6
  1

 50
180.0
100
AcDbAttribute
  2
MODELO
 70
0
  0
SEQEND
  5
F2
330
EF
100
AcDbEntity
  8
0
  0
ENDBLK
  5
EC
330
EA
100
AcDbEntity
  8
0
100
AcDbBlockEnd
  0
BLOCK
  5
F4
330
F3
100
AcDbEntity
  8
0
100
AcDbBlockBegin
  2
dtp
 70
0
 10
0.0
 20
0.0
 30
0.0
  3
dtp
  1
dtp
  0
LINE
  5
F6
330
F3
100
AcDbEntity
  8
0
 62
0
370
0
100
AcDbLine
 10
-1.120087
 20
-1.5
 30
0.0
 11
1.120087
 21
1.5
 31
0.0
  0
LINE
  5
F7
330
F3
100
AcDbEntity
  8
0
 62
0
370
0
100
AcDbLine
 10
-1.120087
 20
1.5
 30
0.0
 11
1.120087
 21
-1.5
 31
0.0
  0
LINE
  5
F8
330
F3
100
AcDbEntity
  8
0
 62
0
370
0
100
AcDbLine
 10
-1.120087
 20
-1.5
 30
0.0
 11
1.120087
 21
-1.5
 31
0.0
  0
LINE
  5
F9
330
F3
100
AcDbEntity
  8
0
 62
0
370
0
100
AcDbLine
 10
1.120087
 20
1.5
 30
0.0
 11
-1.120087
 21
1.5
 31
0.0
  0
LINE
  5
FA
330
F3
100
AcDbEntity
  8
0
 62
0
370
0
100
AcDbLine
 10
-1.120087
 20
1.5
 30
0.0
 11
-1.120087
 21
-1.5
 31
0.0
  0
LINE
  5
FB
330
F3
100
AcDbEntity
  8
0
 62
0
370
0
100
AcDbLine
 10
1.120087
 20
-1.5
 30
0.0
 11
1.120087
 21
1.5
 31
0.0
  0
HATCH
  5
FC
330
F3
100
AcDbEntity
  8
0
  6
Continuous
 62
0
370
0
 48
0.01
100
AcDbHatch
 10
0.0
 20
0.0
 30
0.0
210
0.0
220
0.0
230
1.0
  2
SOLID
 70
1
 71
0
 91
2
 92
7
 72
0
 73
1
 93
3
 10
-1.120086673740047
 20
1.5
 10
1e-16
 20
0.0
 10
1.120086673740047
 20
1.5
 97
3
330
C5
330
C3
330
C2
 92
7
 72
0
 73
1
 93
3
 10
-1.120086673740047
 20
-1.5
 10
1.120086673740047
 20
-1.5
 10
0.0
 20
-2e-16
 97
3
330
C2
330
C4
330
C3
 75
0
 76
1
 47
0.013875
 98
2
 10
-0.2167202702025861
 20
1.06058779292303
 10
-0.1195060140034911
 20
-0.8819157804226875
  0
ENDBLK
  5
F5
330
F3
100
AcDbEntity
  8
0
100
AcDbBlockEnd
  0
BLOCK
  5
FF
330
FE
100
AcDbEntity
  8
0
100
AcDbBlockBegin
  2
PosteDtExistente
 70
2
 10
0.0
 20
0.0
 30
0.0
  3
PosteDtExistente
  1

  0
ATTDEF
  5
101
330
FE
100
AcDbEntity
  8
poste
100
AcDbText
 10
1.996674
 20
-1.514935
 30
0.0
 40
1.6
  1

100
AcDbAttributeDefinition
  3
Codigo
  2
COD
 70
0
  0
ATTDEF
  5
102
330
FE
100
AcDbEntity
  8
poste
100
AcDbText
 10
-2.878805
 20
2.548923
 30
0.0
 40
1.6
  1

100
AcDbAttributeDefinition
  3
Digite a Altura/Esforço
  2
MODELO
 70
0
  0
INSERT
  5
103
330
FE
100
AcDbEntity
  8
Poste Existente
100
AcDbBlockReference
 66
1
  2
dt
 10
-0.036594
 20
-0.043517
 30
0.0
 50
180.0
  0
ATTRIB
  5
104
330
103
100
AcDbEntity
  8
Poste dt
100
AcDbText
 10
-2.033268
 20
1.471418
 30
0.0
 40
1.6
  1

 50
180.0
100
AcDbAttribute
  2
COD
 70
0
  0
ATTRIB
  5
105
330
103
100
AcDbEntity
  8
Poste dt
100
AcDbText
 10
2.842212
 20
-2.59244
 30
0.0
 40
1.6
  1

 50
180.0
100
AcDbAttribute
  2
MODELO
 70
0
  0
SEQEND
  5
106
330
103
100
AcDbEntity
  8
Poste Existente
  0
ENDBLK
  5
100
330
FE
100
AcDbEntity
  8
0
100
AcDbBlockEnd
  0
BLOCK
  5
108
330
107
100
AcDbEntity
  8
0
100
AcDbBlockBegin
  2
dt
 70
2
 10
0.0
 20
0.0
 30
0.0
  3
dt
  1
dt
  0
ATTDEF
  5
10A
330
107
100
AcDbEntity
  8
0
 62
0
100
AcDbText
 10
1.996674
 20
-1.514935
 30
0.0
 40
1.6
  1

100
AcDbAttributeDefinition
  3
Codigo
  2
COD
 70
0
  0
LINE
  5
10B
330
107
100
AcDbEntity
  8
0
 62
0
100
AcDbLine
 10
1.120087
 20
-1.5
 30
0.0
 11
1.120087
 21
1.5
 31
0.0
  0
LINE
  5
10C
330
107
100
AcDbEntity
  8
0
 62
0
100
AcDbLine
 10
1.120087
 20
1.5
 30
0.0
 11
-1.120087
 21
1.5
 31
0.0
  0
LINE
  5
10D
330
107
100
AcDbEntity
  8
0
 62
0
100
AcDbLine
 10
-1.120087
 20
1.5
 30
0.0
 11
-1.120087
 21
-1.5
 31
0.0
  0
LINE
  5
10E
330
107
100
AcDbEntity
  8
0
 62
0
100
AcDbLine
 10
-1.120087
 20
-1.5
 30
0.0
 11
1.120087
 21
-1.5
 31
0.0
  0
ATTDEF
  5
10F
330
107
100
AcDbEntity
  8
0
 62
0
100
AcDbText
 10
-2.878805
 20
2.548923
 30
0.0
 40
1.6
  1

100
AcDbAttributeDefinition
  3
Digite a Altura/Esforço
  2
MODELO
 70
0
  0
LINE
  5
110
330
107
100
AcDbEntity
  8
0
 62
0
100
AcDbLine
 10
-1.120087
 20
1.5
 30
0.0
 11
1.120087
 21
-1.5
 31
0.0
  0
LINE
  5
111
330
107
100
AcDbEntity
  8
0
 62
0
100
AcDbLine
 10
-1.120087
 20
-1.5
 30
0.0
 11
1.120087
 21
1.5
 31
0.0
  0
ENDBLK
  5
109
330
107
100
AcDbEntity
  8
0
100
AcDbBlockEnd
  0
BLOCK
  5
114
330
113
100
AcDbEntity
  8
0
100
AcDbBlockBegin
  2
PosteDtSubstituir
 70
0
 10
0.0
 20
0.0
 30
0.0
  3
PosteDtSubstituir
  1

  0
LINE
  5
116
330
113
100
AcDbEntity
  8
0
  6
ByLayer
 62
1
370
0
100
AcDbLine
 10
-4.419979040744806
 20
-2.315775610643513
 30
0.0
 11
-1.0037837381252075
 21
2.302063206073697
 31
0.0
  0
LINE
  5
117
330
113
100
AcDbEntity
  8
0
  6
ByLayer
 62
1
370
0
100
AcDbLine
 10
-0.9832021399643907
 20
-2.300406825865707
 30
0.0
 11
-4.440560638905595
 21
2.2866944212958913
 31
0.0
  0
LINE
  5
118
330
113
100
AcDbEntity
  8
0
  6
ByLayer
 62
3
370
0
100
AcDbLine
 10
-3.8319680631750828
 20
1.493143797715092
 30
0.0
 11
-3.8319680631750828
 21
-1.506856202284908
 31
0.0
  0
LINE
  5
119
330
113
100
AcDbEntity
  8
0
  6
ByLayer
 62
3
370
0
100
AcDbLine
 10
-3.8319680631750828
 20
-1.506856202284908
 30
0.0
 11
-1.5917947156949879
 21
-1.506856202284908
 31
0.0
  0
LINE
  5
11A
330
113
100
AcDbEntity
  8
0
  6
ByLayer
 62
3
370
0
100
AcDbLine
 10
-1.5917947156949879
 20
-1.506856202284908
 30
0.0
 11
-1.5917947156949879
 21
1.493143797715092
 31
0.0
  0
LINE
  5
11B
330
113
100
AcDbEntity
  8
0
  6
ByLayer
 62
3
370
0
100
AcDbLine
 10
-1.5917947156949879
 20
1.493143797715092
 30
0.0
 11
-3.8319680631750828
 21
1.493143797715092
 31
0.0
  0
LINE
  5
11C
330
113
100
AcDbEntity
  8
0
  6
ByLayer
 62
3
370
0
100
AcDbLine
 10
-1.5917947156949879
 20
-1.506856202284908
 30
0.0
 11
-3.8319680631750828
 21
1.493143797715092
 31
0.0
  0
LINE
  5
11D
330
113
100
AcDbEntity
  8
0
  6
ByLayer
 62
3
370
0
100
AcDbLine
 10
-1.5917947156949879
 20
1.493143797715092
 30
0.0
 11
-3.8319680631750828
 21
-1.506856202284908
 31
0.0
  0
LINE
  5
11E
330
113
100
AcDbEntity
  8
0
  6
ByLayer
 62
3
370
0
100
AcDbLine
 10
1.1248459857515911
 20
1.5025450900979962
 30
0.0
 11
-1.1153273617285038
 21
-1.4974549099020038
 31
0.0
  0
LINE
  5
11F
330
113
100
AcDbEntity
  8
0
  6
ByLayer
 62
3
370
0
100
AcDbLine
 10
1.1248459857515911
 20
-1.4974549099020038
 30
0.0
 11
-1.1153273617285038
 21
1.5025450900979962
 31
0.0
  0
LINE
  5
120
330
113
100
AcDbEntity
  8
0
  6
ByLayer
 62
3
370
0
100
AcDbLine
 10
1.1248459857515911
 20
1.5025450900979962
 30
0.0
 11
-1.1153273617285038
 21
1.5025450900979962
 31
0.0
  0
LINE
  5
121
330
113
100
AcDbEntity
  8
0
  6
ByLayer
 62
3
370
0
100
AcDbLine
 10
-1.1153273617285038
 20
-1.4974549099020038
 30
0.0
 11
1.1248459857515911
 21
-1.4974549099020038
 31
0.0
  0
LINE
  5
122
330
113
100
AcDbEntity
  8
0
  6
ByLayer
 62
3
370
0
100
AcDbLine
 10
1.1248459857515911
 20
-1.4974549099020038
 30
0.0
 11
1.1248459857515911
 21
1.5025450900979962
 31
0.0
  0
LINE
  5
123
330
113
100
AcDbEntity
  8
0
  6
ByLayer
 62
3
370
0
100
AcDbLine
 10
-1.1153273617285038
 20
1.5025450900979962
 30
0.0
 11
-1.1153273617285038
 21
-1.4974549099020038
 31
0.0
  0
HATCH
  5
124
330
113
100
AcDbEntity
  8
0
  6
CONTINUOUS
 62
3
370
0
100
AcDbHatch
 10
0.0
 20
0.0
 30
0.0
210
0.0
220
0.0
230
1.0
  2
SOLID
 70
1
 71
0
 91
2
 92
0
 93
3
 72
1
 10
1.1248459857515911
 20
-1.4974549099020038
 11
0.004759312011515249
 21
0.0025450900979961943
 72
1
 10
0.004759312011515249
 20
0.0025450900979961943
 11
-1.1153273617285038
 21
-1.4974549099020038
 72
1
 10
-1.1153273617285038
 20
-1.4974549099020038
 11
1.1248459857515911
 21
-1.4974549099020038
 97
0
 92
0
 93
3
 72
1
 10
1.1248459857515911
 20
1.5025450900979962
 11
-1.1153273617285038
 21
1.5025450900979962
 72
1
 10
-1.1153273617285038
 20
1.5025450900979962
 11
0.004759312011515249
 21
0.0025450900979961943
 72
1
 10
0.004759312011515249
 20
0.0025450900979961943
 11
1.1248459857515911
 21
1.5025450900979962
 97
0
 75
0
 76
1
 98
0
  0
ENDBLK
  5
115
330
113
100
AcDbEntity
  8
0
100
AcDbBlockEnd
  0
BLOCK
  5
126
330
125
100
AcDbEntity
  8
0
100
AcDbBlockBegin
  2
PontoEntrega
 70
0
 10
8.557888
 20
3.616832
 30
0.0
  3
PontoEntrega
  1

  0
HATCH
  5
128
330
125
100
AcDbEntity
  8
0
 62
1
100
AcDbHatch
 10
0.0
 20
0.0
 30
0.0
210
0.0
220
0.0
230
1.0
  2
SOLID
 70
1
 71
0
 91
1
 92
7
 72
1
 73
1
 93
2
 10
14.13156974520648
 20
3.028210909755245
 42
1.0
 10
11.17034814535687
 20
3.028210909755245
 42
1.0
 97
1
330
B3
 75
1
 76
1
 47
0.403404
 98
1
 10
13.17850629783607
 20
2.739430451036725
  0
CIRCLE
  5
129
330
125
100
AcDbEntity
  8
0
 62
1
100
AcDbCircle
 10
12.650959
 20
3.028211
 30
0.0
 40
1.480610799924803
  0
ENDBLK
  5
127
330
125
100
AcDbEntity
  8
0
100
AcDbBlockEnd
  0
BLOCK
  5
12B
330
12A
100
AcDbEntity
  8
0
100
AcDbBlockBegin
  2
PosteCircularRetirar
 70
2
 10
0.0
 20
0.0
 30
0.0
  3
PosteCircularRetirar
  1

  0
ATTDEF
  5
12D
330
12A
100
AcDbEntity
  8
poste
 48
0.01
100
AcDbText
 10
1.989468
 20
-1.570996
 30
0.0
 40
1.6
  1

100
AcDbAttributeDefinition
  3
Codigo
  2
COD
 70
0
  0
ATTDEF
  5
12E
330
12A
100
AcDbEntity
  8
poste
 48
0.01
100
AcDbText
 10
-3.340951
 20
2.411332
 30
0.0
 40
1.6
  1

100
AcDbAttributeDefinition
  3
Digite a altura/esforço
  2
MODELO
 70
0
  0
INSERT
  5
12F
330
12A
100
AcDbEntity
  8
Poste retirar
100
AcDbBlockReference
  2
POXX
 10
0.005692
 20
-0.006171
 30
0.0
  0
ENDBLK
  5
12C
330
12A
100
AcDbEntity
  8
0
100
AcDbBlockEnd
  0
BLOCK
  5
132
330
131
100
AcDbEntity
  8
0
100
AcDbBlockBegin
  2
POXX
 70
0
 10
0.0
 20
0.0
 30
0.0
  3
POXX
  1
POXX
  0
LINE
  5
134
330
131
100
AcDbEntity
  8
0
 62
1
370
0
100
AcDbLine
 10
-1.720943
 20
1.963034
 30
0.0
 11
1.720943
 21
-1.963034
 31
0.0
  0
LINE
  5
135
330
131
100
AcDbEntity
  8
0
 62
1
370
0
100
AcDbLine
 10
1.720943
 20
1.963034
 30
0.0
 11
-1.720943
 21
-1.963034
 31
0.0
  0
CIRCLE
  5
136
330
131
100
AcDbEntity
  8
0
 62
3
370
0
100
AcDbCircle
 10
-0.010037
 20
0.006349
 30
0.0
 40
1.5
  0
CIRCLE
  5
137
330
131
100
AcDbEntity
  8
0
 62
3
370
0
100
AcDbCircle
 10
-0.010037
 20
0.006349
 30
0.0
 40
0.75
  0
ENDBLK
  5
133
330
131
100
AcDbEntity
  8
0
100
AcDbBlockEnd
  0
BLOCK
  5
139
330
138
100
AcDbEntity
  8
0
100
AcDbBlockBegin
  2
PosteCircularProjetado
 70
2
 10
0.0
 20
0.0
 30
0.0
  3
PosteCircularProjetado
  1

  0
ATTDEF
  5
13B
330
138
100
AcDbEntity
  8
poste
 48
0.01
100
AcDbText
 10
2.23896
 20
-1.557404
 30
0.0
 40
1.6
  1

100
AcDbAttributeDefinition
  3
Codigo
  2
COD
 70
0
  0
ATTDEF
  5
13C
330
138
100
AcDbEntity
  8
poste
 48
0.01
100
AcDbText
 10
-3.24412
 20
2.803537
 30
0.0
 40
1.6
  1

100
AcDbAttributeDefinition
  3
Digite a altura/esforço
  2
MODELO
 70
0
  0
INSERT
  5
13D
330
138
100
AcDbEntity
  8
Poste circular
100
AcDbBlockReference
 66
1
  2
tcp
 10
-0.018602
 20
-0.035065
 30
0.0
 50
319.152946
  0
ATTRIB
  5
13E
330
13D
100
AcDbEntity
  8
Poste dt
 48
0.01
100
AcDbText
 10
0.656469
 20
-2.67755
 30
0.0
 40
1.6
  1

 50
319.152946
100
AcDbAttribute
  2
COD
 70
0
  0
ATTRIB
  5
13F
330
13D
100
AcDbEntity
  8
Poste dt
 48
0.01
100
AcDbText
 10
-0.639012
 20
4.207484
 30
0.0
 40
1.6
  1

 50
319.152946
100
AcDbAttribute
  2
MODELO
 70
0
  0
SEQEND
  5
140
330
13D
100
AcDbEntity
  8
Poste circular
  0
ENDBLK
  5
13A
330
138
100
AcDbEntity
  8
0
100
AcDbBlockEnd
  0
BLOCK
  5
142
330
141
100
AcDbEntity
  8
0
100
AcDbBlockBegin
  2
tcp
 70
2
 10
0.0
 20
0.0
 30
0.0
  3
tcp
  1
tcp
  0
CIRCLE
  5
144
330
141
100
AcDbEntity
  8
0
 62
0
100
AcDbCircle
 10
0.0
 20
0.0
 30
0.0
 40
1.5
  0
ARC
  5
145
330
141
100
AcDbEntity
  8
0
 62
0
100
AcDbCircle
 10
0.0
 20
0.0
 30
0.0
 40
0.75
100
AcDbArc
 50
90.0
 51
270.0
  0
LINE
  5
146
330
141
100
AcDbEntity
  8
0
 62
0
100
AcDbLine
 10
0.0
 20
-1.5
 30
0.0
 11
0.0
 21
1.5
 31
0.0
  0
HATCH
  5
147
330
141
100
AcDbEntity
  8
0
 62
0
100
AcDbHatch
 10
0.0
 20
0.0
 30
0.0
210
0.0
220
0.0
230
1.0
  2
SOLID
 70
1
 71
0
 91
1
 92
7
 72
1
 73
1
 93
3
 10
0.0
 20
-1.5
 42
0.4142135623730951
 10
1.5
 20
0.0
 42
0.4142135623730951
 10
0.0
 20
1.5
 42
0.0
 97
2
330
C2
330
C0
 75
0
 76
1
 47
0.050145
 98
1
 10
0.5785005559446291
 20
0.2268321923911571
  0
ATTDEF
  5
148
330
141
100
AcDbEntity
  8
0
 62
0
 48
0.01
100
AcDbText
 10
2.23896
 20
-1.557404
 30
0.0
 40
1.6
  1

100
AcDbAttributeDefinition
  3
Codigo
  2
COD
 70
0
  0
ATTDEF
  5
149
330
141
100
AcDbEntity
  8
0
 62
0
 48
0.01
100
AcDbText
 10
-3.24412
 20
2.803537
 30
0.0
 40
1.6
  1

100
AcDbAttributeDefinition
  3
Digite a altura/esforço
  2
MODELO
 70
0
  0
ENDBLK
  5
143
330
141
100
AcDbEntity
  8
0
100
AcDbBlockEnd
  0
BLOCK
  5
14C
330
14B
100
AcDbEntity
  8
0
100
AcDbBlockBegin
  2
PosteCircularExistente
 70
0
 10
0.0
 20
0.0
 30
0.0
  3
PosteCircularExistente
  1

  0
INSERT
  5
14E
330
14B
100
AcDbEntity
  8
Poste Existente
  6
ByLayer
100
AcDbBlockReference
  2
tc
 10
0.051952
 20
0.060633
 30
0.0
 43
0.0
 50
90.0
  0
ENDBLK
  5
14D
330
14B
100
AcDbEntity
  8
0
100
AcDbBlockEnd
  0
BLOCK
  5
151
330
150
100
AcDbEntity
  8
0
100
AcDbBlockBegin
  2
tc
 70
0
 10
0.0
 20
0.0
 30
0.0
  3
tc
  1

  0
CIRCLE
  5
153
330
150
100
AcDbEntity
  8
0
  6
ByLayer
 62
0
370
0
100
AcDbCircle
 10
0.0
 20
0.0
 30
0.0
 40
1.5
  0
CIRCLE
  5
154
330
150
100
AcDbEntity
  8
0
  6
ByLayer
 62
0
370
0
100
AcDbCircle
 10
0.0
 20
0.0
 30
0.0
 40
0.75
  0
ENDBLK
  5
152
330
150
100
AcDbEntity
  8
0
100
AcDbBlockEnd
  0
BLOCK
  5
156
330
155
100
AcDbEntity
  8
0
100
AcDbBlockBegin
  2
PosteCircularSubstituir
 70
0
 10
0.0
 20
0.0
 30
0.0
  3
PosteCircularSubstituir
  1

  0
INSERT
  5
158
330
155
100
AcDbEntity
  8
0
100
AcDbBlockReference
  2
p
 10
178.5064005650644
 20
176.8116704745237
 30
0.0
  0
ENDBLK
  5
157
330
155
100
AcDbEntity
  8
0
100
AcDbBlockEnd
  0
BLOCK
  5
15B
330
15A
100
AcDbEntity
  8
0
100
AcDbBlockBegin
  2
p
 70
0
 10
0.0
 20
0.0
 30
0.0
  3
p
  1

  0
INSERT
  5
15D
330
15A
100
AcDbEntity
  8
Poste retirar
100
AcDbBlockReference
  2
POXX0
 10
-2.552286551071716
 20
0.0248837292614042
 30
0.0
  0
INSERT
  5
15F
330
15A
100
AcDbEntity
  8
Poste circular
100
AcDbBlockReference
 66
1
  2
tcp0
 10
0.0
 20
0.0
 30
0.0
 50
319.1529457614925
  0
ATTRIB
  5
160
330
15F
100
AcDbEntity
  8
Poste dt
 48
0.01
100
AcDbText
 10
0.6750716751557775
 20
-2.642484720797256
 30
0.0
 40
1.6
  1

 50
319.1529457614925
100
AcDbAttribute
  2
COD
 70
0
  0
ATTRIB
  5
161
330
15F
100
AcDbEntity
  8
Poste dt
 48
0.01
100
AcDbText
 10
-0.6204098800662905
 20
4.242549110203981
 30
0.0
 40
1.6
  1

 50
319.1529457614925
100
AcDbAttribute
  2
MODELO
 70
0
  0
SEQEND
  5
162
330
15F
100
AcDbEntity
  8
Poste circular
  0
ENDBLK
  5
15C
330
15A
100
AcDbEntity
  8
0
100
AcDbBlockEnd
  0
BLOCK
  5
164
330
163
100
AcDbEntity
  8
0
100
AcDbBlockBegin
  2
POXX0
 70
0
 10
0.0
 20
0.0
 30
0.0
  3
POXX0
  1

  0
LINE
  5
166
330
163
100
AcDbEntity
  8
0
 62
1
370
0
100
AcDbLine
 10
-1.720943164023536
 20
1.963033719419399
 30
0.0
 11
1.720943164023536
 21
-1.963033719419399
 31
0.0
  0
LINE
  5
167
330
163
100
AcDbEntity
  8
0
 62
1
370
0
100
AcDbLine
 10
1.720943164023536
 20
1.963033719419399
 30
0.0
 11
-1.720943164023536
 21
-1.963033719419399
 31
0.0
  0
CIRCLE
  5
168
330
163
100
AcDbEntity
  8
0
 62
3
370
0
100
AcDbCircle
 10
-0.0100366288902478
 20
0.0063487688214536
 30
0.0
 40
1.5
  0
CIRCLE
  5
169
330
163
100
AcDbEntity
  8
0
 62
3
370
0
100
AcDbCircle
 10
-0.0100366288902478
 20
0.0063487688214536
 30
0.0
 40
0.75
  0
ENDBLK
  5
165
330
163
100
AcDbEntity
  8
0
100
AcDbBlockEnd
  0
BLOCK
  5
16B
330
16A
100
AcDbEntity
  8
0
100
AcDbBlockBegin
  2
tcp0
 70
2
 10
0.0
 20
0.0
 30
0.0
  3
tcp0
  1

  0
CIRCLE
  5
16D
330
16A
100
AcDbEntity
  8
0
 62
0
100
AcDbCircle
 10
0.0
 20
0.0
 30
0.0
 40
1.5
  0
ARC
  5
16E
330
16A
100
AcDbEntity
  8
0
 62
0
100
AcDbCircle
 10
0.0
 20
0.0
 30
0.0
 40
0.75
100
AcDbArc
 50
90.0
 51
270.0
  0
LINE
  5
16F
330
16A
100
AcDbEntity
  8
0
 62
0
100
AcDbLine
 10
0.0
 20
-1.5
 30
0.0
 11
0.0
 21
1.5
 31
0.0
  0
HATCH
  5
170
330
16A
100
AcDbEntity
  8
0
 62
0
100
AcDbHatch
 10
0.0
 20
0.0
 30
0.0
210
0.0
220
0.0
230
1.0
  2
SOLID
 70
1
 71
0
 91
1
 92
7
 72
1
 73
1
 93
3
 10
0.0
 20
-1.5
 42
0.4142135623730951
 10
1.5
 20
0.0
 42
0.4142135623730951
 10
0.0
 20
1.5
 42
0.0
 97
2
330
3C9
330
3C7
 75
0
 76
1
 47
0.0501451978386677
 98
1
 10
0.5785005559446291
 20
0.2268321923911571
450
0
451
0
460
0.0
461
0.0
452
1
462
0.0
453
0
470

  0
ATTDEF
  5
171
330
16A
100
AcDbEntity
  8
0
 62
0
 48
0.01
100
AcDbText
 10
2.238959658139193
 20
-1.557403903826877
 30
0.0
 40
1.6
  1

100
AcDbAttributeDefinition
  3
Codigo
  2
COD
 70
0
  0
ATTDEF
  5
172
330
16A
100
AcDbEntity
  8
0
 62
0
 48
0.01
100
AcDbText
 10
-3.244119716174664
 20
2.803536809379806
 30
0.0
 40
1.6
  1

100
AcDbAttributeDefinition
  3
Digite a altura/esforço
  2
MODELO
 70
0
  0
ENDBLK
  5
16C
330
16A
100
AcDbEntity
  8
0
100
AcDbBlockEnd
  0
BLOCK
  5
174
330
173
100
AcDbEntity
  8
0
100
AcDbBlockBegin
  2
PontoFoto
 70
0
 10
6.610448
 20
0.71269
 30
0.0
  3
PontoFoto
  1

  0
TEXT
  5
176
330
173
100
AcDbEntity
  8
PONTO FOTO
100
AcDbText
 10
5.607159
 20
-0.535355
 30
0.0
 40
1.5
  1
F.PX
  7
ARIAL
100
AcDbText
  0
ENDBLK
  5
175
330
173
100
AcDbEntity
  8
0
100
AcDbBlockEnd
  0
BLOCK
  5
179
330
178
100
AcDbEntity
  8
0
100
AcDbBlockBegin
  2
Ancoragem
 70
0
 10
6.9593e-12
 20
0.0041075766431721
 30
0.0
  3
Ancoragem
  1

  0
HATCH
  5
17B
330
178
100
AcDbEntity
  8
0
 62
251
100
AcDbHatch
 10
0.0
 20
0.0
 30
0.0
210
0.0
220
0.0
230
1.0
  2
SOLID
 70
1
 71
0
 91
2
 92
7
 72
1
 73
1
 93
6
 10
2.049261437845288
 20
0.4327083512509778
 42
0.0
 10
2.049856560416599
 20
-0.4244931979646333
 42
0.414213562373095
 10
2.149925962512636
 20
-0.5244237476686211
 42
0.0
 10
2.949524093946672
 20
-0.5238686169686937
 42
0.8585888479336387
 10
2.948959825033561
 20
0.533333001867426
 42
0.0
 10
2.149191987549275
 20
0.532777753347015
 42
0.4142135623730949
 97
1
330
5B
 92
22
 72
1
 73
1
 93
4
 10
2.932076722070689
 20
0.3333212323684584
 42
-0.8242665422847077
 10
2.932399423766671
 20
-0.3238804577786623
 42
0.0
 10
2.382126197930405
 20
-0.3242624916391739
 42
0.0
 10
2.381669927751144
 20
0.3329391057764072
 42
0.0
 97
1
330
5C
 75
1
 76
1
 47
0.0026943791988635
 98
2
 10
2.580145709753489
 20
0.5284621220377584
 10
2.580145709753489
 20
0.5284621220377584
450
0
451
0
460
0.0
461
0.0
452
0
462
0.0
453
0
470

  0
LWPOLYLINE
  5
17C
330
178
100
AcDbEntity
  8
0
 62
255
100
AcDbPolyline
 90
6
 70
1
 10
2.149191987549274
 20
0.532777753347015
 10
2.94895982503356
 20
0.533333001867426
 42
-0.8585888479336397
 10
2.949524093946672
 20
-0.5238686169686937
 10
2.149925962512635
 20
-0.5244237476686211
 42
-0.4142135623730951
 10
2.049856560416599
 20
-0.4244931979646325
 10
2.049261437845288
 20
0.4327083512509767
 42
-0.4142135623730951
  0
LWPOLYLINE
  5
17D
330
178
100
AcDbEntity
  8
0
 62
255
100
AcDbPolyline
 90
4
 70
1
 10
2.381669927751144
 20
0.3329391057764072
 10
2.932076722070689
 20
0.3333212323684584
 42
-0.8242665422847073
 10
2.932399423766672
 20
-0.3238804577786622
 10
2.382126197930405
 20
-0.3242624916391739
  0
LWPOLYLINE
  5
17E
330
178
100
AcDbEntity
  8
0
 62
255
100
AcDbPolyline
 90
2
 70
0
 10
2.381898062840774
 20
0.0043383070686166
 10
2.049558999130943
 20
0.004107576643172
  0
ENDBLK
  5
17A
330
178
100
AcDbEntity
  8
0
100
AcDbBlockEnd
  0
BLOCK
  5
180
330
17F
100
AcDbEntity
  8
0
100
AcDbBlockBegin
  2
AncoragemDupla
 70
0
 10
6.9595e-12
 20
0.0041075766431721
 30
0.0
  3
AncoragemDupla
  1

  0
LWPOLYLINE
  5
182
330
17F
100
AcDbEntity
  8
0
 62
255
100
AcDbPolyline
 90
6
 70
1
 10
-2.149558999117022
 20
-0.5244933012573855
 10
-2.949327029345295
 20
-0.5244933012573854
 42
-0.8585888479336397
 10
-2.949157323254145
 20
0.5327084545437298
 10
-2.149558999117022
 20
0.5327084545437297
 42
-0.4142135623730951
 10
-2.049558999117024
 20
0.4327084545437299
 10
-2.049558999117024
 20
-0.4244933012573855
 42
-0.4142135623730951
  0
HATCH
  5
183
330
17F
100
AcDbEntity
  8
0
 62
251
100
AcDbHatch
 10
0.0
 20
0.0
 30
0.0
210
0.0
220
0.0
230
1.0
  2
SOLID
 70
1
 71
0
 91
2
 92
7
 72
1
 73
1
 93
6
 10
-2.149558999117023
 20
-0.5244933012573855
 42
0.4142135623730951
 10
-2.049558999117024
 20
-0.4244933012573866
 42
0.0
 10
-2.049558999117024
 20
0.4327084545437309
 42
0.4142135623730948
 10
-2.149558999117023
 20
0.5327084545437297
 42
0.0
 10
-2.949157323254146
 20
0.5327084545437298
 42
0.8585888479336388
 10
-2.949327029345296
 20
-0.5244933012573854
 42
0.0
 97
1
330
57
 92
22
 72
1
 73
1
 93
4
 10
-2.932305069888083
 20
-0.3244933012573852
 42
-0.8242665422847077
 10
-2.932171501372615
 20
0.3327084545437295
 42
0.0
 10
-2.381898142920544
 20
0.3327084545437296
 42
0.0
 10
-2.381898142920544
 20
-0.3244933012573852
 42
0.0
 97
1
330
5C
 75
1
 76
1
 47
0.0026943791988635
 98
2
 10
-2.580509621282796
 20
-0.5198784762122411
 10
-2.580509621282796
 20
-0.5198784762122411
450
0
451
0
460
0.0
461
0.0
452
0
462
0.0
453
0
470

  0
LWPOLYLINE
  5
184
330
17F
100
AcDbEntity
  8
0
 62
255
100
AcDbPolyline
 90
4
 70
1
 10
-2.381898142920544
 20
-0.3244933012573852
 10
-2.932305069888084
 20
-0.3244933012573852
 42
-0.8242665422847073
 10
-2.932171501372615
 20
0.3327084545437295
 10
-2.381898142920544
 20
0.3327084545437295
  0
LWPOLYLINE
  5
185
330
17F
100
AcDbEntity
  8
0
 62
255
100
AcDbPolyline
 90
2
 70
0
 10
-2.381898142920544
 20
0.0041075766431722
 10
-2.049558999117024
 20
0.0041075766431722
  0
HATCH
  5
186
330
17F
100
AcDbEntity
  8
0
 62
251
100
AcDbHatch
 10
0.0
 20
0.0
 30
0.0
210
0.0
220
0.0
230
1.0
  2
SOLID
 70
1
 71
0
 91
2
 92
7
 72
1
 73
1
 93
6
 10
2.149191987549275
 20
0.532777753347015
 42
0.4142135623730951
 10
2.049261437845288
 20
0.4327083512509776
 42
0.0
 10
2.049856560416599
 20
-0.4244931979646335
 42
0.4142135623730948
 10
2.149925962512637
 20
-0.5244237476686211
 42
0.0
 10
2.949524093946672
 20
-0.5238686169686937
 42
0.8585888479336388
 10
2.948959825033561
 20
0.5333330018674259
 42
0.0
 97
1
330
5F
 92
22
 72
1
 73
1
 93
4
 10
2.932076722070689
 20
0.3333212323684584
 42
-0.8242665422847077
 10
2.932399423766672
 20
-0.3238804577786622
 42
0.0
 10
2.382126197930406
 20
-0.3242624916391741
 42
0.0
 10
2.381669927751144
 20
0.3329391057764072
 42
0.0
 97
1
330
60
 75
1
 76
1
 47
0.0026943791988635
 98
2
 10
2.580145709753489
 20
0.5284621220377583
 10
2.580145709753489
 20
0.5284621220377583
450
0
451
0
460
0.0
461
0.0
452
0
462
0.0
453
0
470

  0
LWPOLYLINE
  5
187
330
17F
100
AcDbEntity
  8
0
 62
255
100
AcDbPolyline
 90
6
 70
1
 10
2.149191987549274
 20
0.532777753347015
 10
2.948959825033561
 20
0.5333330018674259
 42
-0.8585888479336397
 10
2.949524093946672
 20
-0.5238686169686937
 10
2.149925962512636
 20
-0.5244237476686211
 42
-0.4142135623730951
 10
2.049856560416599
 20
-0.4244931979646325
 10
2.049261437845288
 20
0.4327083512509766
 42
-0.4142135623730951
  0
LWPOLYLINE
  5
188
330
17F
100
AcDbEntity
  8
0
 62
255
100
AcDbPolyline
 90
4
 70
1
 10
2.381669927751144
 20
0.3329391057764072
 10
2.932076722070689
 20
0.3333212323684584
 42
-0.8242665422847073
 10
2.932399423766672
 20
-0.3238804577786622
 10
2.382126197930406
 20
-0.3242624916391739
  0
LWPOLYLINE
  5
189
330
17F
100
AcDbEntity
  8
0
 62
255
100
AcDbPolyline
 90
2
 70
0
 10
2.381898062840775
 20
0.0043383070686166
 10
2.049558999130943
 20
0.004107576643172
  0
ENDBLK
  5
181
330
17F
100
AcDbEntity
  8
0
100
AcDbBlockEnd
  0
BLOCK
  5
18B
330
18A
100
AcDbEntity
  8
0
100
AcDbBlockBegin
  2
AncoragemPassante
 70
0
 10
11882.88590046437
 20
1296.232071285449
 30
0.0
  3
AncoragemPassante
  1

  0
LWPOLYLINE
  5
18D
330
18A
100
AcDbEntity
  8
0
 62
255
100
AcDbPolyline
 90
8
 70
1
 10
11882.47190305841
 20
1296.76060152991
 10
11883.2996512717
 20
1296.760734403482
 42
-0.4142135620766132
 10
11883.39966732282
 20
1296.660750457286
 10
11883.39980492527
 20
1295.803548699949
 42
-0.414213562669577
 10
11883.29982097897
 20
1295.703532648722
 10
11882.47207276569
 20
1295.703399775149
 42
-0.4142135620766132
 10
11882.37205671456
 20
1295.803383721345
 10
11882.37191911211
 20
1296.660585478683
 42
-0.414213562669577
  0
HATCH
  5
18E
330
18A
100
AcDbEntity
  8
0
 62
255
100
AcDbHatch
 10
0.0
 20
0.0
 30
0.0
210
0.0
220
0.0
230
1.0
  2
SOLID
 70
1
 71
0
 91
2
 92
7
 72
0
 73
1
 93
6
 10
11882.4334703257
 20
1296.598597097937
 10
11882.4817492779
 20
1296.514975499804
 10
11882.57830718228
 20
1296.514975499804
 10
11882.62658613447
 20
1296.598597097937
 10
11882.57830718228
 20
1296.68221869607
 10
11882.4817492779
 20
1296.68221869607
 97
1
330
62
 92
22
 72
1
 73
1
 93
2
 10
11882.5811738335
 20
1296.598597097937
 42
-1.0
 10
11882.47888262667
 20
1296.598597097937
 42
-1.0
 97
1
330
63
 75
1
 76
1
 47
0.001351091324443
 98
2
 10
11882.45597660709
 20
1296.612649878282
 10
11882.45597660709
 20
1296.612649878282
450
0
451
0
460
0.0
461
0.0
452
0
462
0.0
453
0
470

  0
LWPOLYLINE
  5
18F
330
18A
100
AcDbEntity
  8
0
 62
255
100
AcDbPolyline
 90
6
 70
1
 10
11882.4334703257
 20
1296.598597097937
 10
11882.4817492779
 20
1296.514975499804
 10
11882.57830718228
 20
1296.514975499804
 10
11882.62658613447
 20
1296.598597097937
 10
11882.57830718228
 20
1296.68221869607
 10
11882.4817492779
 20
1296.68221869607
  0
CIRCLE
  5
190
330
18A
100
AcDbEntity
  8
0
 62
255
100
AcDbCircle
 10
11882.53002823009
 20
1296.598597097937
 30
0.0
 40
0.0511456034146241
  0
HATCH
  5
191
330
18A
100
AcDbEntity
  8
0
 62
255
100
AcDbHatch
 10
0.0
 20
0.0
 30
0.0
210
0.0
220
0.0
230
1.0
  2
SOLID
 70
1
 71
0
 91
2
 92
7
 72
0
 73
1
 93
6
 10
11883.11649172565
 20
1296.598597097937
 10
11883.16477067784
 20
1296.514975499804
 10
11883.26132858222
 20
1296.514975499804
 10
11883.30960753442
 20
1296.598597097937
 10
11883.26132858222
 20
1296.68221869607
 10
11883.16477067784
 20
1296.68221869607
 97
1
330
65
 92
22
 72
1
 73
1
 93
2
 10
11883.26419523344
 20
1296.598597097937
 42
-1.0
 10
11883.16190402662
 20
1296.598597097937
 42
-1.0
 97
1
330
66
 75
1
 76
1
 47
0.001351091324443
 98
2
 10
11883.13899800703
 20
1296.612649878282
 10
11883.13899800703
 20
1296.612649878282
450
0
451
0
460
0.0
461
0.0
452
0
462
0.0
453
0
470

  0
LWPOLYLINE
  5
192
330
18A
100
AcDbEntity
  8
0
 62
255
100
AcDbPolyline
 90
6
 70
1
 10
11883.11649172565
 20
1296.598597097937
 10
11883.16477067784
 20
1296.514975499804
 10
11883.26132858222
 20
1296.514975499804
 10
11883.30960753442
 20
1296.598597097937
 10
11883.26132858222
 20
1296.68221869607
 10
11883.16477067784
 20
1296.68221869607
  0
CIRCLE
  5
193
330
18A
100
AcDbEntity
  8
0
 62
255
100
AcDbCircle
 10
11883.21304963003
 20
1296.598597097937
 30
0.0
 40
0.0511456034146241
  0
HATCH
  5
194
330
18A
100
AcDbEntity
  8
0
 62
255
100
AcDbHatch
 10
0.0
 20
0.0
 30
0.0
210
0.0
220
0.0
230
1.0
  2
SOLID
 70
1
 71
0
 91
2
 92
7
 72
0
 73
1
 93
6
 10
11882.4334703257
 20
1295.897721235354
 10
11882.4817492779
 20
1295.814099637221
 10
11882.57830718228
 20
1295.814099637221
 10
11882.62658613447
 20
1295.897721235354
 10
11882.57830718228
 20
1295.981342833486
 10
11882.4817492779
 20
1295.981342833486
 97
1
330
68
 92
22
 72
1
 73
1
 93
2
 10
11882.5811738335
 20
1295.897721235354
 42
-1.0
 10
11882.47888262667
 20
1295.897721235354
 42
-1.0
 97
1
330
69
 75
1
 76
1
 47
0.001351091324443
 98
2
 10
11882.45597660709
 20
1295.911774015699
 10
11882.45597660709
 20
1295.911774015699
450
0
451
0
460
0.0
461
0.0
452
0
462
0.0
453
0
470

  0
LWPOLYLINE
  5
195
330
18A
100
AcDbEntity
  8
0
 62
255
100
AcDbPolyline
 90
6
 70
1
 10
11882.4334703257
 20
1295.897721235354
 10
11882.4817492779
 20
1295.814099637221
 10
11882.57830718228
 20
1295.814099637221
 10
11882.62658613447
 20
1295.897721235354
 10
11882.57830718228
 20
1295.981342833486
 10
11882.4817492779
 20
1295.981342833486
  0
CIRCLE
  5
196
330
18A
100
AcDbEntity
  8
0
 62
255
100
AcDbCircle
 10
11882.53002823009
 20
1295.897721235354
 30
0.0
 40
0.0511456034146241
  0
HATCH
  5
197
330
18A
100
AcDbEntity
  8
0
 62
255
100
AcDbHatch
 10
0.0
 20
0.0
 30
0.0
210
0.0
220
0.0
230
1.0
  2
SOLID
 70
1
 71
0
 91
2
 92
7
 72
0
 73
1
 93
6
 10
11883.11649172565
 20
1295.897721234504
 10
11883.16477067784
 20
1295.814099636371
 10
11883.26132858222
 20
1295.814099636371
 10
11883.30960753442
 20
1295.897721234504
 10
11883.26132858222
 20
1295.981342832637
 10
11883.16477067784
 20
1295.981342832637
 97
1
330
6B
 92
22
 72
1
 73
1
 93
2
 10
11883.26419523344
 20
1295.897721234504
 42
-1.0
 10
11883.16190402662
 20
1295.897721234504
 42
-1.0
 97
1
330
6C
 75
1
 76
1
 47
0.001351091324443
 98
2
 10
11883.13899800703
 20
1295.911774014849
 10
11883.13899800703
 20
1295.911774014849
450
0
451
0
460
0.0
461
0.0
452
0
462
0.0
453
0
470

  0
LWPOLYLINE
  5
198
330
18A
100
AcDbEntity
  8
0
 62
255
100
AcDbPolyline
 90
6
 70
1
 10
11883.11649172565
 20
1295.897721234504
 10
11883.16477067784
 20
1295.814099636371
 10
11883.26132858222
 20
1295.814099636371
 10
11883.30960753442
 20
1295.897721234504
 10
11883.26132858222
 20
1295.981342832637
 10
11883.16477067784
 20
1295.981342832637
  0
CIRCLE
  5
199
330
18A
100
AcDbEntity
  8
0
 62
255
100
AcDbCircle
 10
11883.21304963003
 20
1295.897721234504
 30
0.0
 40
0.0511456034146241
  0
HATCH
  5
19A
330
18A
100
AcDbEntity
  8
0
 62
250
100
AcDbHatch
 10
0.0
 20
0.0
 30
0.0
210
0.0
220
0.0
230
1.0
  2
SOLID
 70
1
 71
0
 91
9
 92
7
 72
1
 73
1
 93
8
 10
11882.37205671456
 20
1295.803383721345
 42
0.4142135620766133
 10
11882.47207276569
 20
1295.703399775149
 42
0.0
 10
11883.29982097897
 20
1295.703532648722
 42
0.4142135626695769
 10
11883.39980492527
 20
1295.803548699949
 42
0.0
 10
11883.39966732282
 20
1296.660750457286
 42
0.4142135620766133
 10
11883.2996512717
 20
1296.760734403482
 42
0.0
 10
11882.47190305841
 20
1296.76060152991
 42
0.4142135626695773
 10
11882.37191911211
 20
1296.660585478683
 42
0.0
 97
1
330
5D
 92
22
 72
0
 73
1
 93
6
 10
11882.57830718228
 20
1296.514975499804
 10
11882.4817492779
 20
1296.514975499804
 10
11882.4334703257
 20
1296.598597097937
 10
11882.4817492779
 20
1296.68221869607
 10
11882.57830718228
 20
1296.68221869607
 10
11882.62658613447
 20
1296.598597097937
 97
1
330
62
 92
22
 72
0
 73
1
 93
6
 10
11882.57830718228
 20
1295.981342833486
 10
11882.62658613447
 20
1295.897721235354
 10
11882.57830718228
 20
1295.814099637221
 10
11882.4817492779
 20
1295.814099637221
 10
11882.4334703257
 20
1295.897721235354
 10
11882.4817492779
 20
1295.981342833486
 97
1
330
68
 92
6
 72
1
 73
1
 93
2
 10
11882.47888262667
 20
1296.598597097937
 42
-1.0
 10
11882.5811738335
 20
1296.598597097937
 42
-1.0
 97
1
330
63
 92
6
 72
1
 73
1
 93
2
 10
11882.5811738335
 20
1295.897721235354
 42
-1.0
 10
11882.47888262667
 20
1295.897721235354
 42
-1.0
 97
1
330
69
 92
22
 72
0
 73
1
 93
6
 10
11883.11649172565
 20
1296.598597097937
 10
11883.16477067784
 20
1296.68221869607
 10
11883.26132858222
 20
1296.68221869607
 10
11883.30960753442
 20
1296.598597097937
 10
11883.26132858222
 20
1296.514975499804
 10
11883.16477067784
 20
1296.514975499804
 97
1
330
65
 92
22
 72
0
 73
1
 93
6
 10
11883.16477067784
 20
1295.981342832637
 10
11883.26132858222
 20
1295.981342832637
 10
11883.30960753442
 20
1295.897721234504
 10
11883.26132858222
 20
1295.814099636371
 10
11883.16477067784
 20
1295.814099636371
 10
11883.11649172565
 20
1295.897721234504
 97
1
330
6B
 92
6
 72
1
 73
1
 93
2
 10
11883.16190402662
 20
1296.598597097937
 42
-1.0
 10
11883.26419523344
 20
1296.598597097937
 42
-1.0
 97
1
330
66
 92
6
 72
1
 73
1
 93
2
 10
11883.26419523344
 20
1295.897721234504
 42
-1.0
 10
11883.16190402662
 20
1295.897721234504
 42
-1.0
 97
1
330
6C
 75
1
 76
1
 47
0.0018340326988662
 98
9
 10
11882.67586346776
 20
1296.262944532869
 10
11882.67586346776
 20
1296.262944532869
 10
11882.67586346776
 20
1296.262944532869
 10
11882.67586346776
 20
1296.262944532869
 10
11882.67586346776
 20
1296.262944532869
 10
11882.67586346776
 20
1296.262944532869
 10
11882.67586346776
 20
1296.262944532869
 10
11882.67586346776
 20
1296.262944532869
 10
11882.67586346776
 20
1296.262944532869
450
0
451
0
460
0.0
461
0.0
452
0
462
0.0
453
0
470

  0
ENDBLK
  5
18C
330
18A
100
AcDbEntity
  8
0
100
AcDbBlockEnd
  0
BLOCK
  5
19C
330
19B
100
AcDbEntity
  8
0
100
AcDbBlockBegin
  2
AncoragemCordoalha
 70
0
 10
11897.36756435162
 20
1294.283105399612
 30
0.0
  3
AncoragemCordoalha
  1

  0
LWPOLYLINE
  5
19E
330
19B
100
AcDbEntity
  8
0
100
AcDbPolyline
 90
5
 70
1
 10
11897.36756435162
 20
1294.283105399612
 10
11898.21926726272
 20
1294.551006960902
 42
-0.50516675544257
 10
11898.38567295665
 20
1294.429475320379
 10
11898.38729478746
 20
1294.065525253629
 10
11898.31756176692
 20
1293.964330528207
  0
LWPOLYLINE
  5
19F
330
19B
100
AcDbEntity
  8
0
100
AcDbPolyline
 90
5
 70
1
 10
11896.95348004808
 20
1294.287038821014
 10
11898.18086029791
 20
1294.673108988135
 42
-0.5051667554425703
 10
11898.51367168579
 20
1294.43004570709
 10
11898.51547240678
 20
1294.025951441962
 10
11898.36825099805
 20
1293.812307605558
  0
HATCH
  5
1A0
330
19B
100
AcDbEntity
  8
0
 62
5
100
AcDbHatch
 10
0.0
 20
0.0
 30
0.0
210
0.0
220
0.0
230
1.0
  2
SOLID
 70
1
 71
0
 91
2
 92
7
 72
1
 73
1
 93
5
 10
11896.95348004808
 20
1294.287038821014
 42
0.0
 10
11898.36825099805
 20
1293.812307605558
 42
0.0
 10
11898.51547240678
 20
1294.025951441962
 42
0.0
 10
11898.51367168579
 20
1294.43004570709
 42
0.505166755442569
 10
11898.18086029791
 20
1294.673108988135
 42
0.0
 97
1
330
5F
 92
22
 72
1
 73
1
 93
5
 10
11897.36756435162
 20
1294.283105399612
 42
0.0
 10
11898.21926726272
 20
1294.551006960902
 42
-0.5051667554425686
 10
11898.38567295665
 20
1294.429475320379
 42
0.0
 10
11898.38729478746
 20
1294.065525253629
 42
0.0
 10
11898.31756176692
 20
1293.964330528207
 42
0.0
 97
1
330
5D
 75
1
 76
1
 47
0.0012778360826692
 98
2
 10
11897.19653986555
 20
1294.316495614494
 10
11897.19653986555
 20
1294.316495614494
450
0
451
0
460
0.0
461
0.0
452
0
462
0.0
453
0
470

  0
ENDBLK
  5
19D
330
19B
100
AcDbEntity
  8
0
100
AcDbBlockEnd
  0
BLOCK
  5
1A2
330
1A1
100
AcDbEntity
  8
0
100
AcDbBlockBegin
  2
Estai
 70
0
 10
0.0
 20
0.0
 30
0.0
  3
Estai
  1

  0
INSERT
  5
1A4
330
1A1
100
AcDbEntity
  8
0
100
AcDbBlockReference
  2
estai0
 10
0.0
 20
0.0
 30
0.0
  0
ENDBLK
  5
1A3
330
1A1
100
AcDbEntity
  8
0
100
AcDbBlockEnd
  0
BLOCK
  5
1A7
330
1A6
100
AcDbEntity
  8
0
100
AcDbBlockBegin
  2
estai0
 70
0
 10
0.0
 20
0.0
 30
0.0
  3
estai0
  1
estai
  0
LINE
  5
1A9
330
1A6
100
AcDbEntity
  8
TRAFO A IMPLANTAR
100
AcDbLine
 10
-0.047799
 20
6.996162
 30
0.0
 11
0.0
 21
0.0
 31
0.0
  0
LINE
  5
1AA
330
1A6
100
AcDbEntity
  8
0
100
AcDbLine
 10
-0.047799
 20
6.996162
 30
0.0
 11
-1.329988
 21
9.266876
 31
0.0
  0
LINE
  5
1AB
330
1A6
100
AcDbEntity
  8
0
100
AcDbLine
 10
-0.047799
 20
6.991358
 30
0.0
 11
1.186076
 21
9.288684
 31
0.0
  0
ENDBLK
  5
1A8
330
1A6
100
AcDbEntity
  8
0
100
AcDbBlockEnd
  0
BLOCK
  5
1AE
330
1AD
100
AcDbEntity
  8
0
100
AcDbBlockBegin
  2
EstaiExistente
 70
0
 10
0.0
 20
0.0
 30
0.0
  3
EstaiExistente
  1

  0
INSERT
  5
1B0
330
1AD
100
AcDbEntity
  8
0
  6
ByLayer
100
AcDbBlockReference
  2
t
 10
0.0
 20
0.0
 30
0.0
 43
0.0
  0
ENDBLK
  5
1AF
330
1AD
100
AcDbEntity
  8
0
100
AcDbBlockEnd
  0
BLOCK
  5
1B3
330
1B2
100
AcDbEntity
  8
0
100
AcDbBlockBegin
  2
t
 70
0
 10
0.0
 20
0.0
 30
0.0
  3
t
  1

  0
CIRCLE
  5
1B5
330
1B2
100
AcDbEntity
  8
TRAFO A IMPLANTAR
  6
ByLayer
100
AcDbCircle
 10
-0.068687
 20
8.407452
 30
0.0
 40
1.787896843401059
  0
LINE
  5
1B6
330
1B2
100
AcDbEntity
  8
TRAFO A IMPLANTAR
  6
ByLayer
100
AcDbLine
 10
-0.047799
 20
6.996162
 30
0.0
 11
0.0
 21
0.0
 31
0.0
  0
LINE
  5
1B7
330
1B2
100
AcDbEntity
  8
0
  6
ByLayer
100
AcDbLine
 10
-0.047799
 20
6.996162
 30
0.0
 11
-1.329988
 21
9.266876
 31
0.0
  0
LINE
  5
1B8
330
1B2
100
AcDbEntity
  8
0
  6
ByLayer
100
AcDbLine
 10
-0.047799
 20
6.991358
 30
0.0
 11
1.186076
 21
9.288684
 31
0.0
  0
ENDBLK
  5
1B4
330
1B2
100
AcDbEntity
  8
0
100
AcDbBlockEnd
  0
BLOCK
  5
1BA
330
1B9
100
AcDbEntity
  8
0
100
AcDbBlockBegin
  2
EstaiRetirar
 70
0
 10
0.0
 20
0.0
 30
0.0
  3
EstaiRetirar
  1

  0
HATCH
  5
1BC
330
1B9
100
AcDbEntity
  8
0
  6
ByLayer
 62
1
100
AcDbHatch
 10
0.0
 20
0.0
 30
0.0
210
0.0
220
0.0
230
1.0
  2
SOLID
 70
1
 71
0
 91
1
 92
0
 93
1
 72
1
 10
-1.792373376168988
 20
4.924310012422166
 11
2.339518933104784
 21
9.773151672163532
 97
0
 75
0
 76
1
 98
0
  0
LINE
  5
1BD
330
1B9
100
AcDbEntity
  8
ESTAI
  6
ByLayer
100
AcDbLine
 10
-0.047799
 20
6.996162
 30
0.0
 11
0.0
 21
0.0
 31
0.0
  0
LINE
  5
1BE
330
1B9
100
AcDbEntity
  8
0
  6
ByLayer
100
AcDbLine
 10
-0.047799
 20
6.996162
 30
0.0
 11
-1.329988
 21
9.266876
 31
0.0
  0
LINE
  5
1BF
330
1B9
100
AcDbEntity
  8
0
  6
ByLayer
100
AcDbLine
 10
-0.047799
 20
6.991358
 30
0.0
 11
1.186076
 21
9.288684
 31
0.0
  0
LINE
  5
1C0
330
1B9
100
AcDbEntity
  8
0
  6
ByLayer
 62
1
100
AcDbLine
 10
-1.792373376168988
 20
4.924310012422166
 30
0.0
 11
2.339518933104784
 21
9.773151672163532
 31
0.0
  0
LINE
  5
1C1
330
1B9
100
AcDbEntity
  8
0
  6
ByLayer
 62
1
100
AcDbLine
 10
1.679170847147788
 20
4.924310012422166
 30
0.0
 11
-2.452721462125983
 21
9.773151672163532
 31
0.0
  0
ENDBLK
  5
1BB
330
1B9
100
AcDbEntity
  8
0
100
AcDbBlockEnd
  0
BLOCK
  5
1C3
330
1C2
100
AcDbEntity
  8
0
100
AcDbBlockBegin
  2
FlyTapProjetado
 70
0
 10
0.0
 20
0.0
 30
0.0
  3
FlyTapProjetado
  1

  0
HATCH
  5
1C5
330
1C2
100
AcDbEntity
  8
FLY TAP
  6
ByLayer
100
AcDbHatch
 10
0.0
 20
0.0
 30
0.0
210
0.0
220
0.0
230
1.0
  2
SOLID
 70
1
 71
0
 91
1
 92
0
 93
1
 72
2
 10
0.0
 20
0.04009208903120065
 40
0.669069581884931
 50
0.0
 51
360.0
 73
1
 97
0
 75
0
 76
1
 98
0
  0
CIRCLE
  5
1C6
330
1C2
100
AcDbEntity
  8
FLY TAP
  6
ByLayer
100
AcDbCircle
 10
0.0
 20
0.04009208903120065
 30
0.0
 40
0.669069581884931
  0
ENDBLK
  5
1C4
330
1C2
100
AcDbEntity
  8
0
100
AcDbBlockEnd
  0
BLOCK
  5
1C9
330
1C8
100
AcDbEntity
  8
0
100
AcDbBlockBegin
  2
FlyTapExistente
 70
0
 10
0.0
 20
0.0
 30
0.0
  3
FlyTapExistente
  1

  0
CIRCLE
  5
1CB
330
1C8
100
AcDbEntity
  8
FLY TAP
  6
ByLayer
100
AcDbCircle
 10
0.0
 20
0.04009208903120065
 30
0.0
 40
0.669069581884931
  0
ENDBLK
  5
1CA
330
1C8
100
AcDbEntity
  8
0
100
AcDbBlockEnd
  0
BLOCK
  5
1CD
330
1CC
100
AcDbEntity
  8
0
100
AcDbBlockBegin
  2
FlyTapRetirar
 70
0
 10
0.0
 20
0.0
 30
0.0
  3
FlyTapRetirar
  1

  0
HATCH
  5
1CF
330
1CC
100
AcDbEntity
  8
FLY TAP
  6
ByLayer
 62
1
100
AcDbHatch
 10
0.0
 20
0.0
 30
0.0
210
0.0
220
0.0
230
1.0
  2
SOLID
 70
1
 71
0
 91
1
 92
0
 93
1
 72
1
 10
0.9412040621760038
 20
1.034813018539683
 11
-1.025475598823774
 21
-1.120554787836542
 97
0
 75
0
 76
1
 98
0
  0
CIRCLE
  5
1D0
330
1CC
100
AcDbEntity
  8
FLY TAP
  6
ByLayer
100
AcDbCircle
 10
0.0
 20
0.04009208903120065
 30
0.0
 40
0.669069581884931
  0
LINE
  5
1D1
330
1CC
100
AcDbEntity
  8
FLY TAP
  6
ByLayer
 62
1
100
AcDbLine
 10
-0.9766926783526166
 20
1.001523848141243
 30
0.0
 11
1.063601772612807
 21
-1.084294414103329
 31
0.0
  0
LINE
  5
1D2
330
1CC
100
AcDbEntity
  8
FLY TAP
  6
ByLayer
 62
1
100
AcDbLine
 10
0.9412040621760038
 20
1.034813018539683
 30
0.0
 11
-1.025475598823774
 21
-1.120554787836542
 31
0.0
  0
ENDBLK
  5
1CE
330
1CC
100
AcDbEntity
  8
0
100
AcDbBlockEnd
  0
BLOCK
  5
1D4
330
1D3
100
AcDbEntity
  8
0
100
AcDbBlockBegin
  2
poles.wood.install
 70
0
 10
0.0
 20
0.0
 30
0.0
  3
poles.wood.install
  1

  0
HATCH
  5
1D6
330
1D3
100
AcDbEntity
  8
0
  6
ByLayer
 62
3
370
0
100
AcDbHatch
 10
0.0
 20
0.0
 30
0.0
210
0.0
220
0.0
230
1.0
  2
SOLID
 70
1
 71
0
 91
1
 92
0
 93
3
 72
2
 10
7.280750025095983e-08
 20
7.280750025095983e-08
 40
1.9824123074915003
 50
-90.00000000000001
 51
0.0
 73
1
 72
2
 10
7.280750358162891e-08
 20
7.280749736437997e-08
 40
1.9824123074914974
 50
7.63333123551244e-14
 51
90.0000000000001
 73
1
 72
1
 10
7.280750025095983e-08
 20
1.9824123802989948
 11
7.280750025095983e-08
 21
-1.982412234684
 97
0
 75
0
 76
1
 98
0
  0
CIRCLE
  5
1D7
330
1D3
100
AcDbEntity
  8
PTE_P
  6
ByLayer
 62
80
370
0
100
AcDbCircle
 10
0.0
 20
0.0
 30
0.0
 40
1.9824123074914994
  0
CIRCLE
  5
1D8
330
1D3
100
AcDbEntity
  8
0
  6
ByLayer
370
0
100
AcDbCircle
 10
-2.3468400001114276e-07
 20
-2.3468400001114276e-07
 30
0.0
 40
0.117790651862213
  0
ENDBLK
  5
1D5
330
1D3
100
AcDbEntity
  8
0
100
AcDbBlockEnd
  0
BLOCK
  5
1DA
330
1D9
100
AcDbEntity
  8
0
100
AcDbBlockBegin
  2
poles.wood.remove
 70
0
 10
0.0
 20
0.0
 30
0.0
  3
poles.wood.remove
  1

  0
CIRCLE
  5
1DC
330
1D9
100
AcDbEntity
  8
0
  6
ByLayer
370
5
100
AcDbCircle
 10
0.0
 20
0.0
 30
0.0
 40
1.857667995576852
  0
CIRCLE
  5
1DD
330
1D9
100
AcDbEntity
  8
0
  6
ByLayer
370
0
100
AcDbCircle
 10
0.0
 20
0.0
 30
0.0
 40
0.117790651862213
  0
LINE
  5
1DE
330
1D9
100
AcDbEntity
  8
0
  6
ByLayer
 62
6
100
AcDbLine
 10
2.4226289999999997
 20
1.759302
 30
0.0
 11
-2.4226280000000004
 21
-1.759302
 31
0.0
  0
LINE
  5
1DF
330
1D9
100
AcDbEntity
  8
0
  6
ByLayer
 62
6
100
AcDbLine
 10
1.9188729999999998
 20
-2.488599
 30
0.0
 11
-1.918873
 21
2.488599
 31
0.0
  0
ENDBLK
  5
1DB
330
1D9
100
AcDbEntity
  8
0
100
AcDbBlockEnd
  0
BLOCK
  5
1E1
330
1E0
100
AcDbEntity
  8
0
100
AcDbBlockBegin
  2
poles.wood.keep
 70
0
 10
0.0
 20
0.0
 30
0.0
  3
poles.wood.keep
  1

  0
CIRCLE
  5
1E3
330
1E0
100
AcDbEntity
  8
0
  6
ByLayer
370
5
100
AcDbCircle
 10
0.0
 20
0.0
 30
0.0
 40
1.857667995576852
  0
CIRCLE
  5
1E4
330
1E0
100
AcDbEntity
  8
0
  6
ByLayer
370
0
100
AcDbCircle
 10
0.0
 20
0.0
 30
0.0
 40
0.117790651862213
  0
ENDBLK
  5
1E2
330
1E0
100
AcDbEntity
  8
0
100
AcDbBlockEnd
  0
BLOCK
  5
1E6
330
1E5
100
AcDbEntity
  8
0
100
AcDbBlockBegin
  2
poles.wood.change
 70
0
 10
0.0
 20
0.0
 30
0.0
  3
poles.wood.change
  1

  0
INSERT
  5
1E8
330
1E5
100
AcDbEntity
  8
0
100
AcDbBlockReference
  2
poles.wood.install.dxf
 10
0.0
 20
0.0
 30
0.0
  0
INSERT
  5
1EA
330
1E5
100
AcDbEntity
  8
0
100
AcDbBlockReference
  2
poles.wood.remove.dxf
 10
-3.96482347076687
 20
0.0
 30
0.0
  0
ENDBLK
  5
1E7
330
1E5
100
AcDbEntity
  8
0
100
AcDbBlockEnd
  0
BLOCK
  5
1ED
330
1EC
100
AcDbEntity
  8
0
100
AcDbBlockBegin
  2
poles.wood.install.dxf
 70
0
 10
0.0
 20
0.0
 30
0.0
  3
poles.wood.install.dxf
  1

  0
HATCH
  5
1EF
330
1EC
100
AcDbEntity
  8
0
  6
ByLayer
 62
3
370
0
100
AcDbHatch
 10
0.0
 20
0.0
 30
0.0
210
0.0
220
0.0
230
1.0
  2
SOLID
 70
1
 71
0
 91
1
 92
0
 93
3
 72
2
 10
7.280750025095983e-08
 20
7.280750025095983e-08
 40
1.9824123074915003
 50
-90.00000000000001
 51
0.0
 73
1
 72
2
 10
7.280750358162891e-08
 20
7.280749736437997e-08
 40
1.9824123074914974
 50
7.63333123551244e-14
 51
90.0000000000001
 73
1
 72
1
 10
7.280750025095983e-08
 20
1.9824123802989948
 11
7.280750025095983e-08
 21
-1.982412234684
 97
0
 75
0
 76
1
 98
0
  0
CIRCLE
  5
1F0
330
1EC
100
AcDbEntity
  8
PTE_P
  6
ByLayer
 62
80
370
0
100
AcDbCircle
 10
0.0
 20
0.0
 30
0.0
 40
1.9824123074914994
  0
CIRCLE
  5
1F1
330
1EC
100
AcDbEntity
  8
0
  6
ByLayer
370
0
100
AcDbCircle
 10
-2.3468400001114276e-07
 20
-2.3468400001114276e-07
 30
0.0
 40
0.117790651862213
  0
ENDBLK
  5
1EE
330
1EC
100
AcDbEntity
  8
0
100
AcDbBlockEnd
  0
BLOCK
  5
1F3
330
1F2
100
AcDbEntity
  8
0
100
AcDbBlockBegin
  2
poles.wood.remove.dxf
 70
0
 10
0.0
 20
0.0
 30
0.0
  3
poles.wood.remove.dxf
  1

  0
CIRCLE
  5
1F5
330
1F2
100
AcDbEntity
  8
0
  6
ByLayer
370
5
100
AcDbCircle
 10
0.0
 20
0.0
 30
0.0
 40
1.857667995576852
  0
CIRCLE
  5
1F6
330
1F2
100
AcDbEntity
  8
0
  6
ByLayer
370
0
100
AcDbCircle
 10
0.0
 20
0.0
 30
0.0
 40
0.117790651862213
  0
LINE
  5
1F7
330
1F2
100
AcDbEntity
  8
0
  6
ByLayer
 62
6
100
AcDbLine
 10
2.4226289999999997
 20
1.759302
 30
0.0
 11
-2.4226280000000004
 21
-1.759302
 31
0.0
  0
LINE
  5
1F8
330
1F2
100
AcDbEntity
  8
0
  6
ByLayer
 62
6
100
AcDbLine
 10
1.9188729999999998
 20
-2.488599
 30
0.0
 11
-1.918873
 21
2.488599
 31
0.0
  0
ENDBLK
  5
1F4
330
1F2
100
AcDbEntity
  8
0
100
AcDbBlockEnd
  0
BLOCK
  5
1FA
330
1F9
100
AcDbEntity
  8
0
100
AcDbBlockBegin
  2
TransformadorSemChaveProjetado
 70
0
 10
9.63
 20
7.8
 30
0.0
  3
TransformadorSemChaveProjetado
  1

  0
HATCH
  5
1FC
330
1F9
100
AcDbEntity
  8
TRAFO A IMPLANTAR
  6
ByLayer
100
AcDbHatch
 10
0.0
 20
0.0
 30
0.0
210
0.0
220
0.0
230
1.0
  2
SOLID
 70
1
 71
0
 91
1
 92
0
 93
3
 72
1
 10
9.605161829433856
 20
14.45988908010605
 11
12.28438391479319
 21
18.87979495051293
 72
1
 10
12.28438391479319
 20
18.87979495051293
 11
9.700703010399424
 21
18.93495567706209
 72
1
 10
9.700703010399424
 20
18.93495567706209
 11
9.605161829433856
 21
14.45988908010605
 97
0
 75
0
 76
1
 98
0
  0
LINE
  5
1FD
330
1F9
100
AcDbEntity
  8
TRAFO A IMPLANTAR
  6
ByLayer
100
AcDbLine
 10
12.28438442921909
 20
18.87979475899957
 30
0.0
 11
7.117021986502823
 21
18.99011640500477
 31
0.0
  0
CIRCLE
  5
1FE
330
1F9
100
AcDbEntity
  8
TRAFO A IMPLANTAR
  6
ByLayer
100
AcDbCircle
 10
9.461882344073375
 20
7.748786967830442
 30
0.0
 40
0.140485210020707
  0
LINE
  5
1FF
330
1F9
100
AcDbEntity
  8
TRAFO A IMPLANTAR
  6
ByLayer
100
AcDbLine
 10
3.178492327042314
 20
12.54994127376223
 30
0.0
 11
5.392357475290325
 21
14.48475842811501
 31
0.0
  0
LINE
  5
200
330
1F9
100
AcDbEntity
  8
TRAFO A IMPLANTAR
  6
ByLayer
100
AcDbLine
 10
3.334084766121519
 20
13.50214609343622
 30
0.0
 11
4.441917064374152
 21
14.47034038350061
 31
0.0
  0
CIRCLE
  5
201
330
1F9
100
AcDbEntity
  8
TRAFO A IMPLANTAR
  6
ByLayer
100
AcDbCircle
 10
3.79696743886125
 20
14.10455652776096
 30
0.0
 40
1.78789684340106
  0
LINE
  5
202
330
1F9
100
AcDbEntity
  8
TRAFO A IMPLANTAR
  6
ByLayer
100
AcDbLine
 10
2.381876435378139
 20
13.46144917050701
 30
0.0
 11
4.595740588669776
 21
15.39626622455121
 31
0.0
  0
LINE
  5
203
330
1F9
100
AcDbEntity
  8
TRAFO A IMPLANTAR
  6
ByLayer
100
AcDbLine
 10
2.53746787950097
 20
14.41365388987243
 30
0.0
 11
3.645300177753607
 21
15.38184817993681
 31
0.0
  0
LINE
  5
204
330
1F9
100
AcDbEntity
  8
TRAFO A IMPLANTAR
  6
ByLayer
100
AcDbLine
 10
4.362678059986679
 20
13.58342074215045
 30
0.0
 11
9.461882344073375
 21
7.748786967830442
 31
0.0
  0
CIRCLE
  5
205
330
1F9
100
AcDbEntity
  8
TRAFO A IMPLANTAR
  6
ByLayer
100
AcDbCircle
 10
15.55153986615642
 20
13.69884068620673
 30
0.0
 40
1.78789684340106
  0
LINE
  5
206
330
1F9
100
AcDbEntity
  8
TRAFO A IMPLANTAR
  6
ByLayer
100
AcDbLine
 10
15.00153914865974
 20
13.05684893144258
 30
0.0
 11
9.461882344073375
 21
7.748786967830442
 31
0.0
  0
LINE
  5
207
330
1F9
100
AcDbEntity
  8
TRAFO A IMPLANTAR
  6
ByLayer
100
AcDbLine
 10
7.117021986502823
 20
18.99011640500477
 30
0.0
 11
9.605161853948845
 21
14.45988941173769
 31
0.0
  0
LWPOLYLINE
  5
208
330
1F9
100
AcDbEntity
  8
TRAFO A IMPLANTAR
  6
ByLayer
100
AcDbPolyline
 90
4
 70
0
 10
9.605161853948845
 20
14.45988941173769
 10
12.28438442921909
 20
18.87979475899957
 10
9.700703207860954
 20
18.93495558200216
 10
9.605161853948845
 20
14.45988941173769
  0
LINE
  5
209
330
1F9
100
AcDbEntity
  8
TRAFO A IMPLANTAR
  6
ByLayer
100
AcDbLine
 10
9.605161853948845
 20
14.45988941173769
 30
0.0
 11
9.461882344073375
 21
7.748786967830442
 31
0.0
  0
LINE
  5
20A
330
1F9
100
AcDbEntity
  8
0
  6
ByLayer
100
AcDbLine
 10
13.85410013482923
 20
14.26033287745419
 30
0.0
 11
16.03150685858409
 21
11.97657302112097
 31
0.0
  0
LINE
  5
20B
330
1F9
100
AcDbEntity
  8
0
  6
ByLayer
100
AcDbLine
 10
14.87133759224962
 20
14.71503084533936
 30
0.0
 11
16.68449752604452
 21
12.81330876678717
 31
0.0
  0
LINE
  5
20C
330
1F9
100
AcDbEntity
  8
0
  6
ByLayer
100
AcDbLine
 10
16.04960704857013
 20
15.00083185109013
 30
0.0
 11
17.02612146593061
 21
13.97661988250545
 31
0.0
  0
ENDBLK
  5
1FB
330
1F9
100
AcDbEntity
  8
0
100
AcDbBlockEnd
  0
BLOCK
  5
20E
330
20D
100
AcDbEntity
  8
0
100
AcDbBlockBegin
  2
TransformadorSemChaveExistente
 70
0
 10
7.587184
 20
0.140485
 30
0.0
  3
TransformadorSemChaveExistente
  1

  0
LINE
  5
210
330
20D
100
AcDbEntity
  8
TRAFO A IMPLANTAR
  6
ByLayer
100
AcDbLine
 10
9.577530524983299
 20
12.00219961509626
 30
0.0
 11
4.409738084610357
 21
12.09010311232023
 31
0.0
  0
CIRCLE
  5
211
330
20D
100
AcDbEntity
  8
TRAFO A IMPLANTAR
  6
ByLayer
100
AcDbCircle
 10
6.803343150688961
 20
0.8590516609169904
 30
0.0
 40
0.1404852100207066
  0
LINE
  5
212
330
20D
100
AcDbEntity
  8
TRAFO A IMPLANTAR
  6
ByLayer
100
AcDbLine
 10
4.409738084610357
 20
12.09010311232023
 30
0.0
 11
6.917507642107037
 21
7.57071176934473
 31
0.0
  0
LINE
  5
213
330
20D
100
AcDbEntity
  8
TRAFO A IMPLANTAR
  6
ByLayer
100
AcDbLine
 10
6.917507642107037
 20
7.57071176934473
 30
0.0
 11
6.803343150688961
 21
0.8590516609169904
 31
0.0
  0
LINE
  5
214
330
20D
100
AcDbEntity
  8
0
  6
ByLayer
100
AcDbLine
 10
9.577530524983299
 20
12.00219961509626
 30
0.0
 11
6.917507642107037
 21
7.57071176934473
 31
0.0
  0
ENDBLK
  5
20F
330
20D
100
AcDbEntity
  8
0
100
AcDbBlockEnd
  0
BLOCK
  5
216
330
215
100
AcDbEntity
  8
0
100
AcDbBlockBegin
  2
TransformadorComChaveProjetado
 70
0
 10
7.587184
 20
0.140485
 30
0.0
  3
TransformadorComChaveProjetado
  1

  0
HATCH
  5
218
330
215
100
AcDbEntity
  8
TRAFO A IMPLANTAR
  6
ByLayer
100
AcDbHatch
 10
0.0
 20
0.0
 30
0.0
210
0.0
220
0.0
230
1.0
  2
SOLID
 70
1
 71
0
 91
1
 92
0
 93
3
 72
1
 10
7.261711557296666
 20
7.407784383691795
 11
9.965476887774368
 21
11.81271933481651
 72
1
 10
9.965476887774368
 20
11.81271933481651
 11
7.382142770309235
 21
11.88225032806814
 72
1
 10
7.382142770309235
 20
11.88225032806814
 11
7.261711557296666
 21
7.407784383691795
 97
0
 75
0
 76
1
 98
0
  0
LINE
  5
219
330
215
100
AcDbEntity
  8
TRAFO A IMPLANTAR
  6
ByLayer
100
AcDbLine
 10
9.965477226390547
 20
11.81271960919706
 30
0.0
 11
4.798808329455677
 21
11.95178161351832
 31
0.0
  0
CIRCLE
  5
21A
330
215
100
AcDbEntity
  8
TRAFO A IMPLANTAR
  6
ByLayer
100
AcDbCircle
 10
7.081105047564966
 20
0.6975831255347422
 30
0.0
 40
0.1404852100207066
  0
LINE
  5
21B
330
215
100
AcDbEntity
  8
TRAFO A IMPLANTAR
  6
ByLayer
100
AcDbLine
 10
0.8245177224440763
 20
5.533613284480165
 30
0.0
 11
3.049110113389936
 21
7.456086547272345
 31
0.0
  0
LINE
  5
21C
330
215
100
AcDbEntity
  8
TRAFO A IMPLANTAR
  6
ByLayer
100
AcDbLine
 10
0.9854037779828655
 20
6.484936965369676
 30
0.0
 11
2.098604326151226
 21
7.446955047629386
 31
0.0
  0
CIRCLE
  5
21D
330
215
100
AcDbEntity
  8
TRAFO A IMPLANTAR
  6
ByLayer
100
AcDbCircle
 10
1.451630191173686
 20
7.084764072059776
 30
0.0
 40
1.787896843401057
  0
LINE
  5
21E
330
215
100
AcDbEntity
  8
TRAFO A IMPLANTAR
  6
ByLayer
100
AcDbLine
 10
0.03298454438920606
 20
6.449537438411245
 30
0.0
 11
2.257576935335067
 21
8.372010701203425
 31
0.0
  0
LINE
  5
21F
330
215
100
AcDbEntity
  8
TRAFO A IMPLANTAR
  6
ByLayer
100
AcDbLine
 10
0.193869627195475
 20
7.400862145844205
 30
0.0
 11
1.307071175001825
 21
8.362880201198445
 31
0.0
  0
LINE
  5
220
330
215
100
AcDbEntity
  8
TRAFO A IMPLANTAR
  6
ByLayer
100
AcDbLine
 10
2.014434089038935
 20
6.560489771385325
 30
0.0
 11
7.081105047564966
 21
0.6975831255347422
 31
0.0
  0
CIRCLE
  5
221
330
215
100
AcDbEntity
  8
TRAFO A IMPLANTAR
  6
ByLayer
100
AcDbCircle
 10
13.20376473973774
 20
6.613672810573985
 30
0.0
 40
1.787896843401057
  0
LINE
  5
222
330
215
100
AcDbEntity
  8
TRAFO A IMPLANTAR
  6
ByLayer
100
AcDbLine
 10
12.70581584922027
 20
6.027449136769016
 30
0.0
 11
7.081105047564966
 21
0.6975831255347422
 31
0.0
  0
LINE
  5
223
330
215
100
AcDbEntity
  8
TRAFO A IMPLANTAR
  6
ByLayer
100
AcDbLine
 10
4.798808329455677
 20
11.95178161351832
 30
0.0
 11
7.261711547878205
 21
7.407784034166736
 31
0.0
  0
LWPOLYLINE
  5
224
330
215
100
AcDbEntity
  8
TRAFO A IMPLANTAR
  6
ByLayer
100
AcDbPolyline
 90
4
 70
0
 10
7.261711547878205
 20
7.407784034166736
 10
9.965477226390547
 20
11.81271960919706
 10
7.382142777923116
 20
11.88225061135769
 10
7.261711547878205
 20
7.407784034166736
  0
LINE
  5
225
330
215
100
AcDbEntity
  8
TRAFO A IMPLANTAR
  6
ByLayer
100
AcDbLine
 10
7.231468641269517
 20
6.284147957650476
 30
0.0
 11
8.872986769595009
 21
4.148518002972982
 31
0.0
  0
ARC
  5
226
330
215
100
AcDbEntity
  8
TRAFO A IMPLANTAR
  6
ByLayer
100
AcDbCircle
 10
8.415839838229997
 20
4.610824119593294
 30
0.0
 40
0.6501611034119703
100
AcDbArc
 50
314.678513
 51
118.930755
  0
ARC
  5
227
330
215
100
AcDbEntity
  8
TRAFO A IMPLANTAR
  6
ByLayer
100
AcDbCircle
 10
7.771028660052847
 20
5.814417790438985
 30
0.0
 40
0.7153826702469331
100
AcDbArc
 50
138.957811
 51
297.4970530000001
  0
LINE
  5
228
330
215
100
AcDbEntity
  8
TRAFO A IMPLANTAR
  6
ByLayer
100
AcDbLine
 10
7.261711547878205
 20
7.407784034166736
 30
0.0
 11
7.231468641269517
 21
6.284147957650476
 31
0.0
  0
LINE
  5
229
330
215
100
AcDbEntity
  8
TRAFO A IMPLANTAR
  6
ByLayer
100
AcDbLine
 10
7.081105047564966
 20
0.6975831255347422
 30
0.0
 11
7.154976009858446
 21
3.442163179095913
 31
0.0
  0
CIRCLE
  5
22A
330
215
100
AcDbEntity
  8
TRAFO A IMPLANTAR
  6
ByLayer
100
AcDbCircle
 10
7.721730838384735
 20
4.957083801466322
 30
0.0
 40
1.617466269787116
  0
LINE
  5
22B
330
215
100
AcDbEntity
  8
0
  6
ByLayer
 62
0
100
AcDbLine
 10
11.68179341721416
 20
7.109618707422497
 30
0.0
 11
13.72983728158837
 21
4.945279593021005
 31
0.0
  0
LINE
  5
22C
330
215
100
AcDbEntity
  8
0
  6
ByLayer
 62
0
100
AcDbLine
 10
12.37928457210885
 20
7.305625337087656
 30
0.0
 11
13.96402883542287
 21
5.630893763383297
 31
0.0
  0
LINE
  5
22D
330
215
100
AcDbEntity
  8
0
  6
ByLayer
 62
0
100
AcDbLine
 10
13.0767767266415
 20
7.501631939847335
 30
0.0
 11
14.19822041616287
 21
6.316508933383576
 31
0.0
  0
LINE
  5
22E
330
215
100
AcDbEntity
  8
0
  6
ByLayer
 62
0
100
AcDbLine
 10
13.77426890807962
 20
7.697639542245006
 30
0.0
 11
14.43241299654083
 21
7.002124076478375
 31
0.0
  0
ENDBLK
  5
217
330
215
100
AcDbEntity
  8
0
100
AcDbBlockEnd
  0
BLOCK
  5
230
330
22F
100
AcDbEntity
  8
0
100
AcDbBlockBegin
  2
TransformadorComChaveExistente
 70
0
 10
13.7
 20
6.0
 30
0.0
  3
TransformadorComChaveExistente
  1

  0
HATCH
  5
232
330
22F
100
AcDbEntity
  8
0
  6
CONTINUOUS
100
AcDbHatch
 10
0.0
 20
0.0
 30
0.0
210
0.0
220
0.0
230
1.0
  2
SOLID
 70
1
 71
0
 91
1
 92
0
 93
1
 72
2
 10
13.69665135542735
 20
6.929193526526864
 40
0.1404852100207066
 50
89.9999999999999
 51
90.0
 73
1
 97
0
 75
0
 76
1
 98
0
  0
LINE
  5
233
330
22F
100
AcDbEntity
  8
0
  6
ByLayer
100
AcDbLine
 10
16.28092135542735
 20
18.11822959048102
 30
0.0
 11
11.11238235542735
 21
18.11822959048102
 31
0.0
  0
LINE
  5
234
330
22F
100
AcDbEntity
  8
0
  6
ByLayer
100
AcDbLine
 10
11.11238235542735
 20
18.11822959048102
 30
0.0
 11
13.69665135542735
 21
13.64214359048102
 31
0.0
  0
LINE
  5
235
330
22F
100
AcDbEntity
  8
0
  6
ByLayer
100
AcDbLine
 10
13.69665135542735
 20
13.64214359048102
 30
0.0
 11
16.28092135542735
 21
18.11822959048102
 31
0.0
  0
LINE
  5
236
330
22F
100
AcDbEntity
  8
0
  6
ByLayer
100
AcDbLine
 10
13.69665135542735
 20
9.14421059048102
 30
0.0
 11
16.74568635542735
 21
11.62111159048102
 31
0.0
  0
ARC
  5
237
330
22F
100
AcDbEntity
  8
0
  6
ByLayer
100
AcDbCircle
 10
16.33841035542735
 20
11.31189859048102
 30
0.0
 40
0.5113578739979423
100
AcDbArc
 50
37.206464
 51
221.617817
  0
ARC
  5
238
330
22F
100
AcDbEntity
  8
0
  6
ByLayer
100
AcDbCircle
 10
15.26359335542736
 20
10.49952759048102
 30
0.0
 40
0.8385039424857298
100
AcDbArc
 50
223.463475
 51
34.319008
  0
LINE
  5
239
330
22F
100
AcDbEntity
  8
0
  6
ByLayer
100
AcDbLine
 10
13.69665135542735
 20
13.64214359048102
 30
0.0
 11
13.69665135542735
 21
6.92951159048102
 31
0.0
  0
CIRCLE
  5
23A
330
22F
100
AcDbEntity
  8
0
  6
ByLayer
100
AcDbCircle
 10
13.69665135542735
 20
6.92951159048102
 30
0.0
 40
0.1404852100207066
  0
ENDBLK
  5
231
330
22F
100
AcDbEntity
  8
0
100
AcDbBlockEnd
  0
BLOCK
  5
23C
330
23B
100
AcDbEntity
  8
0
100
AcDbBlockBegin
  2
ChaveFusivelProjetado
 70
0
 10
0.0
 20
0.0
 30
0.0
  3
ChaveFusivelProjetado
  1

  0
INSERT
  5
23E
330
23B
100
AcDbEntity
  8
CHAVE A IMPLANTAR
  6
ByLayer
100
AcDbBlockReference
  2
06
 10
-0.001635998911384343
 20
0.9773766777264448
 30
0.0
 43
0.0
 50
89.9695
  0
ENDBLK
  5
23D
330
23B
100
AcDbEntity
  8
0
100
AcDbBlockEnd
  0
BLOCK
  5
241
330
240
100
AcDbEntity
  8
0
100
AcDbBlockBegin
  2
06
 70
0
 10
0.0
 20
0.0
 30
0.0
  3
06
  1

  0
CIRCLE
  5
243
330
240
100
AcDbEntity
  8
CHAVE EXISTENTE
  6
ByLayer
100
AcDbCircle
 10
1.645864
 20
0.630307
 30
0.0
 40
2.099999999999994
  0
LINE
  5
244
330
240
100
AcDbEntity
  8
CHAVE EXISTENTE
  6
ByLayer
100
AcDbLine
 10
0.0
 20
0.0
 30
0.0
 11
2.996274
 21
1.644611
 31
0.0
  0
ARC
  5
245
330
240
100
AcDbEntity
  8
CHAVE EXISTENTE
  6
ByLayer
100
AcDbCircle
 10
2.365929
 20
0.977181
 30
0.0
 40
0.9180402845644748
100
AcDbArc
 50
46.636882
 51
193.491127
  0
ARC
  5
246
330
240
100
AcDbEntity
  8
CHAVE EXISTENTE
  6
ByLayer
100
AcDbCircle
 10
0.747345
 20
0.360777
 30
0.0
 40
0.8298703040597397
100
AcDbArc
 50
205.768721
 51
28.992119
  0
CIRCLE
  5
247
330
240
100
AcDbEntity
  8
CHAVE EXISTENTE
  6
ByLayer
100
AcDbCircle
 10
0.0
 20
0.0
 30
0.0
 40
0.1404852100206995
  0
CIRCLE
  5
248
330
240
100
AcDbEntity
  8
CHAVE EXISTENTE
  6
ByLayer
100
AcDbCircle
 10
3.252286
 20
0.018101
 30
0.0
 40
0.1404852100206853
  0
HATCH
  5
249
330
240
100
AcDbEntity
  8
CHAVE EXISTENTE
  6
ByLayer
100
AcDbHatch
 10
0.0
 20
0.0
 30
0.0
210
0.0
220
0.0
230
1.0
  2
SOLID
 70
1
 71
0
 91
2
 92
0
 93
1
 72
2
 10
3.252285782792
 20
0.0181005158739254
 40
0.1404852100206853
 50
0.0
 51
360.0
 73
1
 97
0
 92
0
 93
1
 72
2
 10
3.947207e-10
 20
-7.25322e-11
 40
0.1404852100206995
 50
0.0
 51
360.0
 73
1
 97
0
 75
0
 76
1
 98
0
  0
ENDBLK
  5
242
330
240
100
AcDbEntity
  8
0
100
AcDbBlockEnd
  0
BLOCK
  5
24D
330
24C
100
AcDbEntity
  8
0
100
AcDbBlockBegin
  2
ChaveFusivelExistente
 70
0
 10
0.0
 20
0.0
 30
0.0
  3
ChaveFusivelExistente
  1

  0
INSERT
  5
24F
330
24C
100
AcDbEntity
  8
CHAVE EXISTENTE
  6
ByLayer
100
AcDbBlockReference
  2
06A
 10
0.2048342364885141
 20
0.5166981869916665
 30
0.0
 43
0.0
 50
85.91019999999997
  0
ENDBLK
  5
24E
330
24C
100
AcDbEntity
  8
0
100
AcDbBlockEnd
  0
BLOCK
  5
252
330
251
100
AcDbEntity
  8
0
100
AcDbBlockBegin
  2
06A
 70
0
 10
0.0
 20
0.0
 30
0.0
  3
06A
  1

  0
LINE
  5
254
330
251
100
AcDbEntity
  8
CHAVE EXISTENTE
  6
ByLayer
100
AcDbLine
 10
1.4719035e-09
 20
-1.2300916e-09
 30
0.0
 11
2.996273581619107
 21
1.644611409343951
 31
0.0
  0
ARC
  5
255
330
251
100
AcDbEntity
  8
CHAVE EXISTENTE
  6
ByLayer
100
AcDbCircle
 10
2.365929073895244
 20
0.9771806895943198
 30
0.0
 40
0.9180402845644747
100
AcDbArc
 50
46.63688229677968
 51
193.4911265109099
  0
ARC
  5
256
330
251
100
AcDbEntity
  8
CHAVE EXISTENTE
  6
ByLayer
100
AcDbCircle
 10
0.7473448823526497
 20
0.3607774222169837
 30
0.0
 40
0.8298703040597397
100
AcDbArc
 50
205.768720641853
 51
28.99211937288818
  0
CIRCLE
  5
257
330
251
100
AcDbEntity
  8
CHAVE EXISTENTE
  6
ByLayer
100
AcDbCircle
 10
3.947207e-10
 20
-7.25322e-11
 30
0.0
 40
0.1404852100206995
  0
CIRCLE
  5
258
330
251
100
AcDbEntity
  8
CHAVE EXISTENTE
  6
ByLayer
100
AcDbCircle
 10
3.252285782791886
 20
0.0181005158738117
 30
0.0
 40
0.1404852100206853
  0
HATCH
  5
259
330
251
100
AcDbEntity
  8
CHAVE EXISTENTE
  6
ByLayer
100
AcDbHatch
 10
0.0
 20
0.0
 30
0.0
210
0.0
220
0.0
230
1.0
  2
SOLID
 70
1
 71
0
 91
2
 92
0
 93
1
 72
2
 10
3.252285782791886
 20
0.0181005158738117
 40
0.1404852100206853
 50
0.0
 51
360.0
 73
1
 97
0
 92
0
 93
1
 72
2
 10
3.947207e-10
 20
-7.25322e-11
 40
0.1404852100206995
 50
0.0
 51
360.0
 73
1
 97
0
 75
0
 76
1
 98
0
  0
ENDBLK
  5
253
330
251
100
AcDbEntity
  8
0
100
AcDbBlockEnd
  0
BLOCK
  5
25B
330
25A
100
AcDbEntity
  8
0
100
AcDbBlockBegin
  2
ChaveFacaProjetado
 70
0
 10
0.0
 20
0.0
 30
0.0
  3
ChaveFacaProjetado
  1

  0
INSERT
  5
25D
330
25A
100
AcDbEntity
  8
CHAVE A IMPLANTAR
  6
ByLayer
100
AcDbBlockReference
  2
07
 10
0.09525924712893355
 20
1.601820881172599
 30
0.0
 43
0.0
 50
89.60530000000004
  0
ENDBLK
  5
25C
330
25A
100
AcDbEntity
  8
0
100
AcDbBlockEnd
  0
BLOCK
  5
260
330
25F
100
AcDbEntity
  8
0
100
AcDbBlockBegin
  2
07
 70
0
 10
0.0
 20
0.0
 30
0.0
  3
07
  1

  0
CIRCLE
  5
262
330
25F
100
AcDbEntity
  8
CHAVE EXISTENTE
  6
ByLayer
100
AcDbCircle
 10
1.935541
 20
0.048011
 30
0.0
 40
2.372736117348215
  0
HATCH
  5
263
330
25F
100
AcDbEntity
  8
CHAVE EXISTENTE
  6
ByLayer
100
AcDbHatch
 10
0.0
 20
0.0
 30
0.0
210
0.0
220
0.0
230
1.0
  2
SOLID
 70
1
 71
0
 91
2
 92
0
 93
1
 72
2
 10
3.252285781316459
 20
0.0181005168706179
 40
0.1404852100206853
 50
0.0
 51
360.0
 73
1
 97
0
 92
0
 93
1
 72
2
 10
-1.0477379e-09
 20
1.8626451e-09
 40
0.1404852100206995
 50
0.0
 51
360.0
 73
1
 97
0
 75
0
 76
1
 98
0
  0
CIRCLE
  5
264
330
25F
100
AcDbEntity
  8
CHAVE EXISTENTE
  6
ByLayer
100
AcDbCircle
 10
3.252286
 20
0.018101
 30
0.0
 40
0.1404852100206853
  0
CIRCLE
  5
265
330
25F
100
AcDbEntity
  8
CHAVE EXISTENTE
  6
ByLayer
100
AcDbCircle
 10
0.0
 20
0.0
 30
0.0
 40
0.1404852100206995
  0
LINE
  5
266
330
25F
100
AcDbEntity
  8
CHAVE EXISTENTE
  6
ByLayer
100
AcDbLine
 10
0.0
 20
0.0
 30
0.0
 11
2.996274
 21
1.644611
 31
0.0
  0
ENDBLK
  5
261
330
25F
100
AcDbEntity
  8
0
100
AcDbBlockEnd
  0
BLOCK
  5
268
330
267
100
AcDbEntity
  8
0
100
AcDbBlockBegin
  2
ChaveFacaExistente
 70
0
 10
0.0
 20
0.0
 30
0.0
  3
ChaveFacaExistente
  1

  0
INSERT
  5
26A
330
267
100
AcDbEntity
  8
CHAVE EXISTENTE
  6
ByLayer
100
AcDbBlockReference
  2
07A
 10
-0.1916080476036557
 20
1.595858554786031
 30
0.0
 43
0.0
 50
89.2353
  0
ENDBLK
  5
269
330
267
100
AcDbEntity
  8
0
100
AcDbBlockEnd
  0
BLOCK
  5
26D
330
26C
100
AcDbEntity
  8
0
100
AcDbBlockBegin
  2
07A
 70
0
 10
0.0
 20
0.0
 30
0.0
  3
07A
  1

  0
LINE
  5
26F
330
26C
100
AcDbEntity
  8
CHAVE EXISTENTE
  6
ByLayer
100
AcDbLine
 10
0.0
 20
0.0
 30
0.0
 11
2.996274
 21
1.644611
 31
0.0
  0
CIRCLE
  5
270
330
26C
100
AcDbEntity
  8
CHAVE EXISTENTE
  6
ByLayer
100
AcDbCircle
 10
0.0
 20
0.0
 30
0.0
 40
0.1404852100206995
  0
CIRCLE
  5
271
330
26C
100
AcDbEntity
  8
CHAVE EXISTENTE
  6
ByLayer
100
AcDbCircle
 10
3.252286
 20
0.018101
 30
0.0
 40
0.1404852100206853
  0
HATCH
  5
272
330
26C
100
AcDbEntity
  8
CHAVE EXISTENTE
  6
ByLayer
100
AcDbHatch
 10
0.0
 20
0.0
 30
0.0
210
0.0
220
0.0
230
1.0
  2
SOLID
 70
1
 71
0
 91
2
 92
0
 93
1
 72
2
 10
3.252285781319983
 20
0.0181005171039033
 40
0.1404852100206853
 50
0.0
 51
360.0
 73
1
 97
0
 92
0
 93
1
 72
2
 10
-1.0771828e-09
 20
1.1575594e-09
 40
0.1404852100206995
 50
0.0
 51
360.0
 73
1
 97
0
 75
0
 76
1
 98
0
  0
ENDBLK
  5
26E
330
26C
100
AcDbEntity
  8
0
100
AcDbBlockEnd
  0
BLOCK
  5
274
330
273
100
AcDbEntity
  8
0
100
AcDbBlockBegin
  2
ReligadorDeLinhaProjetado
 70
0
 10
0.0
 20
0.0
 30
0.0
  3
ReligadorDeLinhaProjetado
  1

  0
LINE
  5
276
330
273
100
AcDbEntity
  8
EQUIPAMENTO
  6
ByLayer
100
AcDbLine
 10
1.548239263860836
 20
2.744260992556065
 30
0.0
 11
1.55076534595932
 21
0.3442623219503389
 31
0.0
  0
LINE
  5
277
330
273
100
AcDbEntity
  8
EQUIPAMENTO
  6
ByLayer
100
AcDbLine
 10
-0.8492333246464057
 20
0.3417362398518549
 30
0.0
 11
-0.8517594067448897
 21
2.741734910457581
 31
0.0
  0
LINE
  5
278
330
273
100
AcDbEntity
  8
EQUIPAMENTO
  6
ByLayer
100
AcDbLine
 10
1.55076534595932
 20
0.3442623219503389
 30
0.0
 11
-0.8492333246464057
 21
0.3417362398518549
 31
0.0
  0
LINE
  5
279
330
273
100
AcDbEntity
  8
EQUIPAMENTO
  6
ByLayer
100
AcDbLine
 10
1.548239263860836
 20
2.744260992556065
 30
0.0
 11
-0.8517594067448897
 21
2.741734910457581
 31
0.0
  0
LINE
  5
27A
330
273
100
AcDbEntity
  8
EQUIPAMENTO
  6
ByLayer
100
AcDbLine
 10
-0.8492333246464057
 20
0.3417362398518549
 30
0.0
 11
0.3495029696072152
 21
1.54299861620396
 31
0.0
  0
LINE
  5
27B
330
273
100
AcDbEntity
  8
EQUIPAMENTO
  6
ByLayer
100
AcDbLine
 10
-0.8517594067448897
 20
2.741734910457581
 30
0.0
 11
-0.8492333246464057
 21
0.3417362398518549
 31
0.0
  0
LINE
  5
27C
330
273
100
AcDbEntity
  8
EQUIPAMENTO
  6
ByLayer
100
AcDbLine
 10
1.548239263860836
 20
2.744260992556065
 30
0.0
 11
0.3495029696072152
 21
1.54299861620396
 31
0.0
  0
LINE
  5
27D
330
273
100
AcDbEntity
  8
EQUIPAMENTO
  6
ByLayer
100
AcDbLine
 10
1.55076534595932
 20
0.3442623219503389
 30
0.0
 11
1.548239263860836
 21
2.744260992556065
 31
0.0
  0
LINE
  5
27E
330
273
100
AcDbEntity
  8
EQUIPAMENTO
  6
ByLayer
100
AcDbLine
 10
-0.6455182925324721
 20
2.653753176032197
 30
0.0
 11
-0.6448001071829594
 21
1.971414353731376
 31
0.0
  0
LINE
  5
27F
330
273
100
AcDbEntity
  8
EQUIPAMENTO
  6
ByLayer
100
AcDbLine
 10
-0.6129911178281588
 20
2.621294401300574
 30
0.0
 11
-0.6123413318129565
 21
2.003940921912275
 31
0.0
  0
LINE
  5
280
330
273
100
AcDbEntity
  8
EQUIPAMENTO
  6
ByLayer
100
AcDbLine
 10
-0.5805338594050511
 20
2.653821574408923
 30
0.0
 11
-0.57981567405551
 21
1.971482752108088
 31
0.0
  0
LINE
  5
281
330
273
100
AcDbEntity
  8
EQUIPAMENTO
  6
ByLayer
100
AcDbLine
 10
-0.7429949422236461
 20
2.653650578467108
 30
0.0
 11
-0.3530868271505199
 21
2.654060970323414
 31
0.0
  0
LINE
  5
282
330
273
100
AcDbEntity
  8
EQUIPAMENTO
  6
ByLayer
100
AcDbLine
 10
-0.3530868271505199
 20
2.654060970323414
 30
0.0
 11
-0.2555759774730291
 21
2.621670593170521
 31
0.0
  0
LINE
  5
283
330
273
100
AcDbEntity
  8
EQUIPAMENTO
  6
ByLayer
100
AcDbLine
 10
-0.2555759774730291
 20
2.621670593170521
 30
0.0
 11
-0.2230488043646801
 21
2.589213334747399
 31
0.0
  0
LINE
  5
284
330
273
100
AcDbEntity
  8
EQUIPAMENTO
  6
ByLayer
100
AcDbLine
 10
-0.2230488043646801
 20
2.589213334747399
 30
0.0
 11
-0.1904889467805049
 21
2.524262341856101
 31
0.0
  0
LINE
  5
285
330
273
100
AcDbEntity
  8
EQUIPAMENTO
  6
ByLayer
100
AcDbLine
 10
-0.1904889467805049
 20
2.524262341856101
 30
0.0
 11
-0.1904205484037789
 21
2.459277908728666
 31
0.0
  0
LINE
  5
286
330
273
100
AcDbEntity
  8
EQUIPAMENTO
  6
ByLayer
100
AcDbLine
 10
-0.1904205484037789
 20
2.459277908728666
 30
0.0
 11
-0.2228436084365342
 21
2.39425927721085
 31
0.0
  0
LINE
  5
287
330
273
100
AcDbEntity
  8
EQUIPAMENTO
  6
ByLayer
100
AcDbLine
 10
-0.2228436084365342
 20
2.39425927721085
 30
0.0
 11
-0.2553023839661535
 21
2.361732860660794
 31
0.0
  0
LINE
  5
288
330
273
100
AcDbEntity
  8
EQUIPAMENTO
  6
ByLayer
100
AcDbLine
 10
-0.2553023839661535
 20
2.361732860660794
 30
0.0
 11
-0.352744833670954
 21
2.329137288377737
 31
0.0
  0
LINE
  5
289
330
273
100
AcDbEntity
  8
EQUIPAMENTO
  6
ByLayer
100
AcDbLine
 10
-0.352744833670954
 20
2.329137288377737
 30
0.0
 11
-0.5801918659254568
 21
2.328897892463246
 31
0.0
  0
LINE
  5
28A
330
273
100
AcDbEntity
  8
EQUIPAMENTO
  6
ByLayer
100
AcDbLine
 10
-0.2555417790826482
 20
2.589179134761054
 30
0.0
 11
-0.2229804051899862
 21
2.52422814346572
 31
0.0
  0
LINE
  5
28B
330
273
100
AcDbEntity
  8
EQUIPAMENTO
  6
ByLayer
100
AcDbLine
 10
-0.2229804051899862
 20
2.52422814346572
 30
0.0
 11
-0.2229120068132602
 21
2.459243710338285
 31
0.0
  0
LINE
  5
28C
330
273
100
AcDbEntity
  8
EQUIPAMENTO
  6
ByLayer
100
AcDbLine
 10
-0.2229120068132602
 20
2.459243710338285
 30
0.0
 11
-0.2553365831545023
 21
2.394225077224505
 31
0.0
  0
LINE
  5
28D
330
273
100
AcDbEntity
  8
EQUIPAMENTO
  6
ByLayer
100
AcDbLine
 10
-0.3530868271505199
 20
2.654060970323414
 30
0.0
 11
-0.2880689521909972
 21
2.621636393184176
 31
0.0
  0
LINE
  5
28E
330
273
100
AcDbEntity
  8
EQUIPAMENTO
  6
ByLayer
100
AcDbLine
 10
-0.2880689521909972
 20
2.621636393184176
 30
0.0
 11
-0.2555075798942994
 21
2.556686918197343
 31
0.0
  0
LINE
  5
28F
330
273
100
AcDbEntity
  8
EQUIPAMENTO
  6
ByLayer
100
AcDbLine
 10
-0.2555075798942994
 20
2.556686918197343
 30
0.0
 11
-0.2553707815448831
 21
2.426716535633972
 31
0.0
  0
LINE
  5
290
330
273
100
AcDbEntity
  8
EQUIPAMENTO
  6
ByLayer
100
AcDbLine
 10
-0.2553707815448831
 20
2.426716535633972
 30
0.0
 11
-0.2877953586841215
 21
2.361698660674449
 31
0.0
  0
LINE
  5
291
330
273
100
AcDbEntity
  8
EQUIPAMENTO
  6
ByLayer
100
AcDbLine
 10
-0.2877953586841215
 20
2.361698660674449
 30
0.0
 11
-0.352744833670954
 21
2.329137288377737
 31
0.0
  0
LINE
  5
292
330
273
100
AcDbEntity
  8
EQUIPAMENTO
  6
ByLayer
100
AcDbLine
 10
-0.450222241516343
 20
2.329034690014666
 30
0.0
 11
-0.3852036099985412
 21
2.296611629981911
 31
0.0
  0
LINE
  5
293
330
273
100
AcDbEntity
  8
EQUIPAMENTO
  6
ByLayer
100
AcDbLine
 10
-0.3852036099985412
 20
2.296611629981911
 30
0.0
 11
-0.3526422361058792
 21
2.231660638686577
 31
0.0
  0
LINE
  5
294
330
273
100
AcDbEntity
  8
EQUIPAMENTO
  6
ByLayer
100
AcDbLine
 10
-0.3526422361058792
 20
2.231660638686577
 30
0.0
 11
-0.2874533653641436
 21
2.036775130359601
 31
0.0
  0
LINE
  5
295
330
273
100
AcDbEntity
  8
EQUIPAMENTO
  6
ByLayer
100
AcDbLine
 10
-0.2874533653641436
 20
2.036775130359601
 30
0.0
 11
-0.2548919921098332
 21
1.971824745587668
 31
0.0
  0
LINE
  5
296
330
273
100
AcDbEntity
  8
EQUIPAMENTO
  6
ByLayer
100
AcDbLine
 10
-0.2548919921098332
 20
1.971824745587668
 30
0.0
 11
-0.1899075589824122
 21
1.971893143964394
 31
0.0
  0
LINE
  5
297
330
273
100
AcDbEntity
  8
EQUIPAMENTO
  6
ByLayer
100
AcDbLine
 10
-0.1899075589824122
 20
1.971893143964394
 30
0.0
 11
-0.157482982800758
 21
2.036911928709017
 31
0.0
  0
LINE
  5
298
330
273
100
AcDbEntity
  8
EQUIPAMENTO
  6
ByLayer
100
AcDbLine
 10
-0.157482982800758
 20
2.036911928709017
 30
0.0
 11
-0.157551381815864
 21
2.101896968359853
 31
0.0
  0
LINE
  5
299
330
273
100
AcDbEntity
  8
EQUIPAMENTO
  6
ByLayer
100
AcDbLine
 10
-0.2875217643792496
 20
2.101760170010436
 30
0.0
 11
-0.2549603906461755
 21
2.036809330345946
 31
0.0
  0
LINE
  5
29A
330
273
100
AcDbEntity
  8
EQUIPAMENTO
  6
ByLayer
100
AcDbLine
 10
-0.2549603906461755
 20
2.036809330345946
 30
0.0
 11
-0.2224332167398302
 21
2.004351313768566
 31
0.0
  0
LINE
  5
29B
330
273
100
AcDbEntity
  8
EQUIPAMENTO
  6
ByLayer
100
AcDbLine
 10
-0.2224332167398302
 20
2.004351313768566
 30
0.0
 11
-0.1899417583303773
 21
2.004385512158947
 31
0.0
  0
LINE
  5
29C
330
273
100
AcDbEntity
  8
EQUIPAMENTO
  6
ByLayer
100
AcDbLine
 10
-0.3852036099985412
 20
2.296611629981911
 30
0.0
 11
-0.352676435294228
 21
2.264152855250288
 31
0.0
  0
LINE
  5
29D
330
273
100
AcDbEntity
  8
EQUIPAMENTO
  6
ByLayer
100
AcDbLine
 10
-0.352676435294228
 20
2.264152855250288
 30
0.0
 11
-0.2549945896749364
 21
2.069301395278814
 31
0.0
  0
LINE
  5
29E
330
273
100
AcDbEntity
  8
EQUIPAMENTO
  6
ByLayer
100
AcDbLine
 10
-0.2549945896749364
 20
2.069301395278814
 30
0.0
 11
-0.2224674159282074
 21
2.036843530332291
 31
0.0
  0
LINE
  5
29F
330
273
100
AcDbEntity
  8
EQUIPAMENTO
  6
ByLayer
100
AcDbLine
 10
-0.2224674159282074
 20
2.036843530332291
 30
0.0
 11
-0.1899759575187261
 21
2.036877728722672
 31
0.0
  0
LINE
  5
2A0
330
273
100
AcDbEntity
  8
EQUIPAMENTO
  6
ByLayer
100
AcDbLine
 10
-0.1899759575187261
 20
2.036877728722672
 30
0.0
 11
-0.1575171818295189
 21
2.069403993641885
 31
0.0
  0
LINE
  5
2A1
330
273
100
AcDbEntity
  8
EQUIPAMENTO
  6
ByLayer
100
AcDbLine
 10
-0.7105025740290785
 20
2.653684777815073
 30
0.0
 11
-0.6454840925461269
 21
2.621260201314229
 31
0.0
  0
LINE
  5
2A2
330
273
100
AcDbEntity
  8
EQUIPAMENTO
  6
ByLayer
100
AcDbLine
 10
-0.6780103574653538
 20
2.653718977003436
 30
0.0
 11
-0.645449894155746
 21
2.588768742904762
 31
0.0
  0
LINE
  5
2A3
330
273
100
AcDbEntity
  8
EQUIPAMENTO
  6
ByLayer
100
AcDbLine
 10
-0.548040884687083
 20
2.653855774395268
 30
0.0
 11
-0.5804654610283251
 21
2.588837141281488
 31
0.0
  0
LINE
  5
2A4
330
273
100
AcDbEntity
  8
EQUIPAMENTO
  6
ByLayer
100
AcDbLine
 10
-0.5155479099691149
 20
2.653889974381613
 30
0.0
 11
-0.580499659418706
 21
2.621328599690955
 31
0.0
  0
LINE
  5
2A5
330
273
100
AcDbEntity
  8
EQUIPAMENTO
  6
ByLayer
100
AcDbLine
 10
-0.6448343065309246
 20
2.003906721925929
 30
0.0
 11
-0.7097843886795374
 21
1.971345955514238
 31
0.0
  0
LINE
  5
2A6
330
273
100
AcDbEntity
  8
EQUIPAMENTO
  6
ByLayer
100
AcDbLine
 10
-0.6448685057192733
 20
2.036398938489654
 30
0.0
 11
-0.6772921721158127
 21
1.971380154702601
 31
0.0
  0
LINE
  5
2A7
330
273
100
AcDbEntity
  8
EQUIPAMENTO
  6
ByLayer
100
AcDbLine
 10
-0.579884072591824
 20
2.036467336866366
 30
0.0
 11
-0.547322699337542
 21
1.971516952094433
 31
0.0
  0
LINE
  5
2A8
330
273
100
AcDbEntity
  8
EQUIPAMENTO
  6
ByLayer
100
AcDbLine
 10
-0.5798498734034752
 20
2.003975120302655
 30
0.0
 11
-0.5148297246195739
 21
1.971551152080778
 31
0.0
  0
LINE
  5
2A9
330
273
100
AcDbEntity
  8
0
  6
ByLayer
100
AcDbLine
 10
-0.7104471570214329
 20
1.970674976190194
 30
0.0
 11
-0.5196556943584333
 21
1.968164562207786
 31
0.0
  0
ENDBLK
  5
275
330
273
100
AcDbEntity
  8
0
100
AcDbBlockEnd
  0
BLOCK
  5
2AC
330
2AB
100
AcDbEntity
  8
0
100
AcDbBlockBegin
  2
ReligadorDeLinhaExistente
 70
0
 10
0.0
 20
0.0
 30
0.0
  3
ReligadorDeLinhaExistente
  1

  0
LINE
  5
2AE
330
2AB
100
AcDbEntity
  8
EQUIPAMENTO
  6
ByLayer
100
AcDbLine
 10
1.422871591382628
 20
3.70533226126187
 30
0.0
 11
1.425397673481112
 21
1.30533359065615
 31
0.0
  0
LINE
  5
2AF
330
2AB
100
AcDbEntity
  8
EQUIPAMENTO
  6
ByLayer
100
AcDbLine
 10
-0.9746009971246081
 20
1.302807508557666
 30
0.0
 11
-0.9771270792230922
 21
3.702806179163386
 31
0.0
  0
LINE
  5
2B0
330
2AB
100
AcDbEntity
  8
EQUIPAMENTO
  6
ByLayer
100
AcDbLine
 10
1.425397673481112
 20
1.30533359065615
 30
0.0
 11
-0.9746009971246081
 21
1.302807508557666
 31
0.0
  0
LINE
  5
2B1
330
2AB
100
AcDbEntity
  8
EQUIPAMENTO
  6
ByLayer
100
AcDbLine
 10
1.422871591382628
 20
3.70533226126187
 30
0.0
 11
-0.9771270792230922
 21
3.702806179163386
 31
0.0
  0
LINE
  5
2B2
330
2AB
100
AcDbEntity
  8
EQUIPAMENTO
  6
ByLayer
100
AcDbLine
 10
-0.9746009971246081
 20
1.302807508557666
 30
0.0
 11
0.2241352971290098
 21
2.504069884909768
 31
0.0
  0
LINE
  5
2B3
330
2AB
100
AcDbEntity
  8
EQUIPAMENTO
  6
ByLayer
100
AcDbLine
 10
-0.9771270792230922
 20
3.702806179163386
 30
0.0
 11
-0.9746009971246081
 21
1.302807508557666
 31
0.0
  0
LINE
  5
2B4
330
2AB
100
AcDbEntity
  8
EQUIPAMENTO
  6
ByLayer
100
AcDbLine
 10
1.422871591382628
 20
3.70533226126187
 30
0.0
 11
0.2241352971290098
 21
2.504069884909768
 31
0.0
  0
LINE
  5
2B5
330
2AB
100
AcDbEntity
  8
EQUIPAMENTO
  6
ByLayer
100
AcDbLine
 10
1.425397673481112
 20
1.30533359065615
 30
0.0
 11
1.422871591382628
 21
3.70533226126187
 31
0.0
  0
LINE
  5
2B6
330
2AB
100
AcDbEntity
  8
EQUIPAMENTO
  6
ByLayer
100
AcDbLine
 10
-0.7676147953148167
 20
3.529461549218527
 30
0.0
 11
-0.7668966099652899
 21
2.8471227269177
 31
0.0
  0
LINE
  5
2B7
330
2AB
100
AcDbEntity
  8
EQUIPAMENTO
  6
ByLayer
100
AcDbLine
 10
-0.7350876206105106
 20
3.497002774486906
 30
0.0
 11
-0.7344378345952833
 21
2.879649295098613
 31
0.0
  0
LINE
  5
2B8
330
2AB
100
AcDbEntity
  8
EQUIPAMENTO
  6
ByLayer
100
AcDbLine
 10
-0.7026303621873851
 20
3.529529947595249
 30
0.0
 11
-0.7019121768378547
 21
2.847191125294422
 31
0.0
  0
LINE
  5
2B9
330
2AB
100
AcDbEntity
  8
EQUIPAMENTO
  6
ByLayer
100
AcDbLine
 10
-0.865091445005973
 20
3.529358951653445
 30
0.0
 11
-0.4751833299328609
 21
3.529769343509741
 31
0.0
  0
LINE
  5
2BA
330
2AB
100
AcDbEntity
  8
EQUIPAMENTO
  6
ByLayer
100
AcDbLine
 10
-0.4751833299328609
 20
3.529769343509741
 30
0.0
 11
-0.3776724802553595
 21
3.497378966356858
 31
0.0
  0
LINE
  5
2BB
330
2AB
100
AcDbEntity
  8
EQUIPAMENTO
  6
ByLayer
100
AcDbLine
 10
-0.3776724802553595
 20
3.497378966356858
 30
0.0
 11
-0.3451453071470141
 21
3.464921707933732
 31
0.0
  0
LINE
  5
2BC
330
2AB
100
AcDbEntity
  8
EQUIPAMENTO
  6
ByLayer
100
AcDbLine
 10
-0.3451453071470141
 20
3.464921707933732
 30
0.0
 11
-0.3125854495628388
 21
3.399970715042425
 31
0.0
  0
LINE
  5
2BD
330
2AB
100
AcDbEntity
  8
EQUIPAMENTO
  6
ByLayer
100
AcDbLine
 10
-0.3125854495628388
 20
3.399970715042425
 30
0.0
 11
-0.3125170511861164
 21
3.334986281914988
 31
0.0
  0
LINE
  5
2BE
330
2AB
100
AcDbEntity
  8
EQUIPAMENTO
  6
ByLayer
100
AcDbLine
 10
-0.3125170511861164
 20
3.334986281914988
 30
0.0
 11
-0.3449401112188681
 21
3.269967650397175
 31
0.0
  0
LINE
  5
2BF
330
2AB
100
AcDbEntity
  8
EQUIPAMENTO
  6
ByLayer
100
AcDbLine
 10
-0.3449401112188681
 20
3.269967650397175
 30
0.0
 11
-0.3773988867484732
 21
3.237441233847112
 31
0.0
  0
LINE
  5
2C0
330
2AB
100
AcDbEntity
  8
EQUIPAMENTO
  6
ByLayer
100
AcDbLine
 10
-0.3773988867484732
 20
3.237441233847112
 30
0.0
 11
-0.4748413364532844
 21
3.204845661564064
 31
0.0
  0
LINE
  5
2C1
330
2AB
100
AcDbEntity
  8
EQUIPAMENTO
  6
ByLayer
100
AcDbLine
 10
-0.4748413364532844
 20
3.204845661564064
 30
0.0
 11
-0.7022883687078085
 21
3.204606265649571
 31
0.0
  0
LINE
  5
2C2
330
2AB
100
AcDbEntity
  8
EQUIPAMENTO
  6
ByLayer
100
AcDbLine
 10
-0.3776382818649822
 20
3.464887507947387
 30
0.0
 11
-0.3450769079723095
 21
3.399936516652048
 31
0.0
  0
LINE
  5
2C3
330
2AB
100
AcDbEntity
  8
EQUIPAMENTO
  6
ByLayer
100
AcDbLine
 10
-0.3450769079723095
 20
3.399936516652048
 30
0.0
 11
-0.345008509595587
 21
3.334952083524611
 31
0.0
  0
LINE
  5
2C4
330
2AB
100
AcDbEntity
  8
EQUIPAMENTO
  6
ByLayer
100
AcDbLine
 10
-0.345008509595587
 20
3.334952083524611
 30
0.0
 11
-0.3774330859368327
 21
3.26993345041083
 31
0.0
  0
LINE
  5
2C5
330
2AB
100
AcDbEntity
  8
EQUIPAMENTO
  6
ByLayer
100
AcDbLine
 10
-0.4751833299328609
 20
3.529769343509741
 30
0.0
 11
-0.4101654549733276
 21
3.497344766370514
 31
0.0
  0
LINE
  5
2C6
330
2AB
100
AcDbEntity
  8
EQUIPAMENTO
  6
ByLayer
100
AcDbLine
 10
-0.4101654549733276
 20
3.497344766370514
 30
0.0
 11
-0.3776040826766227
 21
3.432395291383669
 31
0.0
  0
LINE
  5
2C7
330
2AB
100
AcDbEntity
  8
EQUIPAMENTO
  6
ByLayer
100
AcDbLine
 10
-0.3776040826766227
 20
3.432395291383669
 30
0.0
 11
-0.37746728432721
 21
3.302424908820301
 31
0.0
  0
LINE
  5
2C8
330
2AB
100
AcDbEntity
  8
EQUIPAMENTO
  6
ByLayer
100
AcDbLine
 10
-0.37746728432721
 20
3.302424908820301
 30
0.0
 11
-0.4098918614664413
 21
3.237407033860767
 31
0.0
  0
LINE
  5
2C9
330
2AB
100
AcDbEntity
  8
EQUIPAMENTO
  6
ByLayer
100
AcDbLine
 10
-0.4098918614664413
 20
3.237407033860767
 30
0.0
 11
-0.4748413364532844
 21
3.204845661564064
 31
0.0
  0
LINE
  5
2CA
330
2AB
100
AcDbEntity
  8
EQUIPAMENTO
  6
ByLayer
100
AcDbLine
 10
-0.5723187442986877
 20
3.204743063200997
 30
0.0
 11
-0.5073001127808716
 21
3.172320003168248
 31
0.0
  0
LINE
  5
2CB
330
2AB
100
AcDbEntity
  8
EQUIPAMENTO
  6
ByLayer
100
AcDbLine
 10
-0.5073001127808716
 20
3.172320003168248
 30
0.0
 11
-0.4747387388882025
 21
3.107369011872909
 31
0.0
  0
LINE
  5
2CC
330
2AB
100
AcDbEntity
  8
EQUIPAMENTO
  6
ByLayer
100
AcDbLine
 10
-0.4747387388882025
 20
3.107369011872909
 30
0.0
 11
-0.4095498681464633
 21
2.912483503545939
 31
0.0
  0
LINE
  5
2CD
330
2AB
100
AcDbEntity
  8
EQUIPAMENTO
  6
ByLayer
100
AcDbLine
 10
-0.4095498681464633
 20
2.912483503545939
 30
0.0
 11
-0.3769884948921778
 21
2.847533118773997
 31
0.0
  0
LINE
  5
2CE
330
2AB
100
AcDbEntity
  8
EQUIPAMENTO
  6
ByLayer
100
AcDbLine
 10
-0.3769884948921778
 20
2.847533118773997
 30
0.0
 11
-0.312004061764739
 21
2.847601517150719
 31
0.0
  0
LINE
  5
2CF
330
2AB
100
AcDbEntity
  8
EQUIPAMENTO
  6
ByLayer
100
AcDbLine
 10
-0.312004061764739
 20
2.847601517150719
 30
0.0
 11
-0.279579485583092
 21
2.912620301895349
 31
0.0
  0
LINE
  5
2D0
330
2AB
100
AcDbEntity
  8
EQUIPAMENTO
  6
ByLayer
100
AcDbLine
 10
-0.279579485583092
 20
2.912620301895349
 30
0.0
 11
-0.2796478845982016
 21
2.977605341546184
 31
0.0
  0
LINE
  5
2D1
330
2AB
100
AcDbEntity
  8
EQUIPAMENTO
  6
ByLayer
100
AcDbLine
 10
-0.4096182671615693
 20
2.977468543196773
 30
0.0
 11
-0.3770568934284952
 21
2.912517703532283
 31
0.0
  0
LINE
  5
2D2
330
2AB
100
AcDbEntity
  8
EQUIPAMENTO
  6
ByLayer
100
AcDbLine
 10
-0.3770568934284952
 20
2.912517703532283
 30
0.0
 11
-0.3445297195221677
 21
2.88005968695491
 31
0.0
  0
LINE
  5
2D3
330
2AB
100
AcDbEntity
  8
EQUIPAMENTO
  6
ByLayer
100
AcDbLine
 10
-0.3445297195221677
 20
2.88005968695491
 30
0.0
 11
-0.3120382611126971
 21
2.880093885345286
 31
0.0
  0
LINE
  5
2D4
330
2AB
100
AcDbEntity
  8
EQUIPAMENTO
  6
ByLayer
100
AcDbLine
 10
-0.5073001127808716
 20
3.172320003168248
 30
0.0
 11
-0.474772938076562
 21
3.139861228436627
 31
0.0
  0
LINE
  5
2D5
330
2AB
100
AcDbEntity
  8
EQUIPAMENTO
  6
ByLayer
100
AcDbLine
 10
-0.474772938076562
 20
3.139861228436627
 30
0.0
 11
-0.3770910924572597
 21
2.945009768465152
 31
0.0
  0
LINE
  5
2D6
330
2AB
100
AcDbEntity
  8
EQUIPAMENTO
  6
ByLayer
100
AcDbLine
 10
-0.3770910924572597
 20
2.945009768465152
 30
0.0
 11
-0.3445639187105272
 21
2.912551903518628
 31
0.0
  0
LINE
  5
2D7
330
2AB
100
AcDbEntity
  8
EQUIPAMENTO
  6
ByLayer
100
AcDbLine
 10
-0.3445639187105272
 20
2.912551903518628
 30
0.0
 11
-0.3120724603010565
 21
2.912586101909005
 31
0.0
  0
LINE
  5
2D8
330
2AB
100
AcDbEntity
  8
EQUIPAMENTO
  6
ByLayer
100
AcDbLine
 10
-0.3120724603010565
 20
2.912586101909005
 30
0.0
 11
-0.2796136846118564
 21
2.945112366828218
 31
0.0
  0
LINE
  5
2D9
330
2AB
100
AcDbEntity
  8
EQUIPAMENTO
  6
ByLayer
100
AcDbLine
 10
-0.8643732596564462
 20
2.847020129352618
 30
0.0
 11
-0.6044347689924514
 21
2.847293723657488
 31
0.0
  0
LINE
  5
2DA
330
2AB
100
AcDbEntity
  8
EQUIPAMENTO
  6
ByLayer
100
AcDbLine
 10
-0.8325990768114053
 20
3.529393151001402
 30
0.0
 11
-0.7675805953284751
 21
3.496968574500562
 31
0.0
  0
LINE
  5
2DB
330
2AB
100
AcDbEntity
  8
EQUIPAMENTO
  6
ByLayer
100
AcDbLine
 10
-0.8001068602476877
 20
3.529427350189763
 30
0.0
 11
-0.7675463969380978
 21
3.46447711609109
 31
0.0
  0
LINE
  5
2DC
330
2AB
100
AcDbEntity
  8
EQUIPAMENTO
  6
ByLayer
100
AcDbLine
 10
-0.670137387469417
 20
3.529564147581593
 30
0.0
 11
-0.7025619638106626
 21
3.464545514467812
 31
0.0
  0
LINE
  5
2DD
330
2AB
100
AcDbEntity
  8
EQUIPAMENTO
  6
ByLayer
100
AcDbLine
 10
-0.6376444127514489
 20
3.529598347567938
 30
0.0
 11
-0.7025961622010399
 21
3.497036972877283
 31
0.0
  0
LINE
  5
2DE
330
2AB
100
AcDbEntity
  8
EQUIPAMENTO
  6
ByLayer
100
AcDbLine
 10
-0.7669308093132479
 20
2.879615095112268
 30
0.0
 11
-0.8318808914618785
 21
2.847054328700576
 31
0.0
  0
LINE
  5
2DF
330
2AB
100
AcDbEntity
  8
EQUIPAMENTO
  6
ByLayer
100
AcDbLine
 10
-0.7669650085016073
 20
2.912107311675986
 30
0.0
 11
-0.7993886748981609
 21
2.847088527888936
 31
0.0
  0
LINE
  5
2E0
330
2AB
100
AcDbEntity
  8
EQUIPAMENTO
  6
ByLayer
100
AcDbLine
 10
-0.7019805753741757
 20
2.912175710052708
 30
0.0
 11
-0.6694192021198901
 21
2.847225325280767
 31
0.0
  0
LINE
  5
2E1
330
2AB
100
AcDbEntity
  8
EQUIPAMENTO
  6
ByLayer
100
AcDbLine
 10
-0.7019463761858127
 20
2.87968349348899
 30
0.0
 11
-0.6369262274019221
 21
2.847259525267111
 31
0.0
  0
ENDBLK
  5
2AD
330
2AB
100
AcDbEntity
  8
0
100
AcDbBlockEnd
  0
BLOCK
  5
2E3
330
2E2
100
AcDbEntity
  8
0
100
AcDbBlockBegin
  2
VoltageRegulatorProjetado
 70
0
 10
0.0
 20
0.0
 30
0.0
  3
VoltageRegulatorProjetado
  1

  0
INSERT
  5
2E5
330
2E2
100
AcDbEntity
  8
REGULADOR
  6
ByLayer
100
AcDbBlockReference
  2
regu
 10
0.2094700666642307
 20
5.372167935843161
 30
0.0
 43
0.0
 50
231.5535774954806
  0
ENDBLK
  5
2E4
330
2E2
100
AcDbEntity
  8
0
100
AcDbBlockEnd
  0
BLOCK
  5
2E8
330
2E7
100
AcDbEntity
  8
0
100
AcDbBlockBegin
  2
regu
 70
0
 10
0.0
 20
0.0
 30
0.0
  3
regu
  1

  0
LWPOLYLINE
  5
2EA
330
2E7
100
AcDbEntity
  8
REGULADOR
  6
ByLayer
100
AcDbPolyline
 90
3
 70
0
 10
-3.214353782313116
 20
-2.597966978498676
 10
2.663356764788625
 20
2.152629547175305
 10
3.037681752610148
 20
2.45771898472071
  0
LWPOLYLINE
  5
2EB
330
2E7
100
AcDbEntity
  8
REGULADOR
  6
ByLayer
100
AcDbPolyline
 90
13
 70
0
 10
2.561451791872706
 20
1.299415435853515
 10
2.561451791872706
 20
0.9794154358538071
 42
-0.9914518798541939
 10
1.270367874757619
 20
0.979415435853808
 10
1.270367874757732
 20
1.299415435853515
 10
1.270367874757619
 20
0.9794154358538077
 42
-0.9999349885235223
 10
-0.009632109007077005
 20
0.9793322071658952
 10
-0.0096321252424669
 20
2.259415435853723
 10
-0.009704711763594775
 20
0.9792917549698337
 42
-1.000090147896748
 10
-1.289632125242667
 20
0.9794154358538075
 10
-1.28963212524278
 20
1.299415435853515
 10
-1.28963212524278
 20
0.9794154358538077
 42
-0.9914518798542692
 10
-2.580716042357526
 20
0.979415435853808
 10
-2.580716042357641
 20
1.299415435853515
  0
LWPOLYLINE
  5
2EC
330
2E7
100
AcDbEntity
  8
REGULADOR
  6
ByLayer
100
AcDbPolyline
 90
13
 70
0
 10
2.561451791872706
 20
-1.180886129856789
 10
2.561451791872706
 20
-0.860886129857081
 42
0.9914518798541944
 10
1.270367874757619
 20
-0.8608861298570809
 10
1.270367874757732
 20
-1.180886129856789
 10
1.270367874757619
 20
-0.8608861298570808
 42
0.9999349885235223
 10
-0.009632109007077005
 20
-0.8608029011691677
 10
-0.0096321252424669
 20
-2.140886129856995
 10
-0.009704711763594775
 20
-0.8607624489731072
 42
1.000090147896748
 10
-1.289632125242667
 20
-0.8608861298570806
 10
-1.28963212524278
 20
-1.180886129856789
 10
-1.28963212524278
 20
-0.860886129857081
 42
0.991451879854269
 10
-2.580716042357526
 20
-0.8608861298570807
 10
-2.580716042357641
 20
-1.180886129856789
  0
ENDBLK
  5
2E9
330
2E7
100
AcDbEntity
  8
0
100
AcDbBlockEnd
  0
BLOCK
  5
2EF
330
2EE
100
AcDbEntity
  8
0
100
AcDbBlockBegin
  2
VoltageRegulatorExistente
 70
0
 10
0.0
 20
0.0
 30
0.0
  3
VoltageRegulatorExistente
  1

  0
INSERT
  5
2F1
330
2EE
100
AcDbEntity
  8
REGULADOR
  6
ByLayer
100
AcDbBlockReference
  2
regu0
 10
-0.2314633117016456
 20
4.943498209693132
 30
0.0
 43
0.0
 50
231.5535774954806
  0
ENDBLK
  5
2F0
330
2EE
100
AcDbEntity
  8
0
100
AcDbBlockEnd
  0
BLOCK
  5
2F4
330
2F3
100
AcDbEntity
  8
0
100
AcDbBlockBegin
  2
regu0
 70
0
 10
0.0
 20
0.0
 30
0.0
  3
regu0
  1

  0
LWPOLYLINE
  5
2F6
330
2F3
100
AcDbEntity
  8
REGULADOR
  6
ByLayer
100
AcDbPolyline
 90
3
 70
0
 10
-3.214353782313116
 20
-2.597966978498676
 10
2.663356764788625
 20
2.152629547175305
 10
3.037681752610148
 20
2.45771898472071
  0
LWPOLYLINE
  5
2F7
330
2F3
100
AcDbEntity
  8
REGULADOR
  6
ByLayer
100
AcDbPolyline
 90
13
 70
0
 10
2.561451791872706
 20
1.299415435853515
 10
2.561451791872706
 20
0.9794154358538076
 42
-0.9914518798541944
 10
1.270367874757619
 20
0.9794154358538079
 10
1.270367874757732
 20
1.299415435853515
 10
1.270367874757619
 20
0.9794154358538076
 42
-0.9999349885235223
 10
-0.009632109007077005
 20
0.9793322071658949
 10
-0.0096321252424669
 20
2.259415435853723
 10
-0.009704711763594775
 20
0.9792917549698338
 42
-1.000090147896748
 10
-1.289632125242667
 20
0.9794154358538076
 10
-1.28963212524278
 20
1.299415435853515
 10
-1.28963212524278
 20
0.9794154358538076
 42
-0.9914518798542692
 10
-2.580716042357526
 20
0.9794154358538079
 10
-2.580716042357641
 20
1.299415435853515
  0
LWPOLYLINE
  5
2F8
330
2F3
100
AcDbEntity
  8
REGULADOR
  6
ByLayer
100
AcDbPolyline
 90
13
 70
0
 10
2.561451791872706
 20
-1.180886129856789
 10
2.561451791872706
 20
-0.8608861298570809
 42
0.9914518798541944
 10
1.270367874757619
 20
-0.8608861298570808
 10
1.270367874757732
 20
-1.180886129856789
 10
1.270367874757619
 20
-0.8608861298570808
 42
0.9999349885235223
 10
-0.009632109007077005
 20
-0.8608029011691677
 10
-0.0096321252424669
 20
-2.140886129856995
 10
-0.009704711763594775
 20
-0.8607624489731072
 42
1.000090147896748
 10
-1.289632125242667
 20
-0.8608861298570806
 10
-1.28963212524278
 20
-1.180886129856789
 10
-1.28963212524278
 20
-0.8608861298570809
 42
0.9914518798542692
 10
-2.580716042357526
 20
-0.8608861298570808
 10
-2.580716042357641
 20
-1.180886129856789
  0
ENDBLK
  5
2F5
330
2F3
100
AcDbEntity
  8
0
100
AcDbBlockEnd
  0
BLOCK
  5
2FA
330
2F9
100
AcDbEntity
  8
0
100
AcDbBlockBegin
  2
BancoCapacitorProjetado
 70
0
 10
0.0
 20
0.0
 30
0.0
  3
BancoCapacitorProjetado
  1

  0
LINE
  5
2FC
330
2F9
100
AcDbEntity
  8
0
  6
ByLayer
 62
0
100
AcDbLine
 10
-0.24367309315130115
 20
5.763862237334251
 30
0.0
 11
-0.018695884384214878
 21
0.02119074948132038
 31
0.0
  0
ARC
  5
2FD
330
2F9
100
AcDbEntity
  8
0
  6
ByLayer
 62
0
100
AcDbCircle
 10
-0.30345026624854654
 20
7.799198927357793
 30
0.0
 40
1.3918099687499987
100
AcDbArc
 50
-151.12034624505984
 51
-26.034821463664493
  0
LINE
  5
2FE
330
2F9
100
AcDbEntity
  8
0
  6
ByLayer
 62
0
100
AcDbLine
 10
0.8580496225040406
 20
5.807023771107197
 30
0.0
 11
-1.3453958089230582
 21
5.720700705423951
 31
0.0
  0
LWPOLYLINE
  5
2FF
330
2F9
100
AcDbEntity
  8
0
  6
ByLayer
 62
0
100
AcDbPolyline
 90
2
 70
0
 10
-0.24367309315130115
 20
5.763862237334251
 10
-0.2040838523535058
 20
4.7533243000507355
  0
LINE
  5
300
330
2F9
100
AcDbEntity
  8
0
  6
ByLayer
 62
0
100
AcDbLine
 10
-6.586500849574804
 20
4.383286125957966
 30
0.0
 11
-4.503516751341522
 21
6.458350084722042
 31
0.0
  0
LINE
  5
301
330
2F9
100
AcDbEntity
  8
0
  6
ByLayer
 62
0
100
AcDbLine
 10
-6.493333070655353
 20
5.343609677627683
 30
0.0
 11
-5.450994098559022
 21
6.3819853607565165
 31
0.0
  0
CIRCLE
  5
302
330
2F9
100
AcDbEntity
  8
0
  6
ByLayer
 62
0
100
AcDbCircle
 10
-6.070718471892178
 20
5.974922833964229
 30
0.0
 40
1.787896843401059
  0
LINE
  5
303
330
2F9
100
AcDbEntity
  8
0
  6
ByLayer
 62
0
100
AcDbLine
 10
-7.440860588103533
 20
5.240906795486808
 30
0.0
 11
-5.357876488938928
 21
7.315970756113529
 31
0.0
  0
LINE
  5
304
330
2F9
100
AcDbEntity
  8
0
  6
ByLayer
 62
0
100
AcDbLine
 10
-7.347692808136344
 20
6.201230350881815
 30
0.0
 11
-6.305353838950396
 21
7.239606035873294
 31
0.0
  0
LINE
  5
305
330
2F9
100
AcDbEntity
  8
0
  6
ByLayer
 62
0
100
AcDbLine
 10
-5.472228643484414
 20
5.4917859230190516
 30
0.0
 11
-0.0034037940204143524
 21
0.002087576314806938
 31
0.0
  0
CIRCLE
  5
306
330
2F9
100
AcDbEntity
  8
0
  6
ByLayer
 62
0
100
AcDbCircle
 10
5.566821111133322
 20
6.174133175984025
 30
0.0
 40
1.787896843401059
  0
LINE
  5
307
330
2F9
100
AcDbEntity
  8
0
  6
ByLayer
 62
0
100
AcDbLine
 10
5.17832603584975
 20
5.660090206190944
 30
0.0
 11
-0.0034037940204143524
 21
0.002087576314806938
 31
0.0
  0
LINE
  5
308
330
2F9
100
AcDbEntity
  8
0
  6
ByLayer
 62
0
100
AcDbLine
 10
3.9548506774008274
 20
6.7861889116466045
 30
0.0
 11
6.276546481065452
 21
4.649277346208692
 31
0.0
  0
LINE
  5
309
330
2F9
100
AcDbEntity
  8
0
  6
ByLayer
 62
0
100
AcDbLine
 10
4.940272879786789
 20
7.306252202019095
 30
0.0
 11
6.873584221932106
 21
5.526813494041562
 31
0.0
  0
LINE
  5
30A
330
2F9
100
AcDbEntity
  8
0
  6
ByLayer
 62
0
100
AcDbLine
 10
6.09739706479013
 20
7.66827929764986
 30
0.0
 11
7.138621652498841
 21
6.709925984963775
 31
0.0
  0
ENDBLK
  5
2FB
330
2F9
100
AcDbEntity
  8
0
100
AcDbBlockEnd
  0
BLOCK
  5
30C
330
30B
100
AcDbEntity
  8
0
100
AcDbBlockBegin
  2
BancoCapacitorExistente
 70
0
 10
189.75
 20
116.4
 30
0.0
  3
BancoCapacitorExistente
  1

  0
INSERT
  5
30E
330
30B
100
AcDbEntity
  8
Capacitor
  6
ByLayer
100
AcDbBlockReference
  2
bca
 10
13.18710596729579
 20
8.125396128687372
 30
0.0
 43
0.0
 50
2.885706071947584
  0
LINE
  5
310
330
30B
100
AcDbEntity
  8
TRAFO A IMPLANTAR
  6
ByLayer
100
AcDbLine
 10
6.570821201934393
 20
12.41360251599868
 30
0.0
 11
8.630416184005185
 21
14.51188316935617
 31
0.0
  0
LINE
  5
311
330
30B
100
AcDbEntity
  8
TRAFO A IMPLANTAR
  6
ByLayer
100
AcDbLine
 10
6.653219380921598
 20
13.37491001183108
 30
0.0
 11
7.683854285201904
 21
14.42490348027957
 31
0.0
  0
LINE
  5
312
330
30B
100
AcDbEntity
  8
TRAFO A IMPLANTAR
  6
ByLayer
100
AcDbLine
 10
5.706902525136599
 20
13.26159325608927
 30
0.0
 11
7.766497508138798
 21
15.35987391130938
 31
0.0
  0
LINE
  5
313
330
30B
100
AcDbEntity
  8
TRAFO A IMPLANTAR
  6
ByLayer
100
AcDbLine
 10
5.789300705229778
 20
14.22290075564698
 30
0.0
 11
6.819935606541492
 21
15.27289422595817
 31
0.0
  0
LINE
  5
314
330
30B
100
AcDbEntity
  8
TRAFO A IMPLANTAR
  6
ByLayer
100
AcDbLine
 10
7.672598838264094
 20
13.53452195780297
 30
0.0
 11
13.2026112142884
 21
8.106465555670967
 31
0.0
  0
LINE
  5
315
330
30B
100
AcDbEntity
  8
TRAFO A IMPLANTAR
  6
ByLayer
100
AcDbLine
 10
18.3205980526217
 20
13.82219197595437
 30
0.0
 11
13.2026112142884
 21
8.106465555670967
 31
0.0
  0
LINE
  5
316
330
30B
100
AcDbEntity
  8
0
  6
ByLayer
100
AcDbLine
 10
17.08457771739259
 20
14.93450666958407
 30
0.0
 11
19.43007916594428
 21
12.82375197106917
 31
0.0
  0
LINE
  5
317
330
30B
100
AcDbEntity
  8
0
  6
ByLayer
100
AcDbLine
 10
18.06410891054469
 20
15.46558235580048
 30
0.0
 11
20.01724357464619
 21
13.70792486699237
 31
0.0
  0
LINE
  5
318
330
30B
100
AcDbEntity
  8
0
  6
ByLayer
100
AcDbLine
 10
19.21710264290948
 20
15.84055628808157
 30
0.0
 11
20.26900348827979
 21
14.89393370034117
 31
0.0
  0
ENDBLK
  5
30D
330
30B
100
AcDbEntity
  8
0
100
AcDbBlockEnd
  0
BLOCK
  5
31A
330
319
100
AcDbEntity
  8
0
100
AcDbBlockBegin
  2
bca
 70
0
 10
0.0
 20
0.0
 30
0.0
  3
bca
  1

  0
LINE
  5
31C
330
319
100
AcDbEntity
  8
Capacitor
  6
ByLayer
100
AcDbLine
 10
-1.67459e-10
 20
5.747076697816507
 30
0.0
 11
0.0
 21
0.0
 31
0.0
  0
ARC
  5
31D
330
319
100
AcDbEntity
  8
Capacitor
  6
ByLayer
100
AcDbCircle
 10
0.0199446961122494
 20
7.783193334174709
 30
0.0
 40
1.391809968749999
100
AcDbArc
 50
206.6361585413687
 51
331.721683322764
  0
LINE
  5
31E
330
319
100
AcDbEntity
  8
Capacitor
  6
ByLayer
100
AcDbLine
 10
1.102567848174546
 20
5.747076697816507
 30
0.0
 11
-1.102567848509464
 21
5.747076697816507
 31
0.0
  0
LWPOLYLINE
  5
31F
330
319
100
AcDbEntity
  8
Capacitor
  6
ByLayer
100
AcDbPolyline
 90
2
 70
0
 10
-1.67459e-10
 20
5.747076697816507
 10
-1.379912e-10
 20
4.735763574842703
  0
ENDBLK
  5
31B
330
319
100
AcDbEntity
  8
0
100
AcDbBlockEnd
  0
BLOCK
  5
3A9
330
3A8
100
AcDbEntity
  8
0
100
AcDbBlockBegin
  2
PDTEXISTENTE
 70
0
 10
0.0
 20
0.0
 30
0.0
  3
PDTEXISTENTE
  1
PDTEXISTENTE
  0
INSERT
  5
3AB
330
3A8
100
AcDbEntity
  8
0
 62
1
100
AcDbBlockReference
  2
Clipboard5160
 10
-2.020332
 20
-2.207404
 30
0.0
  0
ENDBLK
  5
3AA
330
3A8
100
AcDbEntity
  8
0
100
AcDbBlockEnd
  0
BLOCK
  5
3AE
330
3AD
100
AcDbEntity
  8
0
100
AcDbBlockBegin
  2
Clipboard5160
 70
0
 10
0.0
 20
0.0
 30
0.0
  3
Clipboard5160
  1
Clipboard5160
  0
LWPOLYLINE
  5
3B0
330
3AD
100
AcDbEntity
  8
0
 62
7
370
0
100
AcDbPolyline
 90
2
 70
0
 10
4.004396
 20
2.166537
 10
0.007783
 20
2.183699
  0
LWPOLYLINE
  5
3B1
330
3AD
100
AcDbEntity
  8
0
 62
7
370
0
100
AcDbPolyline
 90
4
 70
1
 10
4.012179
 20
4.331378
 10
3.99352
 20
0.0
 10
0.0
 20
0.018859
 10
0.020355
 20
4.347143
  0
HATCH
  5
3B2
330
3AD
100
AcDbEntity
  8
0
 62
7
100
AcDbHatch
 10
0.0
 20
0.0
 30
0.0
210
0.0
220
0.0
230
1.0
  2
SOLID
 70
1
 71
0
 91
1
 92
1
 93
1
 72
2
 10
2.000116494415039
 20
2.165666171075841
 40
0.461257
 50
0.0
 51
360.0
 73
1
 97
0
 75
0
 76
1
 98
1
 10
-344.4311895055849
 20
-57.37087582892416
  0
CIRCLE
  5
3B3
330
3AD
100
AcDbEntity
  8
0
 62
7
370
0
100
AcDbCircle
 10
2.000116
 20
2.165666
 30
0.0
 40
0.461257
  0
ENDBLK
  5
3AF
330
3AD
100
AcDbEntity
  8
0
100
AcDbBlockEnd
  0
BLOCK
  5
3B5
330
3B4
100
AcDbEntity
  8
0
100
AcDbBlockBegin
  2
POSTEDTINST
 70
0
 10
0.0
 20
0.0
 30
0.0
  3
POSTEDTINST
  1
POSTEDTINST
  0
INSERT
  5
3B7
330
3B4
100
AcDbEntity
  8
0
 62
1
100
AcDbBlockReference
  2
Clipboard8442
 10
-1.516591
 20
-1.817642
 30
0.0
  0
INSERT
  5
3B9
330
3B4
100
AcDbEntity
  8
0
 62
1
100
AcDbBlockReference
  2
Clipboard4108
 10
-0.403155
 20
-2.975497
 30
0.0
  0
ENDBLK
  5
3B6
330
3B4
100
AcDbEntity
  8
0
100
AcDbBlockEnd
  0
BLOCK
  5
3BC
330
3BB
100
AcDbEntity
  8
0
100
AcDbBlockBegin
  2
Clipboard8442
 70
0
 10
0.0
 20
0.0
 30
0.0
  3
Clipboard8442
  1
Clipboard8442
  0
INSERT
  5
3BE
330
3BB
100
AcDbEntity
  8
0
 62
1
100
AcDbBlockReference
  2
Clipboard8027
 10
0.0
 20
0.0
 30
0.0
  0
INSERT
  5
3C0
330
3BB
100
AcDbEntity
  8
0
 62
1
100
AcDbBlockReference
  2
Clipboard4108
 10
1.001781
 20
1.431733
 30
0.0
  0
ENDBLK
  5
3BD
330
3BB
100
AcDbEntity
  8
0
100
AcDbBlockEnd
  0
BLOCK
  5
3C3
330
3C2
100
AcDbEntity
  8
0
100
AcDbBlockBegin
  2
Clipboard4108
 70
0
 10
0.0
 20
0.0
 30
0.0
  3
Clipboard4108
  1
Clipboard4108
  0
HATCH
  5
3C5
330
3C2
100
AcDbEntity
  8
0
 62
7
100
AcDbHatch
 10
0.0
 20
0.0
 30
0.0
210
0.0
220
0.0
230
1.0
  2
SOLID
 70
1
 71
0
 91
1
 92
1
 93
1
 72
2
 10
0.463903000000002
 20
0.463903000000002
 40
0.463903
 50
74.00623623479085
 51
434.0062362347908
 73
1
 97
0
 75
0
 76
1
 98
1
 10
265.2865769823287
 20
-425.7691284493947
  0
CIRCLE
  5
3C6
330
3C2
100
AcDbEntity
  8
0
 62
7
370
0
100
AcDbCircle
 10
0.463903
 20
0.463903
 30
0.0
 40
0.463903
  0
HATCH
  5
3C7
330
3C2
100
AcDbEntity
  8
0
 62
7
100
AcDbHatch
 10
0.0
 20
0.0
 30
0.0
210
0.0
220
0.0
230
1.0
  2
SOLID
 70
1
 71
0
 91
1
 92
1
 93
1
 72
2
 10
0.463903000000002
 20
0.463903000000002
 40
0.463903
 50
74.00623623479085
 51
434.0062362347908
 73
1
 97
0
 75
0
 76
1
 98
1
 10
265.2865769823287
 20
-425.7691284493947
  0
CIRCLE
  5
3C8
330
3C2
100
AcDbEntity
  8
0
 62
7
370
0
100
AcDbCircle
 10
0.463903
 20
0.463903
 30
0.0
 40
0.463903
  0
ENDBLK
  5
3C4
330
3C2
100
AcDbEntity
  8
0
100
AcDbBlockEnd
  0
BLOCK
  5
3CA
330
3C9
100
AcDbEntity
  8
0
100
AcDbBlockBegin
  2
Clipboard8027
 70
0
 10
0.0
 20
0.0
 30
0.0
  3
Clipboard8027
  1
Clipboard8027
  0
HATCH
  5
3CC
330
3C9
100
AcDbEntity
  8
0
 62
7
100
AcDbHatch
 10
0.0
 20
0.0
 30
0.0
210
0.0
220
0.0
230
1.0
  2
SOLID
 70
1
 71
0
 91
1
 92
3
 72
0
 73
1
 93
4
 10
3.003976705570381
 20
1.808612703146764
 10
3.005411406980613
 20
0.0052154723704234
 10
0.0066279964448199
 20
0.0
 10
0.0014347014102327
 20
1.800117065084237
 97
0
 75
2
 76
0
 98
1
 10
-341.2858562924106
 20
-519.8175158780934
  0
LWPOLYLINE
  5
3CD
330
3C9
100
AcDbEntity
  8
0
 62
7
370
0
100
AcDbPolyline
 90
4
 70
1
 10
3.003977
 20
1.808613
 10
3.005411
 20
0.005215
 10
0.006628
 20
0.0
 10
0.001435
 20
1.800117
  0
LWPOLYLINE
  5
3CE
330
3C9
100
AcDbEntity
  8
0
 62
7
370
0
100
AcDbPolyline
 90
4
 70
1
 10
3.003977
 20
1.808613
 10
2.998783
 20
3.60873
 10
0.0
 20
3.603514
 10
0.001435
 20
1.800117
  0
LWPOLYLINE
  5
3CF
330
3C9
100
AcDbEntity
  8
0
 62
7
370
0
100
AcDbPolyline
 90
4
 70
1
 10
3.005411
 20
0.005215
 10
3.003977
 20
1.808613
 10
0.001435
 20
1.800117
 10
0.006628
 20
0.0
  0
ENDBLK
  5
3CB
330
3C9
100
AcDbEntity
  8
0
100
AcDbBlockEnd
  0
BLOCK
  5
3D1
330
3D0
100
AcDbEntity
  8
0
100
AcDbBlockBegin
  2
TRAFOEXISTENTESEMCHAVE
 70
0
 10
0.0
 20
0.0
 30
0.0
  3
TRAFOEXISTENTESEMCHAVE
  1
TRAFOEXISTENTESEMCHAVE
  0
INSERT
  5
3D3
330
3D0
100
AcDbEntity
  8
0
 62
1
100
AcDbBlockReference
  2
Clipboard11713
 10
-4.655081
 20
-5.27885
 30
0.0
  0
ENDBLK
  5
3D2
330
3D0
100
AcDbEntity
  8
0
100
AcDbBlockEnd
  0
BLOCK
  5
3D6
330
3D5
100
AcDbEntity
  8
0
100
AcDbBlockBegin
  2
Clipboard11713
 70
0
 10
0.0
 20
0.0
 30
0.0
  3
Clipboard11713
  1
Clipboard11713
  0
LWPOLYLINE
  5
3D8
330
3D5
100
AcDbEntity
  8
0
 62
7
370
0
100
AcDbPolyline
 90
3
 70
1
 10
4.744716
 20
5.152523
 10
0.0
 20
12.711301
 10
9.442935
 20
12.735167
  0
LWPOLYLINE
  5
3D9
330
3D5
100
AcDbEntity
  8
0
 62
7
370
0
100
AcDbPolyline
 90
2
 70
0
 10
4.758663
 20
0.0
 10
4.744716
 20
5.152523
  0
ENDBLK
  5
3D7
330
3D5
100
AcDbEntity
  8
0
100
AcDbBlockEnd
  0
ENDSEC
  0
SECTION
  2
ENTITIES
  0
LWPOLYLINE
  5
321
330
17
100
AcDbEntity
  8
REDE SECUNDARIA - Instalar
100
AcDbPolyline
 90
2
 70
0
 39
0.3
 10
730619.9889144166
 20
9237463.401758293
 10
730589.8989117462
 20
9237527.280860392
  0
MTEXT
  5
322
330
17
100
AcDbEntity
  8
TEXTOS A IMPLANTAR
100
AcDbMText
 10
730606.3009016588
 20
9237495.980513537
 30
0.0
 40
3.0
 71
2
  1
35m BT AN#M35
  7
Arial
 50
295.22259787151893
  0
LWPOLYLINE
  5
323
330
17
100
AcDbEntity
  8
TEXTOS A IMPLANTAR
100
AcDbPolyline
 90
5
 70
1
 10
730596.1375668219
 20
9237509.577935727
 10
730610.3125549406
 20
9237479.485365672
 10
730613.7502593375
 20
9237481.104682961
 10
730599.5752712188
 20
9237511.197253017
 10
730596.1375668219
 20
9237509.577935727
  0
LWPOLYLINE
  5
324
330
17
100
AcDbEntity
  8
REDE SECUNDARIA - Instalar
100
AcDbPolyline
 90
2
 70
0
 39
0.3
 10
730589.9167050112
 20
9237527.24223776
 10
730558.6156346479
 20
9237596.734504877
  0
MTEXT
  5
325
330
17
100
AcDbEntity
  8
TEXTOS A IMPLANTAR
100
AcDbMText
 10
730575.633834366
 20
9237562.60440193
 30
0.0
 40
3.0
 71
2
  1
38m BT AN#M35
  7
Arial
 50
294.2480030952162
  0
LWPOLYLINE
  5
326
330
17
100
AcDbEntity
  8
TEXTOS A IMPLANTAR
100
AcDbPolyline
 90
5
 70
1
 10
730565.7032492757
 20
9237576.372725898
 10
730579.3643402203
 20
9237546.043405848
 10
730582.8290903801
 20
9237547.60401673
 10
730569.1679994352
 20
9237577.933336785
 10
730565.7032492757
 20
9237576.372725898
  0
LWPOLYLINE
  5
327
330
17
100
AcDbEntity
  8
REDE SECUNDARIA - Instalar
100
AcDbPolyline
 90
2
 70
0
 39
0.3
 10
730556.0485524798
 20
9237598.191184556
 10
730477.0845995841
 20
9237589.045128318
  0
MTEXT
  5
328
330
17
100
AcDbEntity
  8
TEXTOS A IMPLANTAR
100
AcDbMText
 10
730516.3939912675
 20
9237595.10819486
 30
0.0
 40
3.0
 71
2
  1
39m BT AN#M35
  7
Arial
 50
6.606884444905063
  0
LWPOLYLINE
  5
329
330
17
100
AcDbEntity
  8
TEXTOS A IMPLANTAR
100
AcDbPolyline
 90
5
 70
1
 10
730500.2636421202
 20
9237589.817155117
 10
730533.3067246806
 20
9237593.644393751
 10
730532.869509944
 20
9237597.419157756
 10
730499.8264273836
 20
9237593.591919119
 10
730500.2636421202
 20
9237589.817155117
  0
LWPOLYLINE
  5
32A
330
17
100
AcDbEntity
  8
REDE SECUNDARIA - Instalar
100
AcDbPolyline
 90
2
 70
0
 39
0.3
 10
730477.4865697017
 20
9237589.059115363
 10
730396.3079318563
 20
9237592.775427407
  0
MTEXT
  5
32B
330
17
100
AcDbEntity
  8
TEXTOS A IMPLANTAR
100
AcDbMText
 10
730436.965848085
 20
9237592.415702036
 30
0.0
 40
3.0
 71
2
  1
40m BT AN#M35
  7
Arial
 50
357.37886174563346
  0
LWPOLYLINE
  5
32C
330
17
100
AcDbEntity
  8
TEXTOS A IMPLANTAR
100
AcDbPolyline
 90
5
 70
1
 10
730420.1957665926
 20
9237589.779865941
 10
730453.4249551231
 20
9237588.258652518
 10
730453.5987349651
 20
9237592.054676829
 10
730420.3695464346
 20
9237593.575890252
 10
730420.1957665926
 20
9237589.779865941
  0
LWPOLYLINE
  5
32D
330
17
100
AcDbEntity
  8
REDE SECUNDARIA - Instalar
100
AcDbPolyline
 90
2
 70
0
 39
0.3
 10
730395.2932477074
 20
9237592.610286618
 10
730320.7560433086
 20
9237563.835433634
  0
MTEXT
  5
32E
330
17
100
AcDbEntity
  8
TEXTOS A IMPLANTAR
100
AcDbMText
 10
730357.484432325
 20
9237579.622206299
 30
0.0
 40
3.0
 71
2
  1
39m BT AN#M35
  7
Arial
 50
21.10892448301155
  0
LWPOLYLINE
  5
32F
330
17
100
AcDbEntity
  8
TEXTOS A IMPLANTAR
100
AcDbPolyline
 90
5
 70
1
 10
730343.19296961
 20
9237570.460472913
 10
730374.2248614719
 20
9237582.440237021
 10
730372.8563214077
 20
9237585.98524733
 10
730341.8244295458
 20
9237574.005483223
 10
730343.19296961
 20
9237570.460472913
  0
LWPOLYLINE
  5
330
330
17
100
AcDbEntity
  8
REDE SECUNDARIA - Instalar
100
AcDbPolyline
 90
2
 70
0
 39
0.3
 10
730320.7127747899
 20
9237563.818265403
 10
730250.3437914988
 20
9237535.135895366
  0
MTEXT
  5
331
330
17
100
AcDbEntity
  8
TEXTOS A IMPLANTAR
100
AcDbMText
 10
730284.96210885
 20
9237550.866125619
 30
0.0
 40
3.0
 71
2
  1
37m BT AN#M35
  7
Arial
 50
22.17578986206354
  0
LWPOLYLINE
  5
332
330
17
100
AcDbEntity
  8
TEXTOS A IMPLANTAR
100
AcDbPolyline
 90
5
 70
1
 10
730270.8437080937
 20
9237541.439884307
 10
730301.6471664093
 20
9237553.995361855
 10
730300.2128581966
 20
9237557.514276454
 10
730269.409399881
 20
9237544.958798906
 10
730270.8437080937
 20
9237541.439884307
  0
LWPOLYLINE
  5
333
330
17
100
AcDbEntity
  8
REDE SECUNDARIA - Manter
100
AcDbPolyline
 90
2
 70
0
 39
0.3
 10
730694.811244243
 20
9237486.55773327
 10
730617.0519964665
 20
9237464.743492959
  0
MTEXT
  5
334
330
17
100
AcDbEntity
  8
TEXTOS EXISTENTES
100
AcDbMText
 10
730655.5264581621
 20
9237477.094858104
 30
0.0
 40
3.0
 71
2
  1
40m BT AN#CA4
  7
Arial
 50
15.67070122228796
  0
LWPOLYLINE
  5
335
330
17
100
AcDbEntity
  8
REDE SECUNDARIA - Manter
100
AcDbPolyline
 90
2
 70
0
 39
0.3
 10
730617.1401443614
 20
9237464.766497651
 10
730597.8797105299
 20
9237460.113056561
  0
MTEXT
  5
336
330
17
100
AcDbEntity
  8
TEXTOS EXISTENTES
100
AcDbMText
 10
730607.1576539897
 20
9237463.897824915
 30
0.0
 40
3.0
 71
2
  1
9m BT AN#CA4
  7
Arial
 50
13.582720270704101
  0
INSERT
  5
337
330
17
100
AcDbEntity
  8
0
100
AcDbBlockReference
  2
PDTEXISTENTE
 10
730598.4668329561
 20
9237457.682976881
 30
0.0
 50
14.402370595250545
  0
MTEXT
  5
339
330
17
100
AcDbEntity
  8
TEXTOS EXISTENTES
100
AcDbMText
 10
730604.4668329561
 20
9237457.682976881
 30
0.0
 40
3.0
 71
4
  1
D7/75
  7
Arial
  0
MTEXT
  5
33A
330
17
100
AcDbEntity
  8
TEXTOS EXISTENTES
100
AcDbMText
 10
730617.7621603776
 20
9237457.682976881
 30
0.0
 40
3.0
 71
4
  1
S2
  7
Arial
  0
TEXT
  5
33B
330
17
100
AcDbEntity
  8
PONTO FOTO
100
AcDbText
 10
730604.4668329561
 20
9237461.682976881
 30
0.0
 40
3.0
  1
P1
  7
Arial
 11
730604.4668329561
 21
9237461.682976881
 31
0.0
100
AcDbText
 73
2
  0
TEXT
  5
33C
330
17
100
AcDbEntity
  8
0
100
AcDbText
 10
730604.4668329561
 20
9237453.682976881
 30
0.0
 40
3.0
  1
X: 730537.50 Y: 9237500.22 Z: 24.00 m
  7
Arial
 11
730604.4668329561
 21
9237453.682976881
 31
0.0
100
AcDbText
 73
2
  0
INSERT
  5
33D
330
17
100
AcDbEntity
  8
0
100
AcDbBlockReference
  2
PDTEXISTENTE
 10
730695.4865145641
 20
9237484.150658282
 30
0.0
 50
19.715163306747797
  0
MTEXT
  5
33F
330
17
100
AcDbEntity
  8
TEXTOS EXISTENTES
100
AcDbMText
 10
730701.4865145641
 20
9237484.150658282
 30
0.0
 40
3.0
 71
4
  1
D10/150
  7
Arial
  0
MTEXT
  5
340
330
17
100
AcDbEntity
  8
TEXTOS EXISTENTES
100
AcDbMText
 10
730719.4901230226
 20
9237484.150658282
 30
0.0
 40
3.0
 71
4
  1
U3 S2 S2 S2
  7
Arial
  0
TEXT
  5
341
330
17
100
AcDbEntity
  8
PONTO FOTO
100
AcDbText
 10
730701.4865145641
 20
9237488.150658282
 30
0.0
 40
3.0
  1
P2
  7
Arial
 11
730701.4865145641
 21
9237488.150658282
 31
0.0
100
AcDbText
 73
2
  0
TEXT
  5
342
330
17
100
AcDbEntity
  8
0
100
AcDbText
 10
730701.4865145641
 20
9237480.150658282
 30
0.0
 40
3.0
  1
X: 730586.01 Y: 9237513.45 Z: 24.00 m
  7
Arial
 11
730701.4865145641
 21
9237480.150658282
 31
0.0
100
AcDbText
 73
2
  0
INSERT
  5
343
330
17
100
AcDbEntity
  8
TRAFO
100
AcDbBlockReference
  2
TRAFOEXISTENTESEMCHAVE
 10
730710.660882564
 20
9237484.431628281
 30
0.0
 50
202.549
  0
TEXT
  5
345
330
17
100
AcDbEntity
  8
TRAFO
100
AcDbText
 10
730701.4865145641
 20
9237476.150658282
 30
0.0
 40
3.0
  1
Nº: 41010 - 15.0 kVA
  7
Arial
 11
730701.4865145641
 21
9237476.150658282
 31
0.0
100
AcDbText
 73
2
  0
INSERT
  5
346
330
17
100
AcDbEntity
  8
0
100
AcDbBlockReference
  2
POSTEDTINST
 10
730617.7272667876
 20
9237462.336417971
 30
0.0
 50
17.551611902696322
  0
MTEXT
  5
348
330
17
100
AcDbEntity
  8
TEXTOS A IMPLANTAR
100
AcDbMText
 10
730623.7272667876
 20
9237462.336417971
 30
0.0
 40
3.0
 71
4
  1
D10/600
  7
Arial
  0
LWPOLYLINE
  5
349
330
17
100
AcDbEntity
  8
TEXTOS A IMPLANTAR
100
AcDbPolyline
 90
5
 70
1
 10
730623.3272667876
 20
9237460.436417973
 10
730640.1308752459
 20
9237460.436417973
 10
730640.1308752459
 20
9237464.23641797
 10
730623.3272667876
 20
9237464.23641797
 10
730623.3272667876
 20
9237460.436417973
  0
MTEXT
  5
34A
330
17
100
AcDbEntity
  8
TEXTOS A IMPLANTAR
100
AcDbMText
 10
730641.730875246
 20
9237462.336417971
 30
0.0
 40
3.0
 71
4
  1
S2 SI-3
  7
Arial
  0
LWPOLYLINE
  5
34B
330
17
100
AcDbEntity
  8
TEXTOS A IMPLANTAR
100
AcDbPolyline
 90
5
 70
1
 10
730641.3308752461
 20
9237460.436417973
 10
730656.2474509622
 20
9237460.436417973
 10
730656.2474509622
 20
9237464.23641797
 10
730641.3308752461
 20
9237464.23641797
 10
730641.3308752461
 20
9237460.436417973
  0
TEXT
  5
34C
330
17
100
AcDbEntity
  8
PONTO FOTO
100
AcDbText
 10
730623.7272667876
 20
9237466.336417971
 30
0.0
 40
3.0
  1
P3
  7
Arial
 11
730623.7272667876
 21
9237466.336417971
 31
0.0
100
AcDbText
 73
2
  0
TEXT
  5
34D
330
17
100
AcDbEntity
  8
0
100
AcDbText
 10
730623.7272667876
 20
9237458.336417971
 30
0.0
 40
3.0
  1
X: 730547.13 Y: 9237502.54 Z: 24.00 m
  7
Arial
 11
730623.7272667876
 21
9237458.336417971
 31
0.0
100
AcDbText
 73
2
  0
INSERT
  5
34E
330
17
100
AcDbEntity
  8
0
100
AcDbBlockReference
  2
POSTEDTINST
 10
730587.6372641171
 20
9237526.21552007
 30
0.0
 50
24.00065097534872
  0
MTEXT
  5
350
330
17
100
AcDbEntity
  8
TEXTOS A IMPLANTAR
100
AcDbMText
 10
730593.6372641171
 20
9237526.21552007
 30
0.0
 40
3.0
 71
4
  1
D10/150
  7
Arial
  0
LWPOLYLINE
  5
351
330
17
100
AcDbEntity
  8
TEXTOS A IMPLANTAR
100
AcDbPolyline
 90
5
 70
1
 10
730593.2372641172
 20
9237524.315520072
 10
730610.0408725755
 20
9237524.315520072
 10
730610.0408725755
 20
9237528.11552007
 10
730593.2372641172
 20
9237528.11552007
 10
730593.2372641172
 20
9237524.315520072
  0
MTEXT
  5
352
330
17
100
AcDbEntity
  8
TEXTOS A IMPLANTAR
100
AcDbMText
 10
730611.6408725756
 20
9237526.21552007
 30
0.0
 40
3.0
 71
4
  1
SI-1
  7
Arial
  0
LWPOLYLINE
  5
353
330
17
100
AcDbEntity
  8
TEXTOS A IMPLANTAR
100
AcDbPolyline
 90
5
 70
1
 10
730611.2408725757
 20
9237524.315520072
 10
730619.8039557952
 20
9237524.315520072
 10
730619.8039557952
 20
9237528.11552007
 10
730611.2408725757
 20
9237528.11552007
 10
730611.2408725757
 20
9237524.315520072
  0
TEXT
  5
354
330
17
100
AcDbEntity
  8
PONTO FOTO
100
AcDbText
 10
730593.6372641171
 20
9237530.21552007
 30
0.0
 40
3.0
  1
P4
  7
Arial
 11
730593.6372641171
 21
9237530.21552007
 31
0.0
100
AcDbText
 73
2
  0
TEXT
  5
355
330
17
100
AcDbEntity
  8
0
100
AcDbText
 10
730593.6372641171
 20
9237522.21552007
 30
0.0
 40
3.0
  1
X: 730532.09 Y: 9237534.48 Z: 24.00 m
  7
Arial
 11
730593.6372641171
 21
9237522.21552007
 31
0.0
100
AcDbText
 73
2
  0
INSERT
  5
356
330
17
100
AcDbEntity
  8
0
100
AcDbBlockReference
  2
POSTEDTINST
 10
730556.3361937539
 20
9237595.707787188
 30
0.0
 50
23.941095159141923
  0
MTEXT
  5
358
330
17
100
AcDbEntity
  8
TEXTOS A IMPLANTAR
100
AcDbMText
 10
730562.3361937539
 20
9237595.707787188
 30
0.0
 40
3.0
 71
4
  1
D10/600
  7
Arial
  0
LWPOLYLINE
  5
359
330
17
100
AcDbEntity
  8
TEXTOS A IMPLANTAR
100
AcDbPolyline
 90
5
 70
1
 10
730561.936193754
 20
9237593.80778719
 10
730578.7398022122
 20
9237593.80778719
 10
730578.7398022122
 20
9237597.607787186
 10
730561.936193754
 20
9237597.607787186
 10
730561.936193754
 20
9237593.80778719
  0
MTEXT
  5
35A
330
17
100
AcDbEntity
  8
TEXTOS A IMPLANTAR
100
AcDbMText
 10
730580.3398022123
 20
9237595.707787188
 30
0.0
 40
3.0
 71
4
  1
SI-4
  7
Arial
  0
LWPOLYLINE
  5
35B
330
17
100
AcDbEntity
  8
TEXTOS A IMPLANTAR
100
AcDbPolyline
 90
5
 70
1
 10
730579.9398022124
 20
9237593.80778719
 10
730588.502885432
 20
9237593.80778719
 10
730588.502885432
 20
9237597.607787186
 10
730579.9398022124
 20
9237597.607787186
 10
730579.9398022124
 20
9237593.80778719
  0
TEXT
  5
35C
330
17
100
AcDbEntity
  8
PONTO FOTO
100
AcDbText
 10
730562.3361937539
 20
9237599.707787188
 30
0.0
 40
3.0
  1
P5
  7
Arial
 11
730562.3361937539
 21
9237599.707787188
 31
0.0
100
AcDbText
 73
2
  0
TEXT
  5
35D
330
17
100
AcDbEntity
  8
0
100
AcDbText
 10
730562.3361937539
 20
9237591.707787188
 30
0.0
 40
3.0
  1
X: 730516.44 Y: 9237569.23 Z: 24.00 m
  7
Arial
 11
730562.3361937539
 21
9237591.707787188
 31
0.0
100
AcDbText
 73
2
  0
INSERT
  5
35E
330
17
100
AcDbEntity
  8
0
100
AcDbBlockReference
  2
POSTEDTINST
 10
730477.3722408582
 20
9237586.56173095
 30
0.0
  0
MTEXT
  5
360
330
17
100
AcDbEntity
  8
TEXTOS A IMPLANTAR
100
AcDbMText
 10
730483.3722408582
 20
9237586.56173095
 30
0.0
 40
3.0
 71
4
  1
D10/300
  7
Arial
  0
LWPOLYLINE
  5
361
330
17
100
AcDbEntity
  8
TEXTOS A IMPLANTAR
100
AcDbPolyline
 90
5
 70
1
 10
730482.9722408582
 20
9237584.66173095
 10
730499.7758493165
 20
9237584.66173095
 10
730499.7758493165
 20
9237588.461730948
 10
730482.9722408582
 20
9237588.461730948
 10
730482.9722408582
 20
9237584.66173095
  0
MTEXT
  5
362
330
17
100
AcDbEntity
  8
TEXTOS A IMPLANTAR
100
AcDbMText
 10
730501.3758493166
 20
9237586.56173095
 30
0.0
 40
3.0
 71
4
  1
SI-4
  7
Arial
  0
LWPOLYLINE
  5
363
330
17
100
AcDbEntity
  8
TEXTOS A IMPLANTAR
100
AcDbPolyline
 90
5
 70
1
 10
730500.9758493167
 20
9237584.66173095
 10
730509.5389325363
 20
9237584.66173095
 10
730509.5389325363
 20
9237588.461730948
 10
730500.9758493167
 20
9237588.461730948
 10
730500.9758493167
 20
9237584.66173095
  0
TEXT
  5
364
330
17
100
AcDbEntity
  8
PONTO FOTO
100
AcDbText
 10
730483.3722408582
 20
9237590.56173095
 30
0.0
 40
3.0
  1
P6
  7
Arial
 11
730483.3722408582
 21
9237590.56173095
 31
0.0
100
AcDbText
 73
2
  0
TEXT
  5
365
330
17
100
AcDbEntity
  8
0
100
AcDbText
 10
730483.3722408582
 20
9237582.56173095
 30
0.0
 40
3.0
  1
X: 730476.96 Y: 9237564.66 Z: 24.00 m
  7
Arial
 11
730483.3722408582
 21
9237582.56173095
 31
0.0
100
AcDbText
 73
2
  0
INSERT
  5
366
330
17
100
AcDbEntity
  8
0
100
AcDbBlockReference
  2
POSTEDTINST
 10
730396.1936030127
 20
9237590.278042993
 30
0.0
 50
11.349735793657487
  0
MTEXT
  5
368
330
17
100
AcDbEntity
  8
TEXTOS A IMPLANTAR
100
AcDbMText
 10
730402.1936030127
 20
9237590.278042993
 30
0.0
 40
3.0
 71
4
  1
D10/300
  7
Arial
  0
LWPOLYLINE
  5
369
330
17
100
AcDbEntity
  8
TEXTOS A IMPLANTAR
100
AcDbPolyline
 90
5
 70
1
 10
730401.7936030128
 20
9237588.378042994
 10
730418.5972114711
 20
9237588.378042994
 10
730418.5972114711
 20
9237592.178042991
 10
730401.7936030128
 20
9237592.178042991
 10
730401.7936030128
 20
9237588.378042994
  0
MTEXT
  5
36A
330
17
100
AcDbEntity
  8
TEXTOS A IMPLANTAR
100
AcDbMText
 10
730420.1972114712
 20
9237590.278042993
 30
0.0
 40
3.0
 71
4
  1
SI-4
  7
Arial
  0
LWPOLYLINE
  5
36B
330
17
100
AcDbEntity
  8
TEXTOS A IMPLANTAR
100
AcDbPolyline
 90
5
 70
1
 10
730419.7972114712
 20
9237588.378042994
 10
730428.3602946908
 20
9237588.378042994
 10
730428.3602946908
 20
9237592.178042991
 10
730419.7972114712
 20
9237592.178042991
 10
730419.7972114712
 20
9237588.378042994
  0
TEXT
  5
36C
330
17
100
AcDbEntity
  8
PONTO FOTO
100
AcDbText
 10
730402.1936030127
 20
9237594.278042993
 30
0.0
 40
3.0
  1
P7
  7
Arial
 11
730402.1936030127
 21
9237594.278042993
 31
0.0
100
AcDbText
 73
2
  0
TEXT
  5
36D
330
17
100
AcDbEntity
  8
0
100
AcDbText
 10
730402.1936030127
 20
9237586.278042993
 30
0.0
 40
3.0
  1
X: 730436.37 Y: 9237566.51 Z: 24.00 m
  7
Arial
 11
730402.1936030127
 21
9237586.278042993
 31
0.0
100
AcDbText
 73
2
  0
INSERT
  5
36E
330
17
100
AcDbEntity
  8
0
100
AcDbBlockReference
  2
POSTEDTINST
 10
730321.6563986139
 20
9237561.503190009
 30
0.0
 50
18.301673087518054
  0
MTEXT
  5
370
330
17
100
AcDbEntity
  8
TEXTOS A IMPLANTAR
100
AcDbMText
 10
730327.6563986139
 20
9237561.503190009
 30
0.0
 40
3.0
 71
4
  1
D10/300
  7
Arial
  0
LWPOLYLINE
  5
371
330
17
100
AcDbEntity
  8
TEXTOS A IMPLANTAR
100
AcDbPolyline
 90
5
 70
1
 10
730327.256398614
 20
9237559.60319001
 10
730344.0600070723
 20
9237559.60319001
 10
730344.0600070723
 20
9237563.403190007
 10
730327.256398614
 20
9237563.403190007
 10
730327.256398614
 20
9237559.60319001
  0
MTEXT
  5
372
330
17
100
AcDbEntity
  8
TEXTOS A IMPLANTAR
100
AcDbMText
 10
730345.6600070724
 20
9237561.503190009
 30
0.0
 40
3.0
 71
4
  1
SI-4
  7
Arial
  0
LWPOLYLINE
  5
373
330
17
100
AcDbEntity
  8
TEXTOS A IMPLANTAR
100
AcDbPolyline
 90
5
 70
1
 10
730345.2600070725
 20
9237559.60319001
 10
730353.823090292
 20
9237559.60319001
 10
730353.823090292
 20
9237563.403190007
 10
730345.2600070725
 20
9237563.403190007
 10
730345.2600070725
 20
9237559.60319001
  0
TEXT
  5
374
330
17
100
AcDbEntity
  8
PONTO FOTO
100
AcDbText
 10
730327.6563986139
 20
9237565.503190009
 30
0.0
 40
3.0
  1
P8
  7
Arial
 11
730327.6563986139
 21
9237565.503190009
 31
0.0
100
AcDbText
 73
2
  0
TEXT
  5
375
330
17
100
AcDbEntity
  8
0
100
AcDbText
 10
730327.6563986139
 20
9237557.503190009
 30
0.0
 40
3.0
  1
X: 730399.10 Y: 9237552.13 Z: 24.00 m
  7
Arial
 11
730327.6563986139
 21
9237557.503190009
 31
0.0
100
AcDbText
 73
2
  0
INSERT
  5
376
330
17
100
AcDbEntity
  8
0
100
AcDbBlockReference
  2
POSTEDTINST
 10
730251.2874153228
 20
9237532.820819972
 30
0.0
 50
187.07399113491113
  0
MTEXT
  5
378
330
17
100
AcDbEntity
  8
TEXTOS A IMPLANTAR
100
AcDbMText
 10
730257.2874153228
 20
9237532.820819972
 30
0.0
 40
3.0
 71
4
  1
D10/300
  7
Arial
  0
LWPOLYLINE
  5
379
330
17
100
AcDbEntity
  8
TEXTOS A IMPLANTAR
100
AcDbPolyline
 90
5
 70
1
 10
730256.8874153229
 20
9237530.920819974
 10
730273.6910237812
 20
9237530.920819974
 10
730273.6910237812
 20
9237534.72081997
 10
730256.8874153229
 20
9237534.72081997
 10
730256.8874153229
 20
9237530.920819974
  0
MTEXT
  5
37A
330
17
100
AcDbEntity
  8
TEXTOS A IMPLANTAR
100
AcDbMText
 10
730275.2910237813
 20
9237532.820819972
 30
0.0
 40
3.0
 71
4
  1
SI-3
  7
Arial
  0
LWPOLYLINE
  5
37B
330
17
100
AcDbEntity
  8
TEXTOS A IMPLANTAR
100
AcDbPolyline
 90
5
 70
1
 10
730274.8910237814
 20
9237530.920819974
 10
730283.454107001
 20
9237530.920819974
 10
730283.454107001
 20
9237534.72081997
 10
730274.8910237814
 20
9237534.72081997
 10
730274.8910237814
 20
9237530.920819974
  0
TEXT
  5
37C
330
17
100
AcDbEntity
  8
PONTO FOTO
100
AcDbText
 10
730257.2874153228
 20
9237536.820819972
 30
0.0
 40
3.0
  1
P9
  7
Arial
 11
730257.2874153228
 21
9237536.820819972
 31
0.0
100
AcDbText
 73
2
  0
TEXT
  5
37D
330
17
100
AcDbEntity
  8
0
100
AcDbText
 10
730257.2874153228
 20
9237528.820819972
 30
0.0
 40
3.0
  1
X: 730363.91 Y: 9237537.79 Z: 24.00 m
  7
Arial
 11
730257.2874153228
 21
9237528.820819972
 31
0.0
100
AcDbText
 73
2
  0
LINE
  5
37E
330
17
100
AcDbEntity
  8
PONTO DE ENTREGA
100
AcDbLine
 10
730251.2874153228
 20
9237532.820819972
 30
0.0
 11
730257.3292373405
 21
9237472.247134762
 31
0.0
 39
0.1
  0
INSERT
  5
37F
330
17
100
AcDbEntity
  8
PONTO DE ENTREGA
100
AcDbBlockReference
  2
PontoEntrega
 10
730257.3292373405
 20
9237472.247134762
 30
0.0
  0
TEXT
  5
381
330
17
100
AcDbEntity
  8
PONTO DE ENTREGA
100
AcDbText
 10
730257.3292373405
 20
9237472.247134762
 30
0.0
 40
3.0
  1
PE1
  7
Arial
 72
2
 11
730257.3292373405
 21
9237472.247134762
 31
0.0
100
AcDbText
  0
MTEXT
  5
382
330
17
100
AcDbEntity
  8
PONTO DE ENTREGA
100
AcDbMText
 10
730257.2935136636
 20
9237502.83172994
 30
0.0
 40
3.0
 71
5
  1
30.59 m
  7
Arial
 50
275.696033149573
  0
LWPOLYLINE
  5
383
330
17
100
AcDbEntity
  8
PONTO DE ENTREGA
100
AcDbPolyline
 90
5
 70
1
 10
730254.5446391436
 20
9237511.247796284
 10
730256.2611508996
 20
9237494.038510336
 10
730260.0423881835
 20
9237494.415663594
 10
730258.3258764276
 20
9237511.624949543
 10
730254.5446391436
 20
9237511.247796284
  0
ENDSEC
  0
SECTION
  2
OBJECTS
  0
DICTIONARY
  5
A
330
0
100
AcDbDictionary
281
1
  3
ACAD_COLOR
350
B
  3
ACAD_GROUP
350
C
  3
ACAD_LAYOUT
350
D
  3
ACAD_MATERIAL
350
E
  3
ACAD_MLEADERSTYLE
350
F
  3
ACAD_MLINESTYLE
350
10
  3
ACAD_PLOTSETTINGS
350
11
  3
ACAD_PLOTSTYLENAME
350
12
  3
ACAD_SCALELIST
350
14
  3
ACAD_TABLESTYLE
350
15
  3
ACAD_VISUALSTYLE
350
16
  3
EZDXF_META
350
2D
  0
DICTIONARY
  5
B
330
A
100
AcDbDictionary
281
1
  0
DICTIONARY
  5
C
330
A
100
AcDbDictionary
281
1
  0
DICTIONARY
  5
D
330
A
100
AcDbDictionary
281
1
  3
Model
350
1A
  3
Layout1
350
1E
  0
DICTIONARY
  5
E
330
A
100
AcDbDictionary
281
1
  3
ByBlock
350
1F
  3
ByLayer
350
20
  3
Global
350
21
  0
DICTIONARY
  5
F
330
A
100
AcDbDictionary
281
1
  3
Standard
350
2C
  0
DICTIONARY
  5
10
330
A
100
AcDbDictionary
281
1
  3
Standard
350
22
  0
DICTIONARY
  5
11
330
A
100
AcDbDictionary
281
1
  0
ACDBDICTIONARYWDFLT
  5
12
330
A
100
AcDbDictionary
281
1
  3
Normal
350
13
100
AcDbDictionaryWithDefault
340
13
  0
ACDBPLACEHOLDER
  5
13
330
12
  0
DICTIONARY
  5
14
330
A
100
AcDbDictionary
281
1
  0
DICTIONARY
  5
15
330
A
100
AcDbDictionary
281
1
  0
DICTIONARY
  5
16
330
A
100
AcDbDictionary
281
1
  3
2dWireframe
350
5A
  3
Basic
350
5B
  3
Brighten
350
5C
  3
ColorChange
350
5D
  3
Conceptual
350
5E
  3
Dim
350
5F
  3
EdgeColorOff
350
60
  3
Facepattern
350
61
  3
Flat
350
62
  3
FlatWithEdges
350
63
  3
Gouraud
350
64
  3
GouraudWithEdges
350
65
  3
Hidden
350
66
  3
JitterOff
350
67
  3
Linepattern
350
68
  3
Modeling
350
69
  3
OverhangOff
350
6A
  3
Realistic
350
6B
  3
Shaded
350
6C
  3
Shaded with edges
350
6D
  3
Shades of Gray
350
6E
  3
Sketchy
350
6F
  3
Thicken
350
70
  3
Wireframe
350
71
  3
X-Ray
350
72
  0
LAYOUT
  5
1A
330
D
100
AcDbPlotSettings
  1

  4
A3
  6

 40
7.5
 41
20.0
 42
7.5
 43
20.0
 44
420.0
 45
297.0
 46
0.0
 47
0.0
 48
0.0
 49
0.0
140
0.0
141
0.0
142
1.0
143
1.0
 70
1024
 72
1
 73
0
 74
5
  7

 75
16
 76
0
 77
2
 78
300
147
1.0
148
0.0
149
0.0
100
AcDbLayout
  1
Model
 70
1
 71
0
 10
0.0
 20
0.0
 11
420.0
 21
297.0
 12
0.0
 22
0.0
 32
0.0
 14
1e+20
 24
1e+20
 34
1e+20
 15
-1e+20
 25
-1e+20
 35
-1e+20
146
0.0
 13
0.0
 23
0.0
 33
0.0
 16
1.0
 26
0.0
 36
0.0
 17
0.0
 27
1.0
 37
0.0
 76
1
330
17
  0
LAYOUT
  5
1E
330
D
100
AcDbPlotSettings
  1

  4
A3
  6

 40
7.5
 41
20.0
 42
7.5
 43
20.0
 44
420.0
 45
297.0
 46
0.0
 47
0.0
 48
0.0
 49
0.0
140
0.0
141
0.0
142
1.0
143
1.0
 70
0
 72
1
 73
0
 74
5
  7

 75
16
 76
0
 77
2
 78
300
147
1.0
148
0.0
149
0.0
100
AcDbLayout
  1
Layout1
 70
1
 71
1
 10
0.0
 20
0.0
 11
420.0
 21
297.0
 12
0.0
 22
0.0
 32
0.0
 14
1e+20
 24
1e+20
 34
1e+20
 15
-1e+20
 25
-1e+20
 35
-1e+20
146
0.0
 13
0.0
 23
0.0
 33
0.0
 16
1.0
 26
0.0
 36
0.0
 17
0.0
 27
1.0
 37
0.0
 76
1
330
1B
  0
MATERIAL
  5
1F
102
{ACAD_REACTORS
330
E
102
}
330
E
100
AcDbMaterial
  1
ByBlock
  2

 70
0
 40
1.0
 71
1
 41
1.0
 91
-1023410177
 42
1.0
 72
1
  3

 73
1
 74
1
 75
1
 44
0.5
 73
0
 45
1.0
 46
1.0
 77
1
  4

 78
1
 79
1
170
1
 48
1.0
171
1
  6

172
1
173
1
174
1
140
1.0
141
1.0
175
1
  7

176
1
177
1
178
1
143
1.0
179
1
  8

270
1
271
1
272
1
145
1.0
146
1.0
273
1
  9

274
1
275
1
276
1
 42
1.0
 72
1
  3

 73
1
 74
1
 75
1
 94
63
  0
MATERIAL
  5
20
102
{ACAD_REACTORS
330
E
102
}
330
E
100
AcDbMaterial
  1
ByLayer
  2

 70
0
 40
1.0
 71
1
 41
1.0
 91
-1023410177
 42
1.0
 72
1
  3

 73
1
 74
1
 75
1
 44
0.5
 73
0
 45
1.0
 46
1.0
 77
1
  4

 78
1
 79
1
170
1
 48
1.0
171
1
  6

172
1
173
1
174
1
140
1.0
141
1.0
175
1
  7

176
1
177
1
178
1
143
1.0
179
1
  8

270
1
271
1
272
1
145
1.0
146
1.0
273
1
  9

274
1
275
1
276
1
 42
1.0
 72
1
  3

 73
1
 74
1
 75
1
 94
63
  0
MATERIAL
  5
21
102
{ACAD_REACTORS
330
E
102
}
330
E
100
AcDbMaterial
  1
Global
  2

 70
0
 40
1.0
 71
1
 41
1.0
 91
-1023410177
 42
1.0
 72
1
  3

 73
1
 74
1
 75
1
 44
0.5
 73
0
 45
1.0
 46
1.0
 77
1
  4

 78
1
 79
1
170
1
 48
1.0
171
1
  6

172
1
173
1
174
1
140
1.0
141
1.0
175
1
  7

176
1
177
1
178
1
143
1.0
179
1
  8

270
1
271
1
272
1
145
1.0
146
1.0
273
1
  9

274
1
275
1
276
1
 42
1.0
 72
1
  3

 73
1
 74
1
 75
1
 94
63
  0
MLINESTYLE
  5
22
102
{ACAD_REACTORS
330
10
102
}
330
10
100
AcDbMlineStyle
  2
Standard
 70
0
  3

 62
256
 51
90.0
 52
90.0
 71
2
 49
0.5
 62
256
  6
BYLAYER
 49
-0.5
 62
256
  6
BYLAYER
  0
MLEADERSTYLE
  5
2C
102
{ACAD_REACTORS
330
F
102
}
330
F
100
AcDbMLeaderStyle
179
2
170
2
171
1
172
0
 90
2
 40
0.0
 41
0.0
173
1
 91
-1056964608
 92
-2
290
1
 42
2.0
291
1
 43
8.0
  3
Standard
 44
4.0
300

342
29
174
1
175
1
176
0
178
1
 93
-1056964608
 45
4.0
292
0
297
0
 46
4.0
 94
-1056964608
 47
1.0
 49
1.0
140
1.0
294
1
141
0.0
177
0
142
1.0
295
0
296
0
143
3.75
271
0
272
9
273
9
  0
DICTIONARY
  5
2D
330
A
100
AcDbDictionary
280
1
281
1
  3
CREATED_BY_EZDXF
350
2E
  3
WRITTEN_BY_EZDXF
350
386
  0
DICTIONARYVAR
  5
2E
330
2D
100
DictionaryVariables
280
0
  1
1.4.3 @ 2026-02-19T14:09:35.874600+00:00
  0
VISUALSTYLE
  5
5A
102
{ACAD_REACTORS
330
16
102
}
330
16
100
AcDbVisualStyle
  2
2dWireframe
 70
4
 90
0
 40
0.6
 62
7
290
0
291
0
  0
VISUALSTYLE
  5
5B
102
{ACAD_REACTORS
330
16
102
}
330
16
100
AcDbVisualStyle
  2
Basic
 70
7
 90
1
 40
0.6
 62
7
290
0
291
1
  0
VISUALSTYLE
  5
5C
102
{ACAD_REACTORS
330
16
102
}
330
16
100
AcDbVisualStyle
  2
Brighten
 70
12
 90
2
 40
0.6
 62
7
290
0
291
1
  0
VISUALSTYLE
  5
5D
102
{ACAD_REACTORS
330
16
102
}
330
16
100
AcDbVisualStyle
  2
ColorChange
 70
16
 90
2
 40
0.6
 62
8
290
0
291
1
  0
VISUALSTYLE
  5
5E
102
{ACAD_REACTORS
330
16
102
}
330
16
100
AcDbVisualStyle
  2
Conceptual
 70
9
 90
3
 40
0.6
 62
7
290
0
291
0
  0
VISUALSTYLE
  5
5F
102
{ACAD_REACTORS
330
16
102
}
330
16
100
AcDbVisualStyle
  2
Dim
 70
11
 90
2
 40
0.6
 62
7
290
0
291
1
  0
VISUALSTYLE
  5
60
102
{ACAD_REACTORS
330
16
102
}
330
16
100
AcDbVisualStyle
  2
EdgeColorOff
 70
22
 90
2
 40
0.6
 62
7
290
0
291
1
  0
VISUALSTYLE
  5
61
102
{ACAD_REACTORS
330
16
102
}
330
16
100
AcDbVisualStyle
  2
Facepattern
 70
15
 90
2
 40
0.6
 62
7
290
0
291
1
  0
VISUALSTYLE
  5
62
102
{ACAD_REACTORS
330
16
102
}
330
16
100
AcDbVisualStyle
  2
Flat
 70
0
 90
2
 40
0.6
 62
7
290
0
291
1
  0
VISUALSTYLE
  5
63
102
{ACAD_REACTORS
330
16
102
}
330
16
100
AcDbVisualStyle
  2
FlatWithEdges
 70
1
 90
2
 40
0.6
 62
7
290
0
291
1
  0
VISUALSTYLE
  5
64
102
{ACAD_REACTORS
330
16
102
}
330
16
100
AcDbVisualStyle
  2
Gouraud
 70
2
 90
2
 40
0.6
 62
7
290
0
291
1
  0
VISUALSTYLE
  5
65
102
{ACAD_REACTORS
330
16
102
}
330
16
100
AcDbVisualStyle
  2
GouraudWithEdges
 70
3
 90
2
 40
0.6
 62
7
290
0
291
1
  0
VISUALSTYLE
  5
66
102
{ACAD_REACTORS
330
16
102
}
330
16
100
AcDbVisualStyle
  2
Hidden
 70
6
 90
1
 40
0.6
 62
7
290
0
291
0
  0
VISUALSTYLE
  5
67
102
{ACAD_REACTORS
330
16
102
}
330
16
100
AcDbVisualStyle
  2
JitterOff
 70
20
 90
2
 40
0.6
 62
7
290
0
291
1
  0
VISUALSTYLE
  5
68
102
{ACAD_REACTORS
330
16
102
}
330
16
100
AcDbVisualStyle
  2
Linepattern
 70
14
 90
2
 40
0.6
 62
7
290
0
291
1
  0
VISUALSTYLE
  5
69
102
{ACAD_REACTORS
330
16
102
}
330
16
100
AcDbVisualStyle
  2
Modeling
 70
10
 90
2
 40
0.6
 62
7
290
0
291
0
  0
VISUALSTYLE
  5
6A
102
{ACAD_REACTORS
330
16
102
}
330
16
100
AcDbVisualStyle
  2
OverhangOff
 70
21
 90
2
 40
0.6
 62
7
290
0
291
1
  0
VISUALSTYLE
  5
6B
102
{ACAD_REACTORS
330
16
102
}
330
16
100
AcDbVisualStyle
  2
Realistic
 70
8
 90
2
 40
0.6
 62
7
290
0
291
0
  0
VISUALSTYLE
  5
6C
102
{ACAD_REACTORS
330
16
102
}
330
16
100
AcDbVisualStyle
  2
Shaded
 70
27
 90
2
 40
0.6
 62
7
290
0
291
0
  0
VISUALSTYLE
  5
6D
102
{ACAD_REACTORS
330
16
102
}
330
16
100
AcDbVisualStyle
  2
Shaded with edges
 70
26
 90
2
 40
0.6
 62
7
290
0
291
0
  0
VISUALSTYLE
  5
6E
102
{ACAD_REACTORS
330
16
102
}
330
16
100
AcDbVisualStyle
  2
Shades of Gray
 70
23
 90
2
 40
0.6
 62
7
290
0
291
0
  0
VISUALSTYLE
  5
6F
102
{ACAD_REACTORS
330
16
102
}
330
16
100
AcDbVisualStyle
  2
Sketchy
 70
24
 90
1
 40
0.6
 62
7
290
0
291
0
  0
VISUALSTYLE
  5
70
102
{ACAD_REACTORS
330
16
102
}
330
16
100
AcDbVisualStyle
  2
Thicken
 70
13
 90
2
 40
0.6
 62
7
290
0
291
1
  0
VISUALSTYLE
  5
71
102
{ACAD_REACTORS
330
16
102
}
330
16
100
AcDbVisualStyle
  2
Wireframe
 70
5
 90
0
 40
0.6
 62
7
290
0
291
0
  0
VISUALSTYLE
  5
72
102
{ACAD_REACTORS
330
16
102
}
330
16
100
AcDbVisualStyle
  2
X-Ray
 70
25
 90
2
 40
0.5
 62
7
290
0
291
0
  0
DICTIONARYVAR
  5
386
330
2D
100
DictionaryVariables
280
0
  1
1.4.3 @ 2026-02-25T22:59:39.137583+00:00
  0
ENDSEC
  0
EOF
